<VTKFile type="UnstructuredGrid" version="0.1" byte_order="LittleEndian" header_type="UInt32" compressor="vtkZLibDataCompressor">
  <UnstructuredGrid>
    <Piece NumberOfPoints="1405" NumberOfCells="1405">
      <PointData Scalars="CriticalType">
        <DataArray type="Int32" Name="NodeId" format="ascii" RangeMin="0" RangeMax="1404">
          0 1 2 3 4 5
          6 7 8 9 10 11
          12 13 14 15 16 17
          18 19 20 21 22 23
          24 25 26 27 28 29
          30 31 32 33 34 35
          36 37 38 39 40 41
          42 43 44 45 46 47
          48 49 50 51 52 53
          54 55 56 57 58 59
          60 61 62 63 64 65
          66 67 68 69 70 71
          72 73 74 75 76 77
          78 79 80 81 82 83
          84 85 86 87 88 89
          90 91 92 93 94 95
          96 97 98 99 100 101
          102 103 104 105 106 107
          108 109 110 111 112 113
          114 115 116 117 118 119
          120 121 122 123 124 125
          126 127 128 129 130 131
          132 133 134 135 136 137
          138 139 140 141 142 143
          144 145 146 147 148 149
          150 151 152 153 154 155
          156 157 158 159 160 161
          162 163 164 165 166 167
          168 169 170 171 172 173
          174 175 176 177 178 179
          180 181 182 183 184 185
          186 187 188 189 190 191
          192 193 194 195 196 197
          198 199 200 201 202 203
          204 205 206 207 208 209
          210 211 212 213 214 215
          216 217 218 219 220 221
          222 223 224 225 226 227
          228 229 230 231 232 233
          234 235 236 237 238 239
          240 241 242 243 244 245
          246 247 248 249 250 251
          252 253 254 255 256 257
          258 259 260 261 262 263
          264 265 266 267 268 269
          270 271 272 273 274 275
          276 277 278 279 280 281
          282 283 284 285 286 287
          288 289 290 291 292 293
          294 295 296 297 298 299
          300 301 302 303 304 305
          306 307 308 309 310 311
          312 313 314 315 316 317
          318 319 320 321 322 323
          324 325 326 327 328 329
          330 331 332 333 334 335
          336 337 338 339 340 341
          342 343 344 345 346 347
          348 349 350 351 352 353
          354 355 356 357 358 359
          360 361 362 363 364 365
          366 367 368 369 370 371
          372 373 374 375 376 377
          378 379 380 381 382 383
          384 385 386 387 388 389
          390 391 392 393 394 395
          396 397 398 399 400 401
          402 403 404 405 406 407
          408 409 410 411 412 413
          414 415 416 417 418 419
          420 421 422 423 424 425
          426 427 428 429 430 431
          432 433 434 435 436 437
          438 439 440 441 442 443
          444 445 446 447 448 449
          450 451 452 453 454 455
          456 457 458 459 460 461
          462 463 464 465 466 467
          468 469 470 471 472 473
          474 475 476 477 478 479
          480 481 482 483 484 485
          486 487 488 489 490 491
          492 493 494 495 496 497
          498 499 500 501 502 503
          504 505 506 507 508 509
          510 511 512 513 514 515
          516 517 518 519 520 521
          522 523 524 525 526 527
          528 529 530 531 532 533
          534 535 536 537 538 539
          540 541 542 543 544 545
          546 547 548 549 550 551
          552 553 554 555 556 557
          558 559 560 561 562 563
          564 565 566 567 568 569
          570 571 572 573 574 575
          576 577 578 579 580 581
          582 583 584 585 586 587
          588 589 590 591 592 593
          594 595 596 597 598 599
          600 601 602 603 604 605
          606 607 608 609 610 611
          612 613 614 615 616 617
          618 619 620 621 622 623
          624 625 626 627 628 629
          630 631 632 633 634 635
          636 637 638 639 640 641
          642 643 644 645 646 647
          648 649 650 651 652 653
          654 655 656 657 658 659
          660 661 662 663 664 665
          666 667 668 669 670 671
          672 673 674 675 676 677
          678 679 680 681 682 683
          684 685 686 687 688 689
          690 691 692 693 694 695
          696 697 698 699 700 701
          702 703 704 705 706 707
          708 709 710 711 712 713
          714 715 716 717 718 719
          720 721 722 723 724 725
          726 727 728 729 730 731
          732 733 734 735 736 737
          738 739 740 741 742 743
          744 745 746 747 748 749
          750 751 752 753 754 755
          756 757 758 759 760 761
          762 763 764 765 766 767
          768 769 770 771 772 773
          774 775 776 777 778 779
          780 781 782 783 784 785
          786 787 788 789 790 791
          792 793 794 795 796 797
          798 799 800 801 802 803
          804 805 806 807 808 809
          810 811 812 813 814 815
          816 817 818 819 820 821
          822 823 824 825 826 827
          828 829 830 831 832 833
          834 835 836 837 838 839
          840 841 842 843 844 845
          846 847 848 849 850 851
          852 853 854 855 856 857
          858 859 860 861 862 863
          864 865 866 867 868 869
          870 871 872 873 874 875
          876 877 878 879 880 881
          882 883 884 885 886 887
          888 889 890 891 892 893
          894 895 896 897 898 899
          900 901 902 903 904 905
          906 907 908 909 910 911
          912 913 914 915 916 917
          918 919 920 921 922 923
          924 925 926 927 928 929
          930 931 932 933 934 935
          936 937 938 939 940 941
          942 943 944 945 946 947
          948 949 950 951 952 953
          954 955 956 957 958 959
          960 961 962 963 964 965
          966 967 968 969 970 971
          972 973 974 975 976 977
          978 979 980 981 982 983
          984 985 986 987 988 989
          990 991 992 993 994 995
          996 997 998 999 1000 1001
          1002 1003 1004 1005 1006 1007
          1008 1009 1010 1011 1012 1013
          1014 1015 1016 1017 1018 1019
          1020 1021 1022 1023 1024 1025
          1026 1027 1028 1029 1030 1031
          1032 1033 1034 1035 1036 1037
          1038 1039 1040 1041 1042 1043
          1044 1045 1046 1047 1048 1049
          1050 1051 1052 1053 1054 1055
          1056 1057 1058 1059 1060 1061
          1062 1063 1064 1065 1066 1067
          1068 1069 1070 1071 1072 1073
          1074 1075 1076 1077 1078 1079
          1080 1081 1082 1083 1084 1085
          1086 1087 1088 1089 1090 1091
          1092 1093 1094 1095 1096 1097
          1098 1099 1100 1101 1102 1103
          1104 1105 1106 1107 1108 1109
          1110 1111 1112 1113 1114 1115
          1116 1117 1118 1119 1120 1121
          1122 1123 1124 1125 1126 1127
          1128 1129 1130 1131 1132 1133
          1134 1135 1136 1137 1138 1139
          1140 1141 1142 1143 1144 1145
          1146 1147 1148 1149 1150 1151
          1152 1153 1154 1155 1156 1157
          1158 1159 1160 1161 1162 1163
          1164 1165 1166 1167 1168 1169
          1170 1171 1172 1173 1174 1175
          1176 1177 1178 1179 1180 1181
          1182 1183 1184 1185 1186 1187
          1188 1189 1190 1191 1192 1193
          1194 1195 1196 1197 1198 1199
          1200 1201 1202 1203 1204 1205
          1206 1207 1208 1209 1210 1211
          1212 1213 1214 1215 1216 1217
          1218 1219 1220 1221 1222 1223
          1224 1225 1226 1227 1228 1229
          1230 1231 1232 1233 1234 1235
          1236 1237 1238 1239 1240 1241
          1242 1243 1244 1245 1246 1247
          1248 1249 1250 1251 1252 1253
          1254 1255 1256 1257 1258 1259
          1260 1261 1262 1263 1264 1265
          1266 1267 1268 1269 1270 1271
          1272 1273 1274 1275 1276 1277
          1278 1279 1280 1281 1282 1283
          1284 1285 1286 1287 1288 1289
          1290 1291 1292 1293 1294 1295
          1296 1297 1298 1299 1300 1301
          1302 1303 1304 1305 1306 1307
          1308 1309 1310 1311 1312 1313
          1314 1315 1316 1317 1318 1319
          1320 1321 1322 1323 1324 1325
          1326 1327 1328 1329 1330 1331
          1332 1333 1334 1335 1336 1337
          1338 1339 1340 1341 1342 1343
          1344 1345 1346 1347 1348 1349
          1350 1351 1352 1353 1354 1355
          1356 1357 1358 1359 1360 1361
          1362 1363 1364 1365 1366 1367
          1368 1369 1370 1371 1372 1373
          1374 1375 1376 1377 1378 1379
          1380 1381 1382 1383 1384 1385
          1386 1387 1388 1389 1390 1391
          1392 1393 1394 1395 1396 1397
          1398 1399 1400 1401 1402 1403
          1404
        </DataArray>
        <DataArray type="Float32" Name="Scalar" format="ascii" RangeMin="0.946075439453125" RangeMax="8.740501403808594">
          0.94607544 0.976593 1.3428116 1.3977509 1.4435272 1.4618378
          1.4954071 1.4984589 1.5259247 1.6357956 1.6418991 1.7029343
          1.7395554 1.7426071 1.7487106 1.7487106 1.7517624 1.7670212
          1.7761765 1.78228 1.7975388 1.8402634 1.8433151 1.8463669
          1.8494186 1.8524704 1.8555222 1.8982544 1.9379274 1.9562378
          1.9592896 1.965393 1.9837036 1.9959106 2.0111694 2.02948
          2.0386353 2.0416868 2.0508423 2.0599976 2.0966187 2.105774
          2.1088257 2.1332474 2.1454544 2.1546097 2.1637647 2.175972
          2.188179 2.1912305 2.1942825 2.200386 2.2034378 2.2064896
          2.2095413 2.2095413 2.2156446 2.2186966 2.2217484 2.2309036
          2.2309036 2.2339554 2.2339554 2.2370071 2.240059 2.240059
          2.2431107 2.243111 2.2522662 2.2583694 2.2614212 2.2705765
          2.2705765 2.27668 2.2827835 2.2858353 2.2858353 2.288887
          2.288887 2.2919388 2.2949905 2.2949905 2.3041456 2.3071976
          2.3102493 2.3102493 2.313301 2.3285599 2.337715 2.3377151
          2.3377151 2.340767 2.3468704 2.3682327 2.3712845 2.3712845
          2.3712845 2.3773956 2.3834991 2.3834991 2.386551 2.386551
          2.3896027 2.3926547 2.3957062 2.398758 2.4079132 2.4079132
          2.410965 2.4262238 2.4262238 2.4323273 2.4323273 2.4384308
          2.4384308 2.4384308 2.4445345 2.4475858 2.4506378 2.4506378
          2.4567413 2.4567413 2.459793 2.459793 2.459793 2.459793
          2.4658966 2.4689484 2.4720001 2.4720001 2.4781036 2.4811554
          2.4842072 2.4842072 2.487259 2.4903107 2.4903107 2.4964142
          2.499466 2.499466 2.5025177 2.5025177 2.5025177 2.5055695
          2.5055695 2.5086212 2.511673 2.511673 2.5208282 2.5269318
          2.5330353 2.5421906 2.5421906 2.5452423 2.5513458 2.5513458
          2.5574493 2.5574493 2.5635529 2.5666046 2.5666046 2.5666046
          2.5788116 2.5788116 2.5788116 2.5818634 2.5818634 2.5818634
          2.5849152 2.5910187 2.5940704 2.5971222 2.6032257 2.6093292
          2.6154327 2.6154327 2.6184845 2.6184845 2.6215363 2.6245956
          2.6276474 2.6276474 2.6306992 2.6306992 2.6368027 2.6429062
          2.645958 2.645958 2.6490097 2.6490097 2.658165 2.6642685
          2.6673203 2.6673203 2.6734238 2.6734238 2.6734238 2.6734238
          2.6734238 2.6734238 2.673424 2.6764755 2.6764755 2.682579
          2.682579 2.6856308 2.6856308 2.6886826 2.6917343 2.694786
          2.694786 2.6978378 2.6978378 2.7008896 2.7008896 2.7039413
          2.7039413 2.7161484 2.7192 2.7192001 2.7192001 2.7192001
          2.7283552 2.7283554 2.7283554 2.7283554 2.734459 2.7375107
          2.7436142 2.746666 2.7497177 2.7527695 2.7527695 2.7527695
          2.758873 2.7619247 2.7619247 2.7649765 2.77108 2.77108
          2.7741318 2.7741318 2.7771835 2.7771835 2.7771835 2.7771835
          2.7802353 2.7802353 2.783287 2.783287 2.7863388 2.7863388
          2.7863388 2.7893906 2.7893906 2.7893906 2.7924423 2.795494
          2.795494 2.795494 2.7985458 2.8046494 2.8107529 2.8168564
          2.8199081 2.8199081 2.82296 2.8260117 2.8290634 2.8321152
          2.8321152 2.835167 2.835167 2.8382187 2.8382187 2.8412704
          2.8412704 2.8412704 2.847374 2.847374 2.847374 2.8504257
          2.8565292 2.8565292 2.8565292 2.8565292 2.8565292 2.8626328
          2.8626328 2.8656845 2.8687363 2.871788 2.871788 2.871788
          2.8778992 2.8778992 2.8778992 2.8778992 2.8840027 2.8870544
          2.893158 2.893158 2.893158 2.893158 2.8962097 2.8962097
          2.8962097 2.8962097 2.8992615 2.8992615 2.9023132 2.9023132
          2.9023132 2.905365 2.905365 2.905365 2.9084167 2.9084167
          2.9114685 2.9114685 2.9114685 2.9114685 2.9145203 2.9145203
          2.917572 2.917572 2.917572 2.9206238 2.9236755 2.9236755
          2.9267273 2.9267273 2.9267273 2.929779 2.929779 2.9328308
          2.9328308 2.9328308 2.9358826 2.9358826 2.9389343 2.941986
          2.941986 2.9450378 2.9450378 2.9450378 2.9480896 2.9511414
          2.9511414 2.954193 2.954193 2.954193 2.954193 2.9572449
          2.9602966 2.9602966 2.9602966 2.9633484 2.9664001 2.9664001
          2.9755554 2.9755554 2.9877625 2.9908142 2.9908142 2.9908142
          2.993866 2.993866 2.9969177 2.9969177 2.9999695 3.0030212
          3.0030212 3.0030212 3.0030212 3.006073 3.0091248 3.0091248
          3.0121765 3.0121765 3.0121765 3.0121765 3.0121765 3.0152283
          3.0152283 3.0152283 3.01828 3.01828 3.0213318 3.0243835
          3.0243835 3.0274353 3.0274353 3.0274353 3.0274353 3.030487
          3.0335388 3.0335388 3.0335388 3.0365906 3.0365906 3.0365906
          3.0487976 3.0487976 3.0487976 3.0518491 3.0549011 3.0549011
          3.0549011 3.057953 3.057953 3.057953 3.0610046 3.0610046
          3.0640564 3.0671082 3.0671082 3.0732117 3.0762634 3.0762634
          3.0762634 3.0762637 3.0793152 3.0793152 3.0793152 3.0854187
          3.0854187 3.0884705 3.0884707 3.0915222 3.0915222 3.0976257
          3.0976257 3.1006775 3.1037292 3.1098328 3.1128845 3.1128845
          3.1159363 3.1159363 3.1159363 3.118988 3.1220398 3.1220398
          3.1250992 3.1250992 3.128151 3.128151 3.1312027 3.1312027
          3.1342545 3.1373062 3.1373062 3.140358 3.1434097 3.1495132
          3.1495132 3.1586685 3.1586685 3.164772 3.164772 3.1678238
          3.1739273 3.1739273 3.176979 3.1800308 3.1800308 3.1830826
          3.1830826 3.1861343 3.189186 3.1922379 3.1952896 3.1952899
          3.1983414 3.1983414 3.1983414 3.2013931 3.2013931 3.2013931
          3.204445 3.2074966 3.2074966 3.2074966 3.2074966 3.2074966
          3.2074966 3.2105484 3.2136002 3.2136002 3.216652 3.2197037
          3.2197037 3.2197037 3.2227554 3.2227554 3.2227554 3.2258072
          3.2258072 3.228859 3.228859 3.2319107 3.2349625 3.2349625
          3.2349625 3.2380142 3.2380142 3.2380142 3.241066 3.241066
          3.2441177 3.2441177 3.2441177 3.2441177 3.2441177 3.2502213
          3.253273 3.253273 3.26548 3.2685318 3.2715836 3.2746353
          3.2746353 3.277687 3.277687 3.277687 3.277687 3.2807388
          3.2837906 3.2868423 3.2868423 3.2868423 3.2868423 3.289894
          3.2929459 3.2929459 3.2959976 3.2959976 3.2990494 3.2990494
          3.3021011 3.3021011 3.3021011 3.305153 3.3082047 3.3082047
          3.3112564 3.3112566 3.3143082 3.3204117 3.3204117 3.3234634
          3.3234634 3.329567 3.3326187 3.3356705 3.3387222 3.3387222
          3.3387222 3.341774 3.341774 3.3448257 3.3478775 3.3478775
          3.3509293 3.353981 3.3570328 3.3570328 3.3600845 3.3600845
          3.3631363 3.3631363 3.366188 3.366188 3.3692398 3.3692398
          3.36924 3.375351 3.3784027 3.3845062 3.3845065 3.3875577
          3.3875577 3.387558 3.387558 3.387558 3.3906097 3.3936615
          3.3936615 3.3936615 3.3967133 3.399765 3.399765 3.3997653
          3.4028168 3.4028168 3.4058685 3.4058685 3.4089203 3.411972
          3.411972 3.4150238 3.4150238 3.4180756 3.4180756 3.4180756
          3.4211273 3.424179 3.4272308 3.4302826 3.4333344 3.4333344
          3.4333344 3.436386 3.4394379 3.4394379 3.4394379 3.4424896
          3.4455414 3.451645 3.4546967 3.454697 3.4577484 3.4608002
          3.4608002 3.4608002 3.463852 3.463852 3.463852 3.4669037
          3.4669037 3.4699554 3.476059 3.4791107 3.4791107 3.4791107
          3.4821625 3.4821625 3.4913177 3.4943695 3.4974213 3.500473
          3.500473 3.500473 3.5035248 3.5035248 3.5065765 3.5065765
          3.5065765 3.51268 3.51268 3.51268 3.5157318 3.5157318
          3.5218353 3.5218353 3.5218353 3.524887 3.5279388 3.5279388
          3.5279388 3.5309906 3.5309908 3.5340424 3.5340424 3.5340424
          3.537094 3.5401459 3.5401459 3.5431976 3.5431976 3.5493011
          3.5493011 3.5493014 3.552353 3.552353 3.5554047 3.5554047
          3.5584564 3.5615082 3.5615082 3.5615082 3.5615082 3.5615082
          3.56456 3.56456 3.56456 3.56456 3.5676115 3.5706635
          3.5706637 3.5737152 3.5737152 3.5737152 3.576767 3.5798187
          3.585922 3.585922 3.585922 3.5859222 3.588974 3.588974
          3.5920258 3.5920258 3.5950775 3.601181 3.601181 3.601181
          3.6042328 3.6042328 3.6042328 3.6072845 3.6072845 3.6103363
          3.6103363 3.6103363 3.6103363 3.6103363 3.613388 3.6194916
          3.6194916 3.6194916 3.622551 3.6256027 3.6256027 3.6256027
          3.6256027 3.6286545 3.6286545 3.6317062 3.6317062 3.634758
          3.6378098 3.6378098 3.6408615 3.6439133 3.646965 3.646965
          3.646965 3.646965 3.6500168 3.6500168 3.6500168 3.6530685
          3.6530685 3.6561203 3.6561203 3.659172 3.6652756 3.6652756
          3.6652756 3.6683273 3.6683273 3.6683273 3.671379 3.6744308
          3.6744308 3.6744308 3.6744308 3.6774826 3.6774826 3.6805344
          3.6835861 3.6866379 3.6866379 3.6866379 3.6866379 3.6866379
          3.6927414 3.6927414 3.6927414 3.6957932 3.698845 3.7018967
          3.7018967 3.7018967 3.7049484 3.7080002 3.7080002 3.711052
          3.711052 3.7171555 3.7171555 3.723259 3.7293625 3.7293625
          3.7293625 3.7293625 3.7415695 3.7507248 3.7537766 3.7537766
          3.7568283 3.7568283 3.7568283 3.7568283 3.75988 3.75988
          3.75988 3.7629318 3.7659836 3.7690353 3.7690353 3.772087
          3.772087 3.772087 3.7751389 3.7751389 3.7781904 3.7781904
          3.7781906 3.7781906 3.7812424 3.7812424 3.7842941 3.7842941
          3.7903976 3.7934494 3.7934494 3.7965012 3.7965012 3.7965012
          3.8026047 3.8026047 3.8026047 3.8026047 3.8087082 3.8087082
          3.81176 3.8148117 3.823967 3.823967 3.823967 3.823967
          3.823967 3.823967 3.8270187 3.8270187 3.8300705 3.8331223
          3.8331223 3.8392258 3.8392258 3.8392258 3.8392258 3.8422775
          3.845329 3.8453293 3.8453293 3.8453293 3.848381 3.8514328
          3.8544846 3.8544846 3.860588 3.8636398 3.8636398 3.8666916
          3.8697433 3.8697433 3.8697433 3.8758545 3.8789062 3.881958
          3.8850098 3.8850098 3.8911133 3.8941648 3.894165 3.894165
          3.894165 3.906372 3.906372 3.9094238 3.9124756 3.9124756
          3.9155273 3.9155273 3.918579 3.918579 3.918579 3.918579
          3.918579 3.9216309 3.9307861 3.9307861 3.933838 3.933838
          3.933838 3.9368896 3.9368896 3.9368896 3.9368896 3.9429932
          3.9429932 3.946045 3.946045 3.946045 3.9490967 3.9490967
          3.9490967 3.9490967 3.9521484 3.9521484 3.9521484 3.9521484
          3.9521484 3.9552002 3.958252 3.958252 3.958252 3.9613037
          3.9613037 3.9643555 3.9643555 3.9674072 3.970459 3.9735107
          3.9765625 3.9796143 3.9826658 3.9857178 3.9887695 3.9887695
          3.9979248 4.0009766 4.00708 4.010132 4.010132 4.010132
          4.010132 4.010132 4.0131836 4.0131836 4.0131836 4.0162354
          4.019287 4.022339 4.022339 4.0284424 4.0284424 4.0284424
          4.0284424 4.031494 4.031494 4.034546 4.034546 4.034546
          4.0375977 4.0375977 4.0498047 4.0498047 4.0498047 4.0498047
          4.0528564 4.0528564 4.055908 4.055908 4.05896 4.0620117
          4.0650635 4.068115 4.068115 4.068115 4.068115 4.071167
          4.071167 4.0742188 4.0772705 4.0772705 4.083374 4.083374
          4.086426 4.086426 4.0894775 4.0925293 4.0925293 4.0925293
          4.095581 4.1047363 4.107788 4.107788 4.11084 4.1138916
          4.1138916 4.1138916 4.1138916 4.1169434 4.1169434 4.1230545
          4.129158 4.129158 4.129158 4.1352615 4.1383133 4.141365
          4.144417 4.144417 4.144417 4.1474686 4.1474686 4.1505203
          4.156624 4.1627274 4.165779 4.165779 4.168831 4.168831
          4.168831 4.168831 4.1718826 4.1718826 4.1718826 4.1749344
          4.1749344 4.1749344 4.1749344 4.177986 4.177986 4.177986
          4.177986 4.177986 4.181038 4.181038 4.181038 4.181038
          4.181038 4.1840897 4.1840897 4.1840897 4.1840897 4.1871414
          4.190193 4.190193 4.193245 4.193245 4.1993484 4.2024
          4.2024 4.2024 4.2085037 4.2085037 4.2085037 4.2146072
          4.217659 4.2237625 4.2268143 4.2268143 4.229866 4.232918
          4.232918 4.2359695 4.2390213 4.245125 4.2481766 4.2512283
          4.257332 4.257332 4.257332 4.257332 4.2603836 4.2634354
          4.266487 4.2725906 4.2756424 4.281746 4.281746 4.2847977
          4.2847977 4.290901 4.290901 4.290901 4.290901 4.293953
          4.293953 4.293953 4.293953 4.3000565 4.303108 4.303108
          4.30616 4.3092117 4.3092117 4.3122635 4.321419 4.321419
          4.3244705 4.3244705 4.333626 4.333626 4.3366776 4.3366776
          4.3366776 4.3397293 4.345833 4.354988 4.354988 4.35804
          4.35804 4.35804 4.3641434 4.367195 4.367195 4.367195
          4.370247 4.376358 4.37941 4.3824615 4.3855133 4.391617
          4.3946686 4.3977203 4.400772 4.400772 4.403824 4.4099274
          4.412979 4.4221344 4.4221344 4.428238 4.4434967 4.4465485
          4.4496 4.4557037 4.4557037 4.467911 4.480118 4.4831696
          4.4953766 4.4984283 4.5075836 4.5106354 4.5197906 4.5228424
          4.5228424 4.5228424 4.525894 4.5289454 4.528946 4.528946
          4.5350494 4.538101 4.5442047 4.5594635 4.565567 4.565567
          4.5747223 4.5747223 4.5747223 4.5747223 4.580826 4.5838776
          4.589981 4.589981 4.589981 4.5960846 4.617447 4.617447
          4.617447 4.6204987 4.6204987 4.6204987 4.6204987 4.623558
          4.6327133 4.635765 4.638817 4.647972 4.660179 4.663231
          4.663231 4.6693344 4.672386 4.672386 4.675438 4.675438
          4.6815414 4.6937485 4.7090073 4.7212143 4.7303696 4.7303696
          4.736473 4.739525 4.739525 4.7425766 4.7425766 4.7425766
          4.7456284 4.7456284 4.74868 4.74868 4.751732 4.763939
          4.773094 4.7791977 4.7791977 4.785301 4.7883525 4.7914047
          4.7914047 4.7944565 4.7944565 4.7975082 4.80056 4.8036118
          4.8036118 4.8097153 4.812767 4.815819 4.8188705 4.8188705
          4.8219223 4.828026 4.8341293 4.837181 4.8463364 4.849388
          4.8554916 4.8554916 4.861595 4.864647 4.8676987 4.8707504
          4.87381 4.882965 4.895172 4.895172 4.898224 4.9012756
          4.907379 4.9165344 4.919586 4.9287415 4.9287415 4.934845
          4.9440002 4.9562073 4.959259 4.959259 4.959259 4.962311
          4.9653625 4.974518 4.9775696 4.9806213 4.983673 4.986725
          4.99588 4.99588 5.008087 5.008087 5.011139 5.0141907
          5.023346 5.0263977 5.0294495 5.032501 5.032501 5.035553
          5.0447083 5.050812 5.0538635 5.059967 5.075226 5.075226
          5.096588 5.1026917 5.1057434 5.108795 5.145424 5.145424
          5.1637344 5.169838 5.1728897 5.1850967 5.1881485 5.1881485
          5.218666 5.230873 5.2369766 5.2400284 5.24308 5.246132
          5.2491837 5.255287 5.2613907 5.2735977 5.282753 5.2888565
          5.2888565 5.29496 5.3010635 5.3132706 5.319374 5.334633
          5.3498917 5.359047 5.3651505 5.377365 5.389572 5.392624
          5.3956757 5.3987274 5.401779 5.417038 5.4200897 5.4231415
          5.4353485 5.441452 5.468918 5.4719696 5.4750214 5.49028
          5.49028 5.5207977 5.5238495 5.529953 5.529953 5.54216
          5.557419 5.569626 5.5726776 5.5757294 5.5879364 5.5940404
          5.603195 5.6092987 5.6215057 5.627617 5.636772 5.6428757
          5.6428757 5.6672897 5.6672897 5.688652 5.6978073 5.7069626
          5.7069626 5.7100143 5.7222214 5.725273 5.7466354 5.7557907
          5.7588425 5.7679977 5.7741013 5.7741013 5.777153 5.792412
          5.7954636 5.8442917 5.8473434 5.8564987 5.8687057 5.8931274
          5.9175415 5.9663696 5.9907837 6.012146 6.0579224 6.1036987
          6.115906 6.1525345 6.1769485 6.2135696 6.219673 6.23188
          6.2562943 6.274605 6.2898636 6.308174 6.33564 6.3508987
          6.3570023 6.381424 6.418045 6.421097 6.424148 6.4973907
          6.5126495 6.5370636 6.546219 6.610306 6.619461 6.619461
          6.6438828 6.6744003 6.6805034 6.7445908 6.753746 6.7873154
          6.857506 6.891083 6.8941345 6.9490657 6.9582214 6.9673767
          7.0070496 7.037567 7.089447 7.0955505 7.0986023 7.159645
          8.740501
        </DataArray>
        <DataArray type="Int32" Name="VertexId" format="ascii" RangeMin="5" RangeMax="25569">
          24470 22227 24799 13277 13115 13116
          12954 13114 25274 21403 19164 25268
          23515 23354 23183 24634 23355 24141
          23980 24633 24140 24957 24794 22709
          3629 24948 22378 22864 2830 22380
          23359 2030 21885 23661 3150 22342
          23828 2350 21734 22707 23152 21724
          19967 25515 14965 18184 6988 19948
          4465 4626 23347 6548 11672 5272
          6387 19330 4625 19648 3658 3496
          4427 6388 8158 427 4268 23357
          20135 3657 7035 23268 24248 8319
          25381 25244 5108 5107 23110 4943
          8159 3821 5743 22841 5105 1732
          4946 18677 4785 5109 19647 18669
          19793 12152 18033 1392 915 4795
          25249 6553 23976 23977 5747 5748
          23109 1552 4634 5746 4635 25569
          20298 4473 22362 5428 25409 1391
          4148 22983 4312 4474 1073 21583
          24053 25522 4955 5118 22719 24724
          5117 7677 16722 20296 16403 16563
          4147 4472 21238 18682 24397 24919
          5707 12147 11988 20262 21239 16581
          25503 24214 21104 24384 20263 19156
          921 21691 23612 22485 16577 23942
          1083 18357 1082 920 18997 21358
          18000 21568 24535 4134 23174 23175
          3974 24405 23251 18986 7629 2534
          1086 18842 5067 23760 7628 17839
          17382 23933 1561 24213 15445 17999
          23169 24872 15285 23613 25246 23434
          13104 23123 10079 12943 13103 19658
          21900 22978 1403 18194 21727 7143
          17704 18656 20119 24260 18030 17864
          22688 18031 21264 20765 24609 21971
          22210 18193 6347 8427 11183 24445
          24768 6985 24101 25043 17677 18820
          24921 21901 17837 8107 22935 25015
          19951 4896 22317 4576 21004 22350
          22940 25372 10365 21349 23171 25548
          10688 16316 22211 22773 18196 18828
          22848 5698 24375 24605 22212 4736
          20121 24555 13836 13749 8580 22662
          13750 21534 25033 11505 17543 18517
          22645 9599 24228 17519 19307 9863
          22933 24415 2678 19816 24389 18189
          10222 10526 13587 21494 21897 13588
          20709 5217 17071 8424 13586 24161
          19621 20130 21693 24388 23092 24390
          11489 18339 22819 24254 3795 17066
          18659 23079 3475 25485 11972 16787
          23898 3635 11650 19781 15764 25000
          2840 3954 11811 11812 15929 21644
          11490 21179 22937 23261 11651 24290
          10698 20541 23247 25227 25508 21385
          24226 24855 24077 25509 21484 9068
          10544 10718 12296 22675 16579 10384
          21964 10545 19903 23101 23281 24048
          20689 21210 25329 25198 11169 25387
          23088 24828 21653 10194 12109 22192
          2171 11019 8747 10033 19264 4762
          9233 20275 24049 4581 22834 23305
          2332 11317 12135 21804 25498 4600
          4601 23039 10034 25292 4599 2331
          25499 10995 22516 23400 24813 13254
          13093 13669 15758 14321 17599 23399
          3192 21318 23768 5732 9230 18823
          23546 13094 15519 15599 5734 17227
          5568 13417 23466 23306 16414 16901
          23906 5569 12298 20569 22795 18595
          20880 2662 3351 16250 22826 19897
          22437 21624 21370 20889 16090 23467
          18791 20719 22140 19125 15359 23719
          2664 25172 12919 21571 10996 20720
          9713 22634 24057 23559 20729 17226
          24257 23220 24060 2497 25186 11952
          16574 18471 18631 9081 9724 9560
          20397 25307 20403 16251 2659 23912
          20236 21049 23105 8754 9384 9566
          25528 2334 3775 9565 19248 21225
          25120 20564 21019 23524 15190 8917
          8918 20989 8752 21958 24579 25137
          25346 20563 25133 19893 3294 18145
          22763 8757 9558 18781 3935 20396
          19118 20188 21030 25327 25481 15429
          9722 20222 3133 10980 24359 15927
          21199 20896 22610 24520 25225 3293
          20885 3295 14872 24044 24679 19352
          21959 22793 18323 22299 22916 24519
          21797 24045 25446 19425 22151 25320
          24674 20557 18481 14055 20498 18322
          20640 23135 19580 22152 6675 21496
          22925 20562 22734 22602 16483 18331
          15985 24041 22765 22926 18490 24513
          18321 24040 17511 25482 21007 22920
          14042 16859 21824 23691 25302 24017
          25476 15824 15825 24197 25148 13897
          17694 19740 24835 13737 24514 23393
          8278 22589 8117 24192 20565 8118
          14132 8116 24198 3268 7453 15667
          10328 15999 23234 19382 14380 17322
          18076 21120 6673 7773 17695 14056
          14222 7663 9687 14482 24837 7133
          19739 24647 9156 14062 14381 7766
          11419 7293 7823 1366 17188 20726
          1367 12598 19121 18808 10987 407
          17111 20183 17471 24193 18626 21215
          25477 17025 18139 24331 12121 24966
          11894 24185 25553 24026 6489 21473
          25313 22272 8942 8605 13047 17819
          19895 10503 24807 8884 12225 15868
          19435 15324 10514 21304 17910 22431
          17186 731 6329 20509 21446 23209
          10989 15877 16996 17980 23700 14190
          9096 15040 18077 22425 23540 8442
          12280 22880 24502 19101 19390 24675
          18389 22885 13512 9092 11626 19546
          17964 18467 24491 11627 20960 7930
          15340 17236 22268 22433 13244 15500
          21464 23859 24822 17194 18765 21920
          23369 56 13663 15290 22267 22402
          18070 21202 11743 18468 17275 17754
          19690 22269 9099 17353 17750 15730
          19395 24662 25286 18619 18577 18767
          19093 17595 19235 25295 15648 18290
          21042 21452 24345 13868 14907 12961
          23846 16526 16929 17355 22241 24344
          15295 17687 25314 23862 20980 7128
          10600 17686 23845 209 15289 18779
          22104 15544 17350 15743 13841 16127
          17506 18870 20044 25141 16853 19875
          53 13028 19548 20009 15083 21779
          24809 20153 19708 18101 19849 13241
          19717 21620 17455 22572 15009 22577
          7130 12328 557 13537 12211 19876
          23212 11447 15008 18609 20633 22401
          75 16232 22081 24960 559 8136
          15808 20160 78 4072 7162 7815
          7975 8723 3912 15585 6324 6325
          22573 8883 15533 16824 21600 19573
          22897 11775 18283 25443 25551 13605
          11903 13364 19714 18135 18136 17801
          12212 18426 24671 7496 19051 24980
          13029 21141 12738 9824 14607 19544
          20825 11293 18260 18893 8886 15521
          14137 23841 10972 14841 18458 20313
          20486 17760 16426 20017 12696 20480
          20819 14826 16965 19858 20826 11292
          24167 10812 15706 16969 11896 13722
          14984 24007 12376 13382 13772 13779
          18091 18403 11741 16587 18109 11454
          13365 16048 22736 12536 22409 7000
          20664 13930 22410 4721 11457 18567
          16011 20955 17740 9041 12577 13540
          14029 16500 9504 16608 18583 13931
          12578 11689 13455 4718 9645 9664
          15273 4562 4719 8031 13979 19993
          14259 22404 13522 14766 16074 19393
          17395 20647 9042 10615 18903 16508
          19369 15253 16514 17288 17313 16660
          20795 706 13665 14408 14985 18584
          545 22562 22246 12056 16188 17128
          705 4240 10006 18581 13224 12811
          13613 16221 16803 15487 17921 15453
          10454 15735 21130 10455 1506 14812
          5681 14672 14811 2471 18565 21931
          17928 16168 543 11206 1509 12709
          14099 14249 1508 5936 9160 5832
          13800 18729 21433 709 1993 12254
          14597 14773 2150 2470 15066 16967
          18089 12018 14135 16826 21592 9000
          2152 16834 1994 9487 12093 10961
          11043 16169 10291 12255 17796 17797
          17466 14511 6959 10610 10293 5684
          14933 14449 17015 7596 18249 14560
          10936 13458 17443 21597 11044 15412
          21275 9486 18881 14614 17305 14674
          17933 1192 11719 16017 16195 7598
          10451 11852 14507 11212 10803 17284
          21437 6961 17603 17467 14502 19360
          14116 14503 11282 16991 5675 15360
          19020 14415 15691 10284 12011 12876
          16672 18861 15414 8343 11122 14720
          14276 17578 10445 5827 10444 13341
          14784 11691 5829 13958 13501 9964
          812 5460 12721 14625 11369 11886
          6271 14417 14885 8174 10443 11288
          8179 8064 14084 13126 14886 8027
          9651 11410 16599 19839 11568 11569
          13286 5131 16489 13035 12807 12966
          5617 11079 11411 15695 16436 8182
          9514 10900 11727 20639 9186 12647
          15842 13131 14919 15780 16441 7078
          20799 12563 19678 9933 12015 12730
          15936 9294 14081 16438 9344 15939
          12729 15938 6400 11724 9602 14332
          11208 11591 11710 8556 9348 9515
          8235 11061 6083 10901 8353 9614
          9812 8077 14171 16102 7741 8176
          11590 12839 16101 14491 10471 8707
          11391 12344 8716 12841 7742 14331
          14427 17891 2241 1812 8054 10784
          7733 9998 9347 11222 9838 12324
          11062 2562 6242 18052 10159 15955
          9999 7213 13788 8867 16115 14585
          10080 2886 6581 8980 9920 6781
          8821 6896 8684 6261 1492 5816
          9795 14107 4483 7561 7587 7894
          6101 6421 5600 2402 6735 6411
          6412 7055 9146 9137 9174 9790
          6089 7555 7377 12663 5500 6302
          7217 6250 9630 9333 5293 11055
          7082 12074 7848 6143 10304 6462
          8008 6600 5659 4360 7697 7718
          10953 8704 8844 11112 10464 10084
          9301 7242 10792 2724 9993 5501
          5445 9994 12393 5604 12988 10307
          5920 13146 4800 4171 6425 5447
          5807 5646 10400 4673 6774 7208
          7382 4823 7222 5480 7209 6276
          3549 5647 7096 6760 7097 3710
          4000 3856 6609 4160 41 42
          6456 5957 6116 3709 10246 4488
          7897 9829 8320 9830 5639 4329
          7091 7251 4327 6437 8480 3680
          5000 4983 4014 1765 4849 2259
          4829 4021 6287 4178 4338 4189
          2085 4179 156 1779 7727 7726
          2740 2575 2416 2580 3058 1939
          193 1943 194 1120 5 803
          1121 1284 317 1617 157 484
          824 2103 2431 155 2272 638
          798 2109 24 2428 507 26
          159
        </DataArray>
        <DataArray type="Int32" Name="CriticalType" format="ascii" RangeMin="0" RangeMax="4">
          0 0 0 0 0 1
          0 1 0 0 0 0
          0 0 0 0 1 0
          0 1 1 1 1 0
          0 1 0 1 0 1
          0 0 0 1 1 0
          1 1 0 1 0 1
          0 0 0 0 0 0
          0 0 1 0 0 0
          0 0 1 1 0 0
          0 1 0 0 1 1
          0 1 0 0 0 0
          0 0 0 1 0 0
          1 1 0 0 0 0
          1 0 1 1 1 0
          0 1 0 0 0 0
          0 1 0 1 0 1
          1 1 0 1 1 0
          0 0 1 1 1 1
          0 0 0 1 1 0
          0 0 1 0 0 0
          1 1 0 1 0 1
          1 1 0 0 0 0
          0 0 1 0 1 0
          0 0 0 0 1 0
          0 0 0 0 0 0
          0 0 1 1 1 0
          0 0 0 0 0 1
          1 1 0 0 0 1
          1 1 1 0 1 0
          0 0 0 1 0 1
          0 0 1 1 1 0
          0 0 0 0 1 0
          0 0 1 0 1 0
          0 0 0 0 0 1
          0 1 1 1 0 0
          0 1 1 0 0 0
          1 1 1 1 0 0
          1 1 1 1 0 0
          1 0 0 0 0 0
          0 0 0 0 1 0
          0 0 1 0 1 1
          1 0 1 1 1 1
          1 1 0 0 0 1
          1 0 1 1 1 1
          1 1 0 1 1 0
          1 0 0 1 0 1
          0 1 0 0 1 1
          0 1 0 1 1 0
          0 1 1 1 1 1
          0 1 1 1 0 0
          1 0 0 0 0 0
          0 1 0 1 1 0
          1 1 0 1 0 0
          1 0 1 0 1 1
          0 0 0 0 0 0
          1 1 1 1 1 0
          0 1 0 0 1 1
          0 1 0 1 1 0
          0 0 0 1 1 1
          1 0 1 0 0 1
          0 1 1 0 0 0
          0 1 1 1 1 0
          0 0 1 1 0 0
          1 1 1 0 1 1
          1 0 1 0 0 0
          0 0 0 0 0 1
          0 0 1 0 1 1
          0 1 0 1 1 1
          0 1 0 1 0 1
          1 1 1 0 0 0
          0 0 1 0 1 0
          0 0 1 0 1 1
          0 0 0 0 1 0
          1 1 0 1 1 1
          1 1 1 1 1 1
          1 0 1 0 0 1
          1 0 1 0 0 0
          0 0 0 1 1 1
          0 1 1 0 1 0
          1 1 0 1 0 1
          0 0 1 0 0 0
          1 0 1 0 1 0
          4 1 1 0 0 0
          0 1 1 0 1 1
          0 0 1 1 0 0
          1 1 0 0 0 1
          1 0 1 0 1 1
          0 1 1 0 1 0
          1 1 0 1 1 1
          1 1 0 1 0 1
          0 1 0 0 0 1
          0 1 0 1 0 1
          0 1 0 1 0 0
          0 0 1 1 1 0
          1 1 0 1 1 1
          0 0 1 0 0 0
          0 0 1 0 1 0
          0 1 0 1 1 0
          0 0 0 0 1 1
          0 1 1 0 0 1
          0 1 1 0 0 0
          0 0 1 1 1 1
          0 0 0 1 1 0
          1 0 0 1 1 0
          0 1 1 0 0 1
          1 1 1 1 0 0
          1 0 0 1 0 1
          1 0 0 0 0 0
          0 0 0 1 0 1
          0 0 0 0 0 0
          1 1 1 0 0 0
          1 0 1 0 0 1
          1 1 1 1 0 0
          1 0 0 1 0 0
          0 0 1 0 1 1
          1 0 0 1 0 1
          0 0 1 1 0 0
          0 1 1 1 1 1
          0 0 0 1 0 1
          1 1 0 0 0 0
          1 0 0 0 1 0
          1 0 0 1 1 0
          0 1 1 1 1 0
          0 1 1 0 0 1
          0 1 1 1 0 0
          1 0 1 0 0 0
          0 0 0 1 0 1
          0 0 1 1 0 0
          0 1 1 0 1 1
          1 0 1 0 1 0
          1 1 1 1 0 0
          1 0 1 0 0 0
          1 0 1 0 1 1
          0 1 0 0 0 0
          1 0 0 0 0 1
          1 0 1 1 0 1
          0 0 1 1 1 0
          1 0 1 0 0 0
          1 0 1 1 0 1
          1 1 0 0 1 1
          1 0 1 1 1 0
          1 0 1 0 1 1
          1 0 1 1 0 1
          1 1 0 0 0 1
          0 0 1 1 1 0
          0 1 0 1 1 1
          0 0 0 0 0 1
          1 0 0 1 1 1
          0 1 1 0 1 1
          0 1 0 0 0 0
          0 0 1 1 1 1
          1 1 1 1 0 1
          1 0 1 0 1 0
          0 0 0 0 0 1
          1 0 0 1 0 1
          1 0 0 0 0 1
          1 1 1 0 1 1
          0 1 1 1 1 1
          1 1 1 0 1 0
          1 0 0 0 1 1
          1 0 1 0 1 1
          0 1 1 1 1 1
          1 1 1 1 1 0
          1 1 1 1 1 1
          0 0 1 1 0 0
          0 0 1 0 1 1
          0 0 1 0 0 1
          1 1 1 0 0 0
          0 1 0 1 0 0
          0 0 0 1 1 1
          1 0 1 1 1 1
          1 1 1 0 1 0
          0 1 0 1 0 1
          0 1 0 0 1 1
          1 1 1 0 1 0
          1 1 0 0 1 1
          1 1 0 1 1 1
          1 1 0 0 1 1
          1 0 1 0 1 1
          1 1 1 1 0 1
          0 1 0 0 1 1
          0 0 1 0 1 0
          1 1 1 0 1 1
          1 1 0 0 1 0
          0 1 1 1 1 1
          0 0 0 1 1 0
          0 1 0 0 1 1
          0 0 1 0 1 1
          0 0 0 0 0 1
          1 0 1 1 0 1
          1 1 1 1 0 1
          0 0 1 0 0 1
          1 1 1 0 1 0
          1 1 1 0 1 0
          0 0 1 1 1 1
          1 1 0 1 0 0
          1 0 0 0 0 1
          0 0 0 1 1 1
          1 1 0 0 0 1
          1 0 1 1 0 0
          1 0 1 1 1 1
          0 0 0 0 0 0
          0 0 1 0 1 1
          1 0 1 1 0 0
          1 0 0 1 1 1
          0 0 0 0 1 0
          1 0 0 0 1 0
          1 1 0 0 1 1
          1 1 0 1 1 0
          1 1 0 1 0 0
          0 1 0 1 0 0
          1 1 1 1 1 1
          0 0 0 1 0 1
          1 0 1 0 1 1
          0 1 1 1 1 0
          1 1 1 1 0 1
          0 1 1 1 0 1
          1 1 1 0 1 1
          0 0 1 0 0 0
          0 0 1 0 1 0
          0 1 0 1 1 0
          0 0 0 1 0 1
          1 0 1 1 1 0
          1 0 0 1 1 1
          0 1 1 1 1 1
          1 1 1 0 1 0
          1 0 1 0 1 1
          1 1 0 0 0 1
          0 0 1 1 1 1
          0 0 1 0 0 0
          1 1 0 1 1 1
          0 1 0 1 1 0
          1 0 0 1 1 1
          3
        </DataArray>
        <DataArray type="Int32" Name="RegionSize" format="ascii" RangeMin="0" RangeMax="356">
          20 19 3 5 0 1
          0 70 13 5 29 5
          0 0 6 0 18 0
          0 7 2 0 2 4
          6 38 1 6 3 5
          2 3 1 8 4 10
          53 30 20 28 23 17
          2 11 9 10 15 15
          1 0 14 1 13 12
          0 1 15 5 3 3
          1 31 0 30 36 60
          3 5 14 0 7 0
          37 7 0 0 0 2
          15 8 5 6 0 62
          2 3 8 48 31 7
          7 46 3 1 5 3
          2 1 0 79 0 3
          19 7 0 17 0 0
          1 0 8 30 9 8
          1 4 1 0 65 6
          1 8 3 0 2 5
          4 15 0 11 0 31
          0 104 1 0 4 5
          7 0 87 0 33 2
          6 1 1 12 21 0
          1 3 2 3 5 1
          0 1 0 30 7 7
          0 1 2 0 0 78
          20 14 5 6 0 11
          10 13 107 8 11 1
          5 1 2 2 0 1
          3 12 12 10 11 13
          0 3 12 0 18 2
          1 4 84 0 3 3
          0 10 2 0 0 5
          0 0 1 32 0 7
          1 2 33 3 10 0
          0 65 13 29 0 4
          6 10 2 177 2 3
          21 1 11 1 4 7
          5 10 1 14 2 2
          4 23 0 1 1 4
          0 8 8 19 25 12
          38 3 28 0 7 4
          2 1 7 16 4 0
          9 77 0 7 1 14
          1 1 6 5 0 17
          4 11 0 1 15 5
          9 32 5 109 56 20
          1 63 11 0 1 9
          0 2 22 9 1 2
          28 3 0 7 1 19
          7 1 0 35 40 11
          1 95 0 0 2 0
          0 6 2 1 7 51
          7 12 1 2 0 6
          0 6 1 4 2 3
          0 35 2 0 5 0
          1 137 8 2 1 0
          9 1 4 31 9 16
          39 7 14 0 12 6
          0 8 43 0 2 2
          4 24 19 58 1 0
          0 6 19 23 0 0
          0 57 5 0 145 19
          3 2 21 0 2 1
          0 20 1 6 11 4
          3 13 9 3 25 11
          10 4 1 44 35 4
          2 29 0 0 2 24
          42 20 36 0 1 18
          0 2 153 0 31 6
          6 8 7 0 2 18
          0 0 3 23 6 0
          53 1 11 44 7 8
          223 9 4 11 3 41
          4 9 21 4 0 75
          29 0 17 3 2 6
          0 1 0 19 21 0
          1 40 8 3 16 0
          22 61 1 7 17 102
          6 0 2 6 7 0
          0 18 58 0 6 4
          20 1 12 6 0 14
          4 4 7 6 58 2
          6 6 12 28 1 13
          113 7 0 11 1 90
          2 7 1 0 15 0
          1 3 356 0 1 13
          3 4 0 17 7 1
          7 50 2 1 1 4
          0 0 0 2 12 1
          3 20 0 5 5 49
          0 4 8 1 11 0
          1 0 0 8 8 0
          19 2 2 4 5 37
          25 29 58 4 6 6
          1 0 5 0 13 0
          1 86 1 50 1 0
          0 1 0 1 16 0
          19 17 45 61 2 27
          28 40 42 22 0 8
          2 1 0 15 70 58
          0 0 9 8 5 1
          112 0 18 0 13 12
          20 18 20 0 3 8
          59 21 1 53 4 14
          143 10 10 3 1 14
          60 1 0 0 3 0
          4 0 2 5 1 32
          3 2 10 4 4 1
          42 50 8 1 8 11
          53 11 26 0 1 3
          8 2 21 75 24 1
          66 13 9 8 0 3
          6 3 6 4 2 13
          69 5 3 22 2 90
          4 9 19 26 0 1
          9 2 5 9 5 49
          0 2 0 142 8 107
          9 8 1 1 1 3
          8 6 8 1 0 0
          1 0 5 7 8 0
          2 80 7 1 68 6
          0 0 5 0 9 7
          7 245 8 9 0 2
          34 14 0 6 6 19
          0 9 4 28 0 1
          4 0 22 9 3 2
          31 17 9 5 14 5
          12 8 40 2 0 4
          38 133 84 27 6 0
          54 1 1 0 7 0
          10 0 26 3 10 18
          0 64 12 0 0 2
          97 8 2 5 0 4
          1 11 7 122 3 0
          3 4 1 0 48 1
          17 2 29 0 14 0
          15 0 98 18 0 134
          2 0 13 10 3 10
          7 5 20 6 41 10
          6 0 19 0 3 10
          3 6 45 119 3 0
          10 18 1 0 3 73
          0 1 0 18 119 6
          1 6 2 1 48 5
          1 2 1 0 0 8
          8 2 5 1 30 0
          0 1 9 1 0 66
          1 18 0 4 0 6
          4 10 16 23 8 2
          6 16 31 8 1 44
          11 0 138 3 128 4
          2 0 11 1 0 10
          12 1 0 17 3 2
          7 4 4 0 1 6
          63 1 14 23 5 68
          2 6 1 13 3 10
          12 7 34 1 52 1
          9 4 3 1 5 11
          80 0 26 1 9 18
          0 1 38 16 10 1
          6 13 9 20 20 12
          5 40 1 164 2 75
          0 6 0 4 2 0
          3 2 26 1 3 53
          1 0 5 3 0 32
          4 7 20 11 0 7
          5 29 0 13 0 1
          6 0 2 45 1 13
          4 7 6 28 22 21
          0 83 23 0 34 1
          1 8 1 54 0 81
          1 7 2 0 0 109
          1 10 40 4 28 1
          31 24 0 2 24 4
          87 4 3 17 5 7
          24 9 16 6 22 0
          3 2 50 2 37 1
          9 7 20 58 0 15
          2 64 0 2 147 1
          2 2 14 0 0 1
          2 30 12 9 66 7
          0 160 0 1 2 1
          0 2 23 27 131 2
          36 2 12 312 16 2
          21 8 0 5 10 324
          4 7 3 0 4 2
          5 0 4 3 0 2
          10 12 76 72 0 15
          35 34 7 83 1 19
          0 0 159 1 1 2
          16 14 3 0 74 7
          3 21 169 2 6 0
          1 3 4 19 7 21
          64 142 1 73 3 0
          29 1 2 1 0 125
          1 0 1 3 2 22
          38 67 0 0 0 33
          13 2 9 16 17 1
          47 7 11 17 15 212
          2 1 3 6 1 4
          3 0 3 0 8 102
          25 3 26 38 0 0
          95 5 5 27 18 192
          0 6 2 1 8 8
          7 1 1 0 51 9
          4 56 13 13 176 36
          0 3 10 10 2 0
          2 28 9 149 0 2
          1 22 0 207 3 1
          3 8 30 8 28 144
          0 2 0 20 1 13
          87 3 10 16 21 15
          0 13 39 124 2 14
          18 17 78 33 1 21
          0 7 57 0 1 61
          4 87 5 4 44 92
          0 1 130 23 4 1
          1 2 41 3 114 0
          0 20 0 22 134 0
          0 5 9 36 0 2
          90 0 2 21 20 2
          28 0 1 134 7 2
          0 7 26 27 39 39
          76 35 118 2 87 8
          86 3 46 0 16 29
          20 103 0 2 0 76
          3 0 2 0 90 46
          1 1 137 1 7 3
          9 74 0 37 0 104
          10 44 2 8 47 0
          74 1 2 2 49 246
          246
        </DataArray>
        <DataArray type="Int32" Name="RegionSpan" format="ascii" RangeMin="1" RangeMax="160">
          3 5 2 1 1 2
          1 6 3 2 4 2
          1 1 2 1 7 1
          1 1 3 3 6 2
          3 7 2 5 2 8
          2 2 1 8 5 2
          3 12 4 4 2 4
          2 3 2 2 4 5
          1 1 10 1 3 3
          1 2 3 1 1 1
          1 5 1 7 17 20
          1 4 3 1 3 1
          5 2 1 10 1 2
          3 8 3 3 1 5
          1 2 4 2 7 1
          2 4 2 1 2 1
          1 7 1 5 1 2
          5 1 1 2 1 1
          2 1 7 7 3 2
          1 2 1 3 7 2
          1 3 2 1 2 2
          16 24 1 3 1 7
          5 18 1 1 2 2
          4 1 11 1 8 2
          4 1 1 2 8 1
          1 2 1 1 2 1
          1 1 2 6 3 1
          1 1 1 1 1 4
          9 4 1 2 1 12
          31 12 28 3 8 1
          1 2 2 2 1 2
          2 3 3 4 3 3
          1 3 3 1 4 2
          1 1 34 1 6 2
          1 3 2 1 1 2
          1 2 5 5 1 2
          1 3 4 2 2 1
          7 7 4 5 1 1
          4 4 2 52 2 1
          5 1 3 1 3 2
          3 4 1 2 3 1
          2 3 1 1 2 3
          5 3 3 5 5 3
          9 3 4 1 4 3
          14 1 5 13 6 8
          5 55 1 12 7 3
          1 1 2 6 1 12
          2 5 1 1 16 2
          2 5 4 38 21 5
          1 22 3 2 5 4
          1 2 7 6 1 1
          4 2 1 2 1 4
          1 2 1 14 5 2
          9 60 1 1 1 1
          1 1 4 1 3 30
          2 3 1 1 1 1
          11 7 12 18 2 2
          1 13 1 1 2 1
          1 6 2 13 12 1
          2 1 3 13 8 2
          17 2 6 1 3 12
          1 34 26 1 1 1
          3 14 7 18 2 1
          1 2 3 5 1 1
          2 29 2 1 30 3
          7 1 26 1 2 1
          1 3 1 1 3 1
          1 3 22 2 32 12
          3 3 1 8 48 1
          1 49 1 1 1 37
          31 42 57 1 1 4
          1 2 75 1 4 2
          3 1 2 1 1 26
          1 1 1 4 96 1
          44 8 2 36 7 3
          46 1 3 5 2 12
          37 2 12 2 1 7
          3 1 3 3 1 2
          1 1 1 34 42 8
          1 3 27 2 45 1
          12 43 1 3 3 37
          1 1 5 2 2 1
          1 5 5 1 33 2
          19 1 4 2 1 2
          1 5 41 2 45 1
          3 2 7 17 1 4
          48 5 1 4 1 45
          4 2 57 1 35 2
          2 91 16 1 1 3
          2 14 1 17 8 5
          7 50 1 15 1 2
          1 5 1 1 2 1
          2 23 1 16 2 13
          1 3 3 3 2 1
          1 1 1 52 9 1
          59 7 2 28 13 25
          5 4 13 2 1 2
          1 1 2 1 5 1
          1 35 2 40 2 1
          1 2 1 1 1 2
          3 56 7 5 2 12
          5 74 70 2 1 3
          1 1 21 58 23 6
          1 1 2 79 38 1
          29 1 4 2 65 4
          4 50 68 1 2 9
          117 13 7 66 2 4
          63 3 4 3 1 22
          25 1 1 1 1 1
          2 1 2 2 1 24
          1 1 3 3 2 1
          20 11 3 1 2 2
          46 4 65 1 1 2
          4 35 35 33 5 1
          20 2 3 4 1 1
          4 2 5 2 2 24
          23 2 1 43 2 14
          2 3 9 29 1 2
          2 1 6 28 4 68
          1 1 1 4 3 18
          4 3 1 1 2 1
          3 3 4 1 2 1
          2 1 1 6 53 1
          1 53 55 2 5 2
          1 2 4 1 3 8
          3 9 3 6 1 2
          24 2 1 1 1 5
          1 3 2 64 1 3
          2 1 70 8 1 2
          3 15 4 4 37 40
          54 2 24 2 27 2
          27 45 16 14 2 1
          10 1 1 1 3 1
          7 1 14 1 3 49
          1 34 3 1 1 1
          42 3 2 3 1 2
          4 1 7 7 2 2
          3 2 3 4 3 1
          5 2 39 1 2 1
          3 1 8 8 1 51
          4 3 2 4 7 12
          17 2 81 17 84 3
          2 1 2 1 2 44
          4 3 11 50 2 89
          70 10 1 1 1 35
          1 1 8 5 46 1
          2 66 2 7 41 2
          1 1 1 1 1 12
          6 1 2 10 27 3
          1 4 3 1 5 42
          1 110 1 2 1 2
          2 3 5 99 6 3
          3 5 15 3 1 36
          17 1 77 1 45 2
          2 1 2 1 1 4
          3 1 1 7 2 2
          3 2 2 1 1 2
          14 3 120 4 6 98
          1 2 17 3 46 83
          92 4 103 1 53 2
          13 2 2 1 12 6
          127 1 51 1 3 29
          1 4 27 13 7 1
          2 36 26 42 26 2
          5 32 4 108 5 4
          1 2 5 2 2 1
          3 1 91 1 4 82
          1 1 6 2 1 71
          4 10 4 2 1 3
          2 54 1 11 1 1
          2 1 2 5 11 3
          1 3 107 3 121 8
          2 6 65 1 2 2
          1 3 2 42 1 24
          1 3 2 1 5 120
          3 17 46 2 65 1
          117 6 1 1 4 5
          109 3 3 60 2 103
          120 101 4 2 69 32
          61 1 33 3 99 2
          117 102 24 29 1 107
          1 61 1 2 81 4
          1 2 5 1 2 1
          109 89 38 4 68 7
          2 100 1 2 3 1
          1 2 48 6 8 3
          7 3 2 31 8 1
          6 13 1 2 5 85
          3 2 5 1 10 5
          1 1 2 1 1 2
          2 2 69 26 1 2
          5 6 45 40 2 11
          1 1 51 1 2 5
          37 8 82 1 46 4
          91 86 160 2 19 1
          2 2 117 19 3 22
          21 59 2 36 2 1
          67 1 2 1 1 23
          2 1 1 1 17 4
          27 23 1 1 1 6
          41 2 14 62 2 1
          48 2 43 50 5 30
          2 1 1 2 1 2
          1 1 3 1 75 132
          7 1 4 72 1 1
          52 2 2 3 90 86
          1 2 1 1 3 2
          15 1 1 1 54 3
          28 57 3 3 50 3
          2 6 2 2 3 1
          5 2 5 20 1 1
          1 34 1 20 1 1
          9 6 23 39 15 57
          1 2 1 2 1 54
          9 1 2 4 21 26
          1 20 31 52 3 2
          24 37 34 7 1 30
          1 15 14 4 2 44
          7 42 8 2 18 31
          1 1 29 4 2 1
          1 1 13 1 31 1
          1 5 1 17 59 1
          1 2 2 49 1 42
          55 1 4 3 53 1
          17 1 1 24 5 2
          1 47 32 39 30 40
          17 10 35 2 20 3
          20 2 31 1 11 27
          19 34 1 1 1 40
          1 1 4 3 7 18
          1 1 30 1 3 2
          3 13 1 14 2 21
          3 132 1 123 126 1
          130 2 2 12 3 133
          133
        </DataArray>
      </PointData>
      <CellData>
      </CellData>
      <Points>
        <DataArray type="Float32" Name="Points" NumberOfComponents="3" format="ascii" RangeMin="5" RangeMax="221.35265979879256">
          150 152 0 147 138 0
          159 154 0 157 82 0
          155 81 0 156 81 0
          154 80 0 154 81 0
          154 157 0 123 133 0
          124 119 0 148 157 0
          155 146 0 154 145 0
          143 144 0 154 153 0
          155 145 0 141 150 0
          140 149 0 153 153 0
          140 150 0 157 155 0
          154 154 0 149 141 0
          109 22 0 148 155 0
          138 139 0 144 142 0
          110 17 0 140 139 0
          159 145 0 110 12 0
          125 136 0 141 147 0
          110 19 0 102 139 0
          148 148 0 110 14 0
          134 135 0 147 141 0
          112 144 0 124 135 0
          127 124 0 75 159 0
          85 93 0 104 113 0
          108 43 0 108 124 0
          145 27 0 146 28 0
          147 145 0 148 40 0
          152 72 0 152 32 0
          147 39 0 130 120 0
          145 28 0 128 122 0
          138 22 0 136 21 0
          107 27 0 148 39 0
          158 50 0 107 2 0
          108 26 0 157 145 0
          135 125 0 137 22 0
          155 43 0 68 145 0
          88 151 0 159 51 0
          101 158 0 124 157 0
          148 31 0 147 31 0
          70 144 0 143 30 0
          159 50 0 141 23 0
          143 35 0 121 142 0
          145 31 0 132 10 0
          146 30 0 117 116 0
          145 29 0 149 31 0
          127 122 0 109 116 0
          113 123 0 152 75 0
          113 112 0 112 8 0
          115 5 0 155 29 0
          129 157 0 153 40 0
          136 149 0 137 149 0
          147 35 0 148 35 0
          69 144 0 112 9 0
          154 28 0 146 35 0
          155 28 0 129 159 0
          138 126 0 153 27 0
          122 139 0 148 33 0
          129 158 0 111 8 0
          148 25 0 103 143 0
          152 26 0 154 27 0
          113 6 0 143 134 0
          53 150 0 82 159 0
          155 30 0 158 31 0
          159 141 0 84 154 0
          157 31 0 157 47 0
          82 104 0 136 126 0
          83 102 0 83 103 0
          147 25 0 152 27 0
          118 132 0 122 116 0
          77 152 0 119 155 0
          107 35 0 147 75 0
          148 74 0 102 126 0
          119 132 0 101 103 0
          63 159 0 54 151 0
          144 131 0 64 152 0
          103 126 0 116 119 0
          121 5 0 91 135 0
          92 147 0 85 140 0
          97 103 0 102 149 0
          123 6 0 117 114 0
          122 6 0 120 5 0
          117 118 0 78 133 0
          80 112 0 128 134 0
          55 153 0 134 25 0
          134 144 0 135 144 0
          134 24 0 85 152 0
          51 145 0 106 118 0
          109 47 0 134 15 0
          126 6 0 122 117 0
          107 31 0 80 148 0
          108 47 0 79 111 0
          102 108 0 93 149 0
          121 9 0 53 151 0
          85 96 0 79 112 0
          129 144 0 72 155 0
          85 95 0 93 147 0
          126 157 0 74 146 0
          144 81 0 83 144 0
          159 62 0 143 80 0
          143 81 0 138 122 0
          140 136 0 98 143 0
          123 8 0 114 113 0
          127 135 0 103 44 0
          104 110 0 96 116 0
          119 125 0 100 151 0
          110 112 0 104 111 0
          128 141 0 111 112 0
          144 132 0 125 129 0
          129 153 0 51 137 0
          130 138 0 113 113 0
          107 39 0 107 52 0
          143 69 0 125 152 0
          128 154 0 105 43 0
          101 150 0 83 156 0
          77 110 0 100 117 0
          121 155 0 141 136 0
          77 111 0 107 50 0
          55 143 0 55 156 0
          111 124 0 96 30 0
          77 139 0 96 28 0
          44 131 0 110 139 0
          60 143 0 92 158 0
          125 64 0 69 133 0
          131 144 0 108 159 0
          128 66 0 156 101 0
          131 138 0 53 142 0
          116 113 0 108 117 0
          128 142 0 98 35 0
          55 152 0 125 153 0
          132 138 0 96 29 0
          121 125 0 75 153 0
          76 86 0 149 85 0
          100 53 0 102 141 0
          150 85 0 94 134 0
          73 156 0 145 71 0
          103 109 0 117 115 0
          85 141 0 159 59 0
          68 151 0 79 109 0
          107 120 0 103 61 0
          53 143 0 95 152 0
          118 16 0 136 123 0
          69 152 0 109 113 0
          142 63 0 126 65 0
          147 84 0 54 134 0
          137 136 0 148 84 0
          69 129 0 97 32 0
          111 106 0 104 52 0
          146 84 0 1 151 0
          101 122 0 130 125 0
          93 135 0 68 152 0
          52 144 0 70 152 0
          129 71 0 99 114 0
          99 142 0 94 151 0
          115 23 0 106 106 0
          99 116 0 39 144 0
          115 21 0 45 159 0
          132 74 0 147 104 0
          58 149 0 115 22 0
          130 72 0 101 123 0
          84 98 0 40 156 0
          120 17 0 114 24 0
          131 73 0 132 73 0
          89 99 0 44 135 0
          130 71 0 59 132 0
          57 143 0 61 145 0
          131 72 0 130 151 0
          138 66 0 61 128 0
          47 145 0 107 157 0
          68 159 0 105 133 0
          66 151 0 55 155 0
          77 150 0 69 159 0
          44 134 0 108 56 0
          144 65 0 158 66 0
          136 76 0 115 141 0
          99 103 0 144 64 0
          44 137 0 145 65 0
          63 124 0 61 144 0
          81 145 0 48 150 0
          49 129 0 90 132 0
          49 158 0 78 157 0
          129 69 0 107 158 0
          48 144 0 28 155 0
          53 135 0 114 63 0
          109 75 0 112 138 0
          91 13 0 139 68 0
          107 54 0 113 62 0
          64 120 0 122 29 0
          113 57 0 115 126 0
          49 150 0 101 28 0
          114 142 0 105 145 0
          92 14 0 117 70 0
          135 75 0 44 136 0
          58 159 0 120 28 0
          121 28 0 159 143 0
          114 62 0 12 158 0
          119 28 0 91 14 0
          59 159 0 115 68 0
          116 140 0 40 146 0
          13 155 0 134 82 0
          133 81 0 69 85 0
          78 98 0 81 89 0
          159 109 0 39 146 0
          152 19 0 38 133 0
          88 148 0 132 35 0
          110 57 0 103 117 0
          26 147 0 134 81 0
          159 96 0 79 97 0
          134 35 0 107 107 0
          128 34 0 137 83 0
          106 146 0 106 145 0
          94 102 0 101 105 0
          66 149 0 129 34 0
          138 76 0 89 128 0
          75 142 0 35 116 0
          80 130 0 102 16 0
          151 20 0 90 101 0
          106 142 0 57 124 0
          37 140 0 24 135 0
          90 133 0 89 130 0
          90 100 0 107 146 0
          71 117 0 79 129 0
          60 138 0 85 119 0
          159 95 0 39 148 0
          104 16 0 52 157 0
          119 80 0 131 134 0
          116 68 0 80 129 0
          113 60 0 74 141 0
          57 150 0 39 147 0
          89 129 0 106 107 0
          97 151 0 20 145 0
          60 150 0 97 15 0
          66 157 0 112 74 0
          94 103 0 71 115 0
          71 116 0 121 56 0
          124 60 0 120 59 0
          77 127 0 27 158 0
          83 127 0 91 101 0
          99 16 0 72 149 0
          76 126 0 89 131 0
          65 144 0 114 54 0
          104 58 0 126 59 0
          88 159 0 94 14 0
          95 23 0 125 59 0
          48 120 0 105 132 0
          0 157 0 84 128 0
          59 131 0 4 147 0
          150 94 0 117 55 0
          118 55 0 29 131 0
          112 54 0 38 137 0
          99 153 0 17 157 0
          66 158 0 83 128 0
          13 157 0 53 124 0
          94 20 0 65 113 0
          43 142 0 117 54 0
          118 59 0 61 117 0
          95 24 0 76 127 0
          78 119 0 28 126 0
          70 131 0 47 158 0
          41 159 0 69 96 0
          122 60 0 62 126 0
          93 19 0 100 68 0
          39 152 0 87 99 0
          79 132 0 96 130 0
          50 141 0 40 153 0
          105 157 0 93 20 0
          85 130 0 95 20 0
          152 92 0 44 150 0
          39 154 0 152 120 0
          39 137 0 73 142 0
          83 114 0 59 139 0
          36 143 0 39 153 0
          37 136 0 45 150 0
          6 159 0 65 121 0
          71 138 0 40 158 0
          34 154 0 77 128 0
          81 115 0 135 87 0
          18 128 0 82 114 0
          0 129 0 95 144 0
          60 122 0 72 138 0
          115 41 0 56 134 0
          45 143 0 82 128 0
          14 142 0 42 141 0
          3 103 0 91 114 0
          145 99 0 41 150 0
          45 142 0 46 143 0
          90 115 0 33 153 0
          81 114 0 40 150 0
          71 109 0 42 159 0
          47 131 0 40 143 0
          122 87 0 59 105 0
          64 136 0 11 148 0
          22 158 0 17 150 0
          36 159 0 144 98 0
          145 98 0 37 151 0
          28 157 0 137 86 0
          94 110 0 60 123 0
          35 155 0 137 85 0
          34 153 0 33 146 0
          118 51 0 29 141 0
          117 50 0 32 151 0
          85 128 0 118 50 0
          52 88 0 116 50 0
          38 151 0 68 20 0
          93 46 0 147 97 0
          88 64 0 159 99 0
          34 145 0 22 121 0
          140 89 0 42 108 0
          156 112 0 0 132 0
          113 41 0 93 48 0
          95 110 0 136 87 0
          142 88 0 143 47 0
          87 60 0 82 90 0
          37 155 0 93 44 0
          59 123 0 7 154 0
          36 57 0 142 87 0
          141 89 0 86 48 0
          59 71 0 93 45 0
          143 48 0 86 8 0
          68 107 0 86 129 0
          87 8 0 118 78 0
          81 119 0 88 117 0
          107 68 0 87 2 0
          151 106 0 23 126 0
          31 109 0 33 151 0
          66 116 0 95 132 0
          37 159 0 65 106 0
          59 113 0 11 152 0
          121 75 0 6 156 0
          54 74 0 25 151 0
          113 159 0 26 150 0
          89 40 0 33 134 0
          33 158 0 32 139 0
          142 55 0 125 53 0
          87 81 0 59 111 0
          55 124 0 103 65 0
          7 155 0 84 55 0
          65 76 0 28 99 0
          75 121 0 124 95 0
          114 65 0 24 133 0
          150 111 0 31 140 0
          66 107 0 91 4 0
          89 39 0 29 128 0
          6 134 0 9 145 0
          109 68 0 37 99 0
          36 106 0 60 112 0
          20 148 0 110 88 0
          136 56 0 0 94 0
          157 112 0 25 140 0
          20 147 0 122 52 0
          120 76 0 0 143 0
          22 153 0 61 119 0
          30 121 0 35 154 0
          149 114 0 5 143 0
          72 84 0 132 56 0
          106 72 0 26 122 0
          44 112 0 67 115 0
          11 153 0 107 72 0
          0 131 0 90 49 0
          140 95 0 116 107 0
          28 139 0 33 140 0
          124 82 0 140 96 0
          24 134 0 19 149 0
          22 155 0 74 107 0
          45 117 0 0 137 0
          9 146 0 56 0 0
          63 85 0 90 95 0
          27 139 0 2 140 0
          150 112 0 82 132 0
          63 73 0 68 115 0
          155 107 0 154 110 0
          10 123 0 29 139 0
          139 56 0 73 108 0
          150 110 0 50 98 0
          35 121 0 22 154 0
          6 158 0 59 116 0
          17 116 0 47 117 0
          53 119 0 155 109 0
          35 120 0 15 158 0
          128 97 0 50 114 0
          82 131 0 12 134 0
          25 152 0 108 86 0
          27 93 0 1 81 0
          6 149 0 46 103 0
          129 105 0 75 108 0
          1 139 0 24 152 0
          95 95 0 87 110 0
          34 158 0 22 149 0
          20 131 0 88 44 0
          40 66 0 86 110 0
          5 149 0 49 1 0
          89 95 0 59 117 0
          24 138 0 24 97 0
          70 108 0 63 98 0
          81 86 0 127 100 0
          66 109 0 150 117 0
          44 125 0 21 157 0
          53 105 0 35 124 0
          53 0 0 68 81 0
          28 122 0 9 125 0
          43 94 0 19 136 0
          9 155 0 153 125 0
          28 123 0 21 113 0
          9 124 0 121 82 0
          37 123 0 20 135 0
          15 109 0 12 141 0
          129 93 0 17 141 0
          90 44 0 8 77 0
          77 3 0 97 84 0
          51 76 0 36 124 0
          12 145 0 87 71 0
          128 93 0 49 116 0
          153 128 0 1 140 0
          75 0 0 72 101 0
          1 138 0 0 156 0
          79 3 0 136 50 0
          128 98 0 0 126 0
          78 0 0 72 25 0
          122 44 0 135 48 0
          135 49 0 83 54 0
          72 24 0 65 97 0
          84 39 0 85 39 0
          13 141 0 83 55 0
          13 97 0 24 105 0
          0 135 0 53 122 0
          17 143 0 95 73 0
          43 114 0 3 159 0
          111 159 0 5 85 0
          63 74 0 84 83 0
          34 123 0 55 113 0
          56 113 0 41 111 0
          52 76 0 26 115 0
          31 154 0 136 46 0
          11 119 0 20 156 0
          69 81 0 21 132 0
          98 79 0 64 61 0
          47 91 0 24 122 0
          25 130 0 93 70 0
          20 114 0 13 118 0
          86 55 0 1 97 0
          57 88 0 1 149 0
          92 68 0 121 92 0
          58 115 0 153 126 0
          6 128 0 0 111 0
          106 102 0 17 125 0
          56 79 0 0 128 0
          19 130 0 106 92 0
          5 106 0 18 124 0
          26 130 0 92 70 0
          7 151 0 92 67 0
          26 98 0 9 106 0
          56 74 0 122 85 0
          104 93 0 7 150 0
          56 77 0 102 83 0
          12 86 0 19 86 0
          11 113 0 3 115 0
          61 73 0 107 103 0
          29 113 0 94 71 0
          85 83 0 48 100 0
          16 142 0 56 78 0
          9 140 0 120 43 0
          24 129 0 10 87 0
          10 140 0 81 29 0
          97 71 0 7 116 0
          11 100 0 155 130 0
          140 110 0 81 56 0
          97 78 0 100 84 0
          109 87 0 20 103 0
          64 59 0 128 103 0
          23 116 0 11 87 0
          98 78 0 9 73 0
          15 84 0 78 29 0
          45 60 0 64 60 0
          73 95 0 82 28 0
          79 29 0 31 50 0
          59 87 0 153 124 0
          19 89 0 4 140 0
          82 84 0 46 92 0
          74 100 0 33 121 0
          115 108 0 7 129 0
          82 56 0 55 66 0
          23 118 0 28 103 0
          9 121 0 53 95 0
          34 103 0 8 108 0
          33 108 0 20 104 0
          155 129 0 66 4 0
          65 85 0 8 90 0
          105 93 0 24 116 0
          65 3 0 2 141 0
          6 139 0 56 75 0
          28 101 0 8 107 0
          65 4 0 80 26 0
          86 62 0 21 116 0
          104 82 0 11 80 0
          13 85 0 61 101 0
          3 105 0 127 96 0
          1 112 0 93 96 0
          54 65 0 55 98 0
          10 132 0 55 65 0
          66 9 0 92 92 0
          81 35 0 112 91 0
          91 92 0 71 15 0
          5 116 0 11 137 0
          8 112 0 8 101 0
          63 3 0 6 70 0
          69 9 0 69 79 0
          19 88 0 9 89 0
          68 9 0 16 37 0
          40 57 0 72 36 0
          40 86 0 9 117 0
          153 133 0 69 4 0
          73 12 0 94 76 0
          37 91 0 53 92 0
          70 13 0 70 15 0
          26 94 0 7 106 0
          9 113 0 18 75 0
          55 88 0 26 105 0
          152 134 0 40 56 0
          72 13 0 34 105 0
          74 12 0 47 59 0
          93 75 0 81 68 0
          3 69 0 9 101 0
          51 64 0 95 76 0
          36 111 0 37 111 0
          26 109 0 111 90 0
          79 43 0 50 66 0
          53 64 0 84 35 0
          53 93 0 49 90 0
          55 106 0 76 47 0
          9 114 0 0 91 0
          56 68 0 18 84 0
          3 109 0 157 134 0
          4 69 0 52 96 0
          155 132 0 46 59 0
          1 118 0 54 91 0
          25 108 0 114 91 0
          13 112 0 72 7 0
          39 73 0 17 100 0
          35 101 0 78 47 0
          51 65 0 12 74 0
          107 90 0 12 70 0
          83 67 0 4 108 0
          157 133 0 81 43 0
          3 110 0 27 109 0
          102 90 0 0 121 0
          36 88 0 103 90 0
          82 70 0 31 106 0
          75 35 0 0 96 0
          140 118 0 15 90 0
          11 98 0 44 64 0
          11 75 0 76 80 0
          32 104 0 141 117 0
          54 96 0 23 52 0
          82 69 0 0 92 0
          36 89 0 138 109 0
          45 65 0 67 36 0
          44 65 0 61 83 0
          64 92 0 11 73 0
          69 36 0 38 87 0
          61 84 0 44 62 0
          12 5 0 20 34 0
          81 79 0 65 91 0
          9 71 0 46 74 0
          31 39 0 17 90 0
          5 93 0 14 51 0
          43 65 0 88 70 0
          19 51 0 64 50 0
          4 88 0 6 82 0
          6 93 0 27 50 0
          51 60 0 50 71 0
          119 103 0 159 123 0
          48 72 0 49 72 0
          6 83 0 11 32 0
          9 103 0 75 81 0
          7 80 0 6 81 0
          17 35 0 39 69 0
          51 71 0 15 98 0
          116 102 0 22 51 0
          74 59 0 20 68 0
          47 73 0 159 128 0
          66 57 0 7 79 0
          2 99 0 11 82 0
          39 93 0 100 98 0
          121 102 0 38 44 0
          159 129 0 83 78 0
          158 122 0 13 62 0
          15 75 0 90 79 0
          96 99 0 14 58 0
          1 88 0 118 102 0
          64 58 0 99 99 0
          89 79 0 98 99 0
          0 40 0 44 73 0
          2 60 0 92 89 0
          8 70 0 71 72 0
          30 73 0 76 53 0
          68 58 0 75 59 0
          75 51 0 21 69 0
          3 38 0 21 68 0
          33 52 0 14 60 0
          52 61 0 77 50 0
          91 88 0 102 100 0
          61 48 0 16 51 0
          70 72 0 39 80 0
          101 100 0 91 90 0
          71 65 0 67 54 0
          31 71 0 24 77 0
          76 54 0 41 80 0
          62 48 0 91 89 0
          27 90 0 131 111 0
          1 14 0 52 11 0
          54 50 0 64 67 0
          53 48 0 78 62 0
          67 58 0 22 70 0
          78 61 0 4 77 0
          22 69 0 2 16 0
          2 39 0 132 112 0
          79 63 0 115 99 0
          79 62 0 13 45 0
          28 86 0 67 55 0
          115 100 0 25 91 0
          0 63 0 6 18 0
          21 41 0 20 56 0
          0 62 0 61 42 0
          21 55 0 16 43 0
          44 54 0 21 39 0
          52 9 0 56 36 0
          35 61 0 27 88 0
          3 28 0 41 47 0
          67 47 0 54 49 0
          21 38 0 21 40 0
          0 35 0 2 15 0
          15 42 0 11 40 0
          12 40 0 15 44 0
          26 57 0 17 57 0
          54 57 0 30 61 0
          9 38 0 35 47 0
          17 46 0 23 79 0
          60 34 0 62 39 0
          17 45 0 10 39 0
          30 60 0 53 58 0
          13 33 0 15 69 0
          42 44 0 74 75 0
          8 49 0 63 38 0
          64 64 0 62 40 0
          8 50 0 40 41 0
          59 35 0 40 27 0
          17 48 0 38 48 0
          73 68 0 64 54 0
          44 55 0 72 69 0
          64 65 0 4 63 0
          21 58 0 42 45 0
          72 67 0 4 17 0
          73 62 0 61 34 0
          5 34 0 74 62 0
          73 77 0 4 35 0
          28 81 0 67 64 0
          0 37 0 26 82 0
          0 30 0 11 26 0
          25 40 0 7 34 0
          47 36 0 46 35 0
          0 65 0 33 29 0
          54 42 0 8 45 0
          22 46 0 23 30 0
          22 45 0 40 34 0
          9 45 0 36 39 0
          29 22 0 47 35 0
          56 44 0 40 42 0
          57 44 0 30 23 0
          0 25 0 16 24 0
          49 41 0 0 26 0
          41 0 0 42 0 0
          56 40 0 37 37 0
          36 38 0 29 23 0
          6 64 0 8 28 0
          57 49 0 69 61 0
          0 52 0 70 61 0
          39 35 0 9 27 0
          51 44 0 51 45 0
          7 27 0 37 40 0
          0 53 0 0 23 0
          40 31 0 23 31 0
          14 25 0 5 11 0
          49 30 0 19 14 0
          29 30 0 21 25 0
          47 39 0 18 26 0
          18 27 0 29 26 0
          5 13 0 19 26 0
          156 0 0 19 11 0
          47 48 0 46 48 0
          20 17 0 15 16 0
          16 15 0 20 16 0
          18 19 0 19 12 0
          33 1 0 23 12 0
          34 1 0 0 7 0
          5 0 0 3 5 0
          1 7 0 4 8 0
          157 1 0 17 10 0
          157 0 0 4 3 0
          24 5 0 23 13 0
          31 15 0 155 0 0
          32 14 0 158 3 0
          158 4 0 29 13 0
          24 0 0 28 15 0
          27 3 0 26 0 0
          159 0 0
          <InformationKey name="L2_NORM_RANGE" location="vtkDataArray" length="2">
            <Value index="0">
              5
            </Value>
            <Value index="1">
              221.3526598
            </Value>
          </InformationKey>
        </DataArray>
      </Points>
      <Cells>
        <DataArray type="Int64" Name="connectivity" format="ascii" RangeMin="0" RangeMax="1404">
          0 1 2 3 4 5
          6 7 8 9 10 11
          12 13 14 15 16 17
          18 19 20 21 22 23
          24 25 26 27 28 29
          30 31 32 33 34 35
          36 37 38 39 40 41
          42 43 44 45 46 47
          48 49 50 51 52 53
          54 55 56 57 58 59
          60 61 62 63 64 65
          66 67 68 69 70 71
          72 73 74 75 76 77
          78 79 80 81 82 83
          84 85 86 87 88 89
          90 91 92 93 94 95
          96 97 98 99 100 101
          102 103 104 105 106 107
          108 109 110 111 112 113
          114 115 116 117 118 119
          120 121 122 123 124 125
          126 127 128 129 130 131
          132 133 134 135 136 137
          138 139 140 141 142 143
          144 145 146 147 148 149
          150 151 152 153 154 155
          156 157 158 159 160 161
          162 163 164 165 166 167
          168 169 170 171 172 173
          174 175 176 177 178 179
          180 181 182 183 184 185
          186 187 188 189 190 191
          192 193 194 195 196 197
          198 199 200 201 202 203
          204 205 206 207 208 209
          210 211 212 213 214 215
          216 217 218 219 220 221
          222 223 224 225 226 227
          228 229 230 231 232 233
          234 235 236 237 238 239
          240 241 242 243 244 245
          246 247 248 249 250 251
          252 253 254 255 256 257
          258 259 260 261 262 263
          264 265 266 267 268 269
          270 271 272 273 274 275
          276 277 278 279 280 281
          282 283 284 285 286 287
          288 289 290 291 292 293
          294 295 296 297 298 299
          300 301 302 303 304 305
          306 307 308 309 310 311
          312 313 314 315 316 317
          318 319 320 321 322 323
          324 325 326 327 328 329
          330 331 332 333 334 335
          336 337 338 339 340 341
          342 343 344 345 346 347
          348 349 350 351 352 353
          354 355 356 357 358 359
          360 361 362 363 364 365
          366 367 368 369 370 371
          372 373 374 375 376 377
          378 379 380 381 382 383
          384 385 386 387 388 389
          390 391 392 393 394 395
          396 397 398 399 400 401
          402 403 404 405 406 407
          408 409 410 411 412 413
          414 415 416 417 418 419
          420 421 422 423 424 425
          426 427 428 429 430 431
          432 433 434 435 436 437
          438 439 440 441 442 443
          444 445 446 447 448 449
          450 451 452 453 454 455
          456 457 458 459 460 461
          462 463 464 465 466 467
          468 469 470 471 472 473
          474 475 476 477 478 479
          480 481 482 483 484 485
          486 487 488 489 490 491
          492 493 494 495 496 497
          498 499 500 501 502 503
          504 505 506 507 508 509
          510 511 512 513 514 515
          516 517 518 519 520 521
          522 523 524 525 526 527
          528 529 530 531 532 533
          534 535 536 537 538 539
          540 541 542 543 544 545
          546 547 548 549 550 551
          552 553 554 555 556 557
          558 559 560 561 562 563
          564 565 566 567 568 569
          570 571 572 573 574 575
          576 577 578 579 580 581
          582 583 584 585 586 587
          588 589 590 591 592 593
          594 595 596 597 598 599
          600 601 602 603 604 605
          606 607 608 609 610 611
          612 613 614 615 616 617
          618 619 620 621 622 623
          624 625 626 627 628 629
          630 631 632 633 634 635
          636 637 638 639 640 641
          642 643 644 645 646 647
          648 649 650 651 652 653
          654 655 656 657 658 659
          660 661 662 663 664 665
          666 667 668 669 670 671
          672 673 674 675 676 677
          678 679 680 681 682 683
          684 685 686 687 688 689
          690 691 692 693 694 695
          696 697 698 699 700 701
          702 703 704 705 706 707
          708 709 710 711 712 713
          714 715 716 717 718 719
          720 721 722 723 724 725
          726 727 728 729 730 731
          732 733 734 735 736 737
          738 739 740 741 742 743
          744 745 746 747 748 749
          750 751 752 753 754 755
          756 757 758 759 760 761
          762 763 764 765 766 767
          768 769 770 771 772 773
          774 775 776 777 778 779
          780 781 782 783 784 785
          786 787 788 789 790 791
          792 793 794 795 796 797
          798 799 800 801 802 803
          804 805 806 807 808 809
          810 811 812 813 814 815
          816 817 818 819 820 821
          822 823 824 825 826 827
          828 829 830 831 832 833
          834 835 836 837 838 839
          840 841 842 843 844 845
          846 847 848 849 850 851
          852 853 854 855 856 857
          858 859 860 861 862 863
          864 865 866 867 868 869
          870 871 872 873 874 875
          876 877 878 879 880 881
          882 883 884 885 886 887
          888 889 890 891 892 893
          894 895 896 897 898 899
          900 901 902 903 904 905
          906 907 908 909 910 911
          912 913 914 915 916 917
          918 919 920 921 922 923
          924 925 926 927 928 929
          930 931 932 933 934 935
          936 937 938 939 940 941
          942 943 944 945 946 947
          948 949 950 951 952 953
          954 955 956 957 958 959
          960 961 962 963 964 965
          966 967 968 969 970 971
          972 973 974 975 976 977
          978 979 980 981 982 983
          984 985 986 987 988 989
          990 991 992 993 994 995
          996 997 998 999 1000 1001
          1002 1003 1004 1005 1006 1007
          1008 1009 1010 1011 1012 1013
          1014 1015 1016 1017 1018 1019
          1020 1021 1022 1023 1024 1025
          1026 1027 1028 1029 1030 1031
          1032 1033 1034 1035 1036 1037
          1038 1039 1040 1041 1042 1043
          1044 1045 1046 1047 1048 1049
          1050 1051 1052 1053 1054 1055
          1056 1057 1058 1059 1060 1061
          1062 1063 1064 1065 1066 1067
          1068 1069 1070 1071 1072 1073
          1074 1075 1076 1077 1078 1079
          1080 1081 1082 1083 1084 1085
          1086 1087 1088 1089 1090 1091
          1092 1093 1094 1095 1096 1097
          1098 1099 1100 1101 1102 1103
          1104 1105 1106 1107 1108 1109
          1110 1111 1112 1113 1114 1115
          1116 1117 1118 1119 1120 1121
          1122 1123 1124 1125 1126 1127
          1128 1129 1130 1131 1132 1133
          1134 1135 1136 1137 1138 1139
          1140 1141 1142 1143 1144 1145
          1146 1147 1148 1149 1150 1151
          1152 1153 1154 1155 1156 1157
          1158 1159 1160 1161 1162 1163
          1164 1165 1166 1167 1168 1169
          1170 1171 1172 1173 1174 1175
          1176 1177 1178 1179 1180 1181
          1182 1183 1184 1185 1186 1187
          1188 1189 1190 1191 1192 1193
          1194 1195 1196 1197 1198 1199
          1200 1201 1202 1203 1204 1205
          1206 1207 1208 1209 1210 1211
          1212 1213 1214 1215 1216 1217
          1218 1219 1220 1221 1222 1223
          1224 1225 1226 1227 1228 1229
          1230 1231 1232 1233 1234 1235
          1236 1237 1238 1239 1240 1241
          1242 1243 1244 1245 1246 1247
          1248 1249 1250 1251 1252 1253
          1254 1255 1256 1257 1258 1259
          1260 1261 1262 1263 1264 1265
          1266 1267 1268 1269 1270 1271
          1272 1273 1274 1275 1276 1277
          1278 1279 1280 1281 1282 1283
          1284 1285 1286 1287 1288 1289
          1290 1291 1292 1293 1294 1295
          1296 1297 1298 1299 1300 1301
          1302 1303 1304 1305 1306 1307
          1308 1309 1310 1311 1312 1313
          1314 1315 1316 1317 1318 1319
          1320 1321 1322 1323 1324 1325
          1326 1327 1328 1329 1330 1331
          1332 1333 1334 1335 1336 1337
          1338 1339 1340 1341 1342 1343
          1344 1345 1346 1347 1348 1349
          1350 1351 1352 1353 1354 1355
          1356 1357 1358 1359 1360 1361
          1362 1363 1364 1365 1366 1367
          1368 1369 1370 1371 1372 1373
          1374 1375 1376 1377 1378 1379
          1380 1381 1382 1383 1384 1385
          1386 1387 1388 1389 1390 1391
          1392 1393 1394 1395 1396 1397
          1398 1399 1400 1401 1402 1403
          1404
        </DataArray>
        <DataArray type="Int64" Name="offsets" format="ascii" RangeMin="1" RangeMax="1405">
          1 2 3 4 5 6
          7 8 9 10 11 12
          13 14 15 16 17 18
          19 20 21 22 23 24
          25 26 27 28 29 30
          31 32 33 34 35 36
          37 38 39 40 41 42
          43 44 45 46 47 48
          49 50 51 52 53 54
          55 56 57 58 59 60
          61 62 63 64 65 66
          67 68 69 70 71 72
          73 74 75 76 77 78
          79 80 81 82 83 84
          85 86 87 88 89 90
          91 92 93 94 95 96
          97 98 99 100 101 102
          103 104 105 106 107 108
          109 110 111 112 113 114
          115 116 117 118 119 120
          121 122 123 124 125 126
          127 128 129 130 131 132
          133 134 135 136 137 138
          139 140 141 142 143 144
          145 146 147 148 149 150
          151 152 153 154 155 156
          157 158 159 160 161 162
          163 164 165 166 167 168
          169 170 171 172 173 174
          175 176 177 178 179 180
          181 182 183 184 185 186
          187 188 189 190 191 192
          193 194 195 196 197 198
          199 200 201 202 203 204
          205 206 207 208 209 210
          211 212 213 214 215 216
          217 218 219 220 221 222
          223 224 225 226 227 228
          229 230 231 232 233 234
          235 236 237 238 239 240
          241 242 243 244 245 246
          247 248 249 250 251 252
          253 254 255 256 257 258
          259 260 261 262 263 264
          265 266 267 268 269 270
          271 272 273 274 275 276
          277 278 279 280 281 282
          283 284 285 286 287 288
          289 290 291 292 293 294
          295 296 297 298 299 300
          301 302 303 304 305 306
          307 308 309 310 311 312
          313 314 315 316 317 318
          319 320 321 322 323 324
          325 326 327 328 329 330
          331 332 333 334 335 336
          337 338 339 340 341 342
          343 344 345 346 347 348
          349 350 351 352 353 354
          355 356 357 358 359 360
          361 362 363 364 365 366
          367 368 369 370 371 372
          373 374 375 376 377 378
          379 380 381 382 383 384
          385 386 387 388 389 390
          391 392 393 394 395 396
          397 398 399 400 401 402
          403 404 405 406 407 408
          409 410 411 412 413 414
          415 416 417 418 419 420
          421 422 423 424 425 426
          427 428 429 430 431 432
          433 434 435 436 437 438
          439 440 441 442 443 444
          445 446 447 448 449 450
          451 452 453 454 455 456
          457 458 459 460 461 462
          463 464 465 466 467 468
          469 470 471 472 473 474
          475 476 477 478 479 480
          481 482 483 484 485 486
          487 488 489 490 491 492
          493 494 495 496 497 498
          499 500 501 502 503 504
          505 506 507 508 509 510
          511 512 513 514 515 516
          517 518 519 520 521 522
          523 524 525 526 527 528
          529 530 531 532 533 534
          535 536 537 538 539 540
          541 542 543 544 545 546
          547 548 549 550 551 552
          553 554 555 556 557 558
          559 560 561 562 563 564
          565 566 567 568 569 570
          571 572 573 574 575 576
          577 578 579 580 581 582
          583 584 585 586 587 588
          589 590 591 592 593 594
          595 596 597 598 599 600
          601 602 603 604 605 606
          607 608 609 610 611 612
          613 614 615 616 617 618
          619 620 621 622 623 624
          625 626 627 628 629 630
          631 632 633 634 635 636
          637 638 639 640 641 642
          643 644 645 646 647 648
          649 650 651 652 653 654
          655 656 657 658 659 660
          661 662 663 664 665 666
          667 668 669 670 671 672
          673 674 675 676 677 678
          679 680 681 682 683 684
          685 686 687 688 689 690
          691 692 693 694 695 696
          697 698 699 700 701 702
          703 704 705 706 707 708
          709 710 711 712 713 714
          715 716 717 718 719 720
          721 722 723 724 725 726
          727 728 729 730 731 732
          733 734 735 736 737 738
          739 740 741 742 743 744
          745 746 747 748 749 750
          751 752 753 754 755 756
          757 758 759 760 761 762
          763 764 765 766 767 768
          769 770 771 772 773 774
          775 776 777 778 779 780
          781 782 783 784 785 786
          787 788 789 790 791 792
          793 794 795 796 797 798
          799 800 801 802 803 804
          805 806 807 808 809 810
          811 812 813 814 815 816
          817 818 819 820 821 822
          823 824 825 826 827 828
          829 830 831 832 833 834
          835 836 837 838 839 840
          841 842 843 844 845 846
          847 848 849 850 851 852
          853 854 855 856 857 858
          859 860 861 862 863 864
          865 866 867 868 869 870
          871 872 873 874 875 876
          877 878 879 880 881 882
          883 884 885 886 887 888
          889 890 891 892 893 894
          895 896 897 898 899 900
          901 902 903 904 905 906
          907 908 909 910 911 912
          913 914 915 916 917 918
          919 920 921 922 923 924
          925 926 927 928 929 930
          931 932 933 934 935 936
          937 938 939 940 941 942
          943 944 945 946 947 948
          949 950 951 952 953 954
          955 956 957 958 959 960
          961 962 963 964 965 966
          967 968 969 970 971 972
          973 974 975 976 977 978
          979 980 981 982 983 984
          985 986 987 988 989 990
          991 992 993 994 995 996
          997 998 999 1000 1001 1002
          1003 1004 1005 1006 1007 1008
          1009 1010 1011 1012 1013 1014
          1015 1016 1017 1018 1019 1020
          1021 1022 1023 1024 1025 1026
          1027 1028 1029 1030 1031 1032
          1033 1034 1035 1036 1037 1038
          1039 1040 1041 1042 1043 1044
          1045 1046 1047 1048 1049 1050
          1051 1052 1053 1054 1055 1056
          1057 1058 1059 1060 1061 1062
          1063 1064 1065 1066 1067 1068
          1069 1070 1071 1072 1073 1074
          1075 1076 1077 1078 1079 1080
          1081 1082 1083 1084 1085 1086
          1087 1088 1089 1090 1091 1092
          1093 1094 1095 1096 1097 1098
          1099 1100 1101 1102 1103 1104
          1105 1106 1107 1108 1109 1110
          1111 1112 1113 1114 1115 1116
          1117 1118 1119 1120 1121 1122
          1123 1124 1125 1126 1127 1128
          1129 1130 1131 1132 1133 1134
          1135 1136 1137 1138 1139 1140
          1141 1142 1143 1144 1145 1146
          1147 1148 1149 1150 1151 1152
          1153 1154 1155 1156 1157 1158
          1159 1160 1161 1162 1163 1164
          1165 1166 1167 1168 1169 1170
          1171 1172 1173 1174 1175 1176
          1177 1178 1179 1180 1181 1182
          1183 1184 1185 1186 1187 1188
          1189 1190 1191 1192 1193 1194
          1195 1196 1197 1198 1199 1200
          1201 1202 1203 1204 1205 1206
          1207 1208 1209 1210 1211 1212
          1213 1214 1215 1216 1217 1218
          1219 1220 1221 1222 1223 1224
          1225 1226 1227 1228 1229 1230
          1231 1232 1233 1234 1235 1236
          1237 1238 1239 1240 1241 1242
          1243 1244 1245 1246 1247 1248
          1249 1250 1251 1252 1253 1254
          1255 1256 1257 1258 1259 1260
          1261 1262 1263 1264 1265 1266
          1267 1268 1269 1270 1271 1272
          1273 1274 1275 1276 1277 1278
          1279 1280 1281 1282 1283 1284
          1285 1286 1287 1288 1289 1290
          1291 1292 1293 1294 1295 1296
          1297 1298 1299 1300 1301 1302
          1303 1304 1305 1306 1307 1308
          1309 1310 1311 1312 1313 1314
          1315 1316 1317 1318 1319 1320
          1321 1322 1323 1324 1325 1326
          1327 1328 1329 1330 1331 1332
          1333 1334 1335 1336 1337 1338
          1339 1340 1341 1342 1343 1344
          1345 1346 1347 1348 1349 1350
          1351 1352 1353 1354 1355 1356
          1357 1358 1359 1360 1361 1362
          1363 1364 1365 1366 1367 1368
          1369 1370 1371 1372 1373 1374
          1375 1376 1377 1378 1379 1380
          1381 1382 1383 1384 1385 1386
          1387 1388 1389 1390 1391 1392
          1393 1394 1395 1396 1397 1398
          1399 1400 1401 1402 1403 1404
          1405
        </DataArray>
        <DataArray type="UInt8" Name="types" format="ascii" RangeMin="1" RangeMax="1">
          1 1 1 1 1 1
          1 1 1 1 1 1
          1 1 1 1 1 1
          1 1 1 1 1 1
          1 1 1 1 1 1
          1 1 1 1 1 1
          1 1 1 1 1 1
          1 1 1 1 1 1
          1 1 1 1 1 1
          1 1 1 1 1 1
          1 1 1 1 1 1
          1 1 1 1 1 1
          1 1 1 1 1 1
          1 1 1 1 1 1
          1 1 1 1 1 1
          1 1 1 1 1 1
          1 1 1 1 1 1
          1 1 1 1 1 1
          1 1 1 1 1 1
          1 1 1 1 1 1
          1 1 1 1 1 1
          1 1 1 1 1 1
          1 1 1 1 1 1
          1 1 1 1 1 1
          1 1 1 1 1 1
          1 1 1 1 1 1
          1 1 1 1 1 1
          1 1 1 1 1 1
          1 1 1 1 1 1
          1 1 1 1 1 1
          1 1 1 1 1 1
          1 1 1 1 1 1
          1 1 1 1 1 1
          1 1 1 1 1 1
          1 1 1 1 1 1
          1 1 1 1 1 1
          1 1 1 1 1 1
          1 1 1 1 1 1
          1 1 1 1 1 1
          1 1 1 1 1 1
          1 1 1 1 1 1
          1 1 1 1 1 1
          1 1 1 1 1 1
          1 1 1 1 1 1
          1 1 1 1 1 1
          1 1 1 1 1 1
          1 1 1 1 1 1
          1 1 1 1 1 1
          1 1 1 1 1 1
          1 1 1 1 1 1
          1 1 1 1 1 1
          1 1 1 1 1 1
          1 1 1 1 1 1
          1 1 1 1 1 1
          1 1 1 1 1 1
          1 1 1 1 1 1
          1 1 1 1 1 1
          1 1 1 1 1 1
          1 1 1 1 1 1
          1 1 1 1 1 1
          1 1 1 1 1 1
          1 1 1 1 1 1
          1 1 1 1 1 1
          1 1 1 1 1 1
          1 1 1 1 1 1
          1 1 1 1 1 1
          1 1 1 1 1 1
          1 1 1 1 1 1
          1 1 1 1 1 1
          1 1 1 1 1 1
          1 1 1 1 1 1
          1 1 1 1 1 1
          1 1 1 1 1 1
          1 1 1 1 1 1
          1 1 1 1 1 1
          1 1 1 1 1 1
          1 1 1 1 1 1
          1 1 1 1 1 1
          1 1 1 1 1 1
          1 1 1 1 1 1
          1 1 1 1 1 1
          1 1 1 1 1 1
          1 1 1 1 1 1
          1 1 1 1 1 1
          1 1 1 1 1 1
          1 1 1 1 1 1
          1 1 1 1 1 1
          1 1 1 1 1 1
          1 1 1 1 1 1
          1 1 1 1 1 1
          1 1 1 1 1 1
          1 1 1 1 1 1
          1 1 1 1 1 1
          1 1 1 1 1 1
          1 1 1 1 1 1
          1 1 1 1 1 1
          1 1 1 1 1 1
          1 1 1 1 1 1
          1 1 1 1 1 1
          1 1 1 1 1 1
          1 1 1 1 1 1
          1 1 1 1 1 1
          1 1 1 1 1 1
          1 1 1 1 1 1
          1 1 1 1 1 1
          1 1 1 1 1 1
          1 1 1 1 1 1
          1 1 1 1 1 1
          1 1 1 1 1 1
          1 1 1 1 1 1
          1 1 1 1 1 1
          1 1 1 1 1 1
          1 1 1 1 1 1
          1 1 1 1 1 1
          1 1 1 1 1 1
          1 1 1 1 1 1
          1 1 1 1 1 1
          1 1 1 1 1 1
          1 1 1 1 1 1
          1 1 1 1 1 1
          1 1 1 1 1 1
          1 1 1 1 1 1
          1 1 1 1 1 1
          1 1 1 1 1 1
          1 1 1 1 1 1
          1 1 1 1 1 1
          1 1 1 1 1 1
          1 1 1 1 1 1
          1 1 1 1 1 1
          1 1 1 1 1 1
          1 1 1 1 1 1
          1 1 1 1 1 1
          1 1 1 1 1 1
          1 1 1 1 1 1
          1 1 1 1 1 1
          1 1 1 1 1 1
          1 1 1 1 1 1
          1 1 1 1 1 1
          1 1 1 1 1 1
          1 1 1 1 1 1
          1 1 1 1 1 1
          1 1 1 1 1 1
          1 1 1 1 1 1
          1 1 1 1 1 1
          1 1 1 1 1 1
          1 1 1 1 1 1
          1 1 1 1 1 1
          1 1 1 1 1 1
          1 1 1 1 1 1
          1 1 1 1 1 1
          1 1 1 1 1 1
          1 1 1 1 1 1
          1 1 1 1 1 1
          1 1 1 1 1 1
          1 1 1 1 1 1
          1 1 1 1 1 1
          1 1 1 1 1 1
          1 1 1 1 1 1
          1 1 1 1 1 1
          1 1 1 1 1 1
          1 1 1 1 1 1
          1 1 1 1 1 1
          1 1 1 1 1 1
          1 1 1 1 1 1
          1 1 1 1 1 1
          1 1 1 1 1 1
          1 1 1 1 1 1
          1 1 1 1 1 1
          1 1 1 1 1 1
          1 1 1 1 1 1
          1 1 1 1 1 1
          1 1 1 1 1 1
          1 1 1 1 1 1
          1 1 1 1 1 1
          1 1 1 1 1 1
          1 1 1 1 1 1
          1 1 1 1 1 1
          1 1 1 1 1 1
          1 1 1 1 1 1
          1 1 1 1 1 1
          1 1 1 1 1 1
          1 1 1 1 1 1
          1 1 1 1 1 1
          1 1 1 1 1 1
          1 1 1 1 1 1
          1 1 1 1 1 1
          1 1 1 1 1 1
          1 1 1 1 1 1
          1 1 1 1 1 1
          1 1 1 1 1 1
          1 1 1 1 1 1
          1 1 1 1 1 1
          1 1 1 1 1 1
          1 1 1 1 1 1
          1 1 1 1 1 1
          1 1 1 1 1 1
          1 1 1 1 1 1
          1 1 1 1 1 1
          1 1 1 1 1 1
          1 1 1 1 1 1
          1 1 1 1 1 1
          1 1 1 1 1 1
          1 1 1 1 1 1
          1 1 1 1 1 1
          1 1 1 1 1 1
          1 1 1 1 1 1
          1 1 1 1 1 1
          1 1 1 1 1 1
          1 1 1 1 1 1
          1 1 1 1 1 1
          1 1 1 1 1 1
          1 1 1 1 1 1
          1 1 1 1 1 1
          1 1 1 1 1 1
          1 1 1 1 1 1
          1 1 1 1 1 1
          1 1 1 1 1 1
          1 1 1 1 1 1
          1 1 1 1 1 1
          1 1 1 1 1 1
          1 1 1 1 1 1
          1 1 1 1 1 1
          1 1 1 1 1 1
          1 1 1 1 1 1
          1 1 1 1 1 1
          1 1 1 1 1 1
          1 1 1 1 1 1
          1 1 1 1 1 1
          1 1 1 1 1 1
          1 1 1 1 1 1
          1 1 1 1 1 1
          1 1 1 1 1 1
          1 1 1 1 1 1
          1 1 1 1 1 1
          1
        </DataArray>
      </Cells>
    </Piece>
  </UnstructuredGrid>
</VTKFile>
