<VTKFile type="UnstructuredGrid" version="0.1" byte_order="LittleEndian" header_type="UInt32" compressor="vtkZLibDataCompressor">
  <UnstructuredGrid>
    <Piece NumberOfPoints="1330" NumberOfCells="1330">
      <PointData Scalars="CriticalType">
        <DataArray type="Int32" Name="NodeId" format="ascii" RangeMin="0" RangeMax="1329">
          0 1 2 3 4 5
          6 7 8 9 10 11
          12 13 14 15 16 17
          18 19 20 21 22 23
          24 25 26 27 28 29
          30 31 32 33 34 35
          36 37 38 39 40 41
          42 43 44 45 46 47
          48 49 50 51 52 53
          54 55 56 57 58 59
          60 61 62 63 64 65
          66 67 68 69 70 71
          72 73 74 75 76 77
          78 79 80 81 82 83
          84 85 86 87 88 89
          90 91 92 93 94 95
          96 97 98 99 100 101
          102 103 104 105 106 107
          108 109 110 111 112 113
          114 115 116 117 118 119
          120 121 122 123 124 125
          126 127 128 129 130 131
          132 133 134 135 136 137
          138 139 140 141 142 143
          144 145 146 147 148 149
          150 151 152 153 154 155
          156 157 158 159 160 161
          162 163 164 165 166 167
          168 169 170 171 172 173
          174 175 176 177 178 179
          180 181 182 183 184 185
          186 187 188 189 190 191
          192 193 194 195 196 197
          198 199 200 201 202 203
          204 205 206 207 208 209
          210 211 212 213 214 215
          216 217 218 219 220 221
          222 223 224 225 226 227
          228 229 230 231 232 233
          234 235 236 237 238 239
          240 241 242 243 244 245
          246 247 248 249 250 251
          252 253 254 255 256 257
          258 259 260 261 262 263
          264 265 266 267 268 269
          270 271 272 273 274 275
          276 277 278 279 280 281
          282 283 284 285 286 287
          288 289 290 291 292 293
          294 295 296 297 298 299
          300 301 302 303 304 305
          306 307 308 309 310 311
          312 313 314 315 316 317
          318 319 320 321 322 323
          324 325 326 327 328 329
          330 331 332 333 334 335
          336 337 338 339 340 341
          342 343 344 345 346 347
          348 349 350 351 352 353
          354 355 356 357 358 359
          360 361 362 363 364 365
          366 367 368 369 370 371
          372 373 374 375 376 377
          378 379 380 381 382 383
          384 385 386 387 388 389
          390 391 392 393 394 395
          396 397 398 399 400 401
          402 403 404 405 406 407
          408 409 410 411 412 413
          414 415 416 417 418 419
          420 421 422 423 424 425
          426 427 428 429 430 431
          432 433 434 435 436 437
          438 439 440 441 442 443
          444 445 446 447 448 449
          450 451 452 453 454 455
          456 457 458 459 460 461
          462 463 464 465 466 467
          468 469 470 471 472 473
          474 475 476 477 478 479
          480 481 482 483 484 485
          486 487 488 489 490 491
          492 493 494 495 496 497
          498 499 500 501 502 503
          504 505 506 507 508 509
          510 511 512 513 514 515
          516 517 518 519 520 521
          522 523 524 525 526 527
          528 529 530 531 532 533
          534 535 536 537 538 539
          540 541 542 543 544 545
          546 547 548 549 550 551
          552 553 554 555 556 557
          558 559 560 561 562 563
          564 565 566 567 568 569
          570 571 572 573 574 575
          576 577 578 579 580 581
          582 583 584 585 586 587
          588 589 590 591 592 593
          594 595 596 597 598 599
          600 601 602 603 604 605
          606 607 608 609 610 611
          612 613 614 615 616 617
          618 619 620 621 622 623
          624 625 626 627 628 629
          630 631 632 633 634 635
          636 637 638 639 640 641
          642 643 644 645 646 647
          648 649 650 651 652 653
          654 655 656 657 658 659
          660 661 662 663 664 665
          666 667 668 669 670 671
          672 673 674 675 676 677
          678 679 680 681 682 683
          684 685 686 687 688 689
          690 691 692 693 694 695
          696 697 698 699 700 701
          702 703 704 705 706 707
          708 709 710 711 712 713
          714 715 716 717 718 719
          720 721 722 723 724 725
          726 727 728 729 730 731
          732 733 734 735 736 737
          738 739 740 741 742 743
          744 745 746 747 748 749
          750 751 752 753 754 755
          756 757 758 759 760 761
          762 763 764 765 766 767
          768 769 770 771 772 773
          774 775 776 777 778 779
          780 781 782 783 784 785
          786 787 788 789 790 791
          792 793 794 795 796 797
          798 799 800 801 802 803
          804 805 806 807 808 809
          810 811 812 813 814 815
          816 817 818 819 820 821
          822 823 824 825 826 827
          828 829 830 831 832 833
          834 835 836 837 838 839
          840 841 842 843 844 845
          846 847 848 849 850 851
          852 853 854 855 856 857
          858 859 860 861 862 863
          864 865 866 867 868 869
          870 871 872 873 874 875
          876 877 878 879 880 881
          882 883 884 885 886 887
          888 889 890 891 892 893
          894 895 896 897 898 899
          900 901 902 903 904 905
          906 907 908 909 910 911
          912 913 914 915 916 917
          918 919 920 921 922 923
          924 925 926 927 928 929
          930 931 932 933 934 935
          936 937 938 939 940 941
          942 943 944 945 946 947
          948 949 950 951 952 953
          954 955 956 957 958 959
          960 961 962 963 964 965
          966 967 968 969 970 971
          972 973 974 975 976 977
          978 979 980 981 982 983
          984 985 986 987 988 989
          990 991 992 993 994 995
          996 997 998 999 1000 1001
          1002 1003 1004 1005 1006 1007
          1008 1009 1010 1011 1012 1013
          1014 1015 1016 1017 1018 1019
          1020 1021 1022 1023 1024 1025
          1026 1027 1028 1029 1030 1031
          1032 1033 1034 1035 1036 1037
          1038 1039 1040 1041 1042 1043
          1044 1045 1046 1047 1048 1049
          1050 1051 1052 1053 1054 1055
          1056 1057 1058 1059 1060 1061
          1062 1063 1064 1065 1066 1067
          1068 1069 1070 1071 1072 1073
          1074 1075 1076 1077 1078 1079
          1080 1081 1082 1083 1084 1085
          1086 1087 1088 1089 1090 1091
          1092 1093 1094 1095 1096 1097
          1098 1099 1100 1101 1102 1103
          1104 1105 1106 1107 1108 1109
          1110 1111 1112 1113 1114 1115
          1116 1117 1118 1119 1120 1121
          1122 1123 1124 1125 1126 1127
          1128 1129 1130 1131 1132 1133
          1134 1135 1136 1137 1138 1139
          1140 1141 1142 1143 1144 1145
          1146 1147 1148 1149 1150 1151
          1152 1153 1154 1155 1156 1157
          1158 1159 1160 1161 1162 1163
          1164 1165 1166 1167 1168 1169
          1170 1171 1172 1173 1174 1175
          1176 1177 1178 1179 1180 1181
          1182 1183 1184 1185 1186 1187
          1188 1189 1190 1191 1192 1193
          1194 1195 1196 1197 1198 1199
          1200 1201 1202 1203 1204 1205
          1206 1207 1208 1209 1210 1211
          1212 1213 1214 1215 1216 1217
          1218 1219 1220 1221 1222 1223
          1224 1225 1226 1227 1228 1229
          1230 1231 1232 1233 1234 1235
          1236 1237 1238 1239 1240 1241
          1242 1243 1244 1245 1246 1247
          1248 1249 1250 1251 1252 1253
          1254 1255 1256 1257 1258 1259
          1260 1261 1262 1263 1264 1265
          1266 1267 1268 1269 1270 1271
          1272 1273 1274 1275 1276 1277
          1278 1279 1280 1281 1282 1283
          1284 1285 1286 1287 1288 1289
          1290 1291 1292 1293 1294 1295
          1296 1297 1298 1299 1300 1301
          1302 1303 1304 1305 1306 1307
          1308 1309 1310 1311 1312 1313
          1314 1315 1316 1317 1318 1319
          1320 1321 1322 1323 1324 1325
          1326 1327 1328 1329
        </DataArray>
        <DataArray type="Float32" Name="Scalar" format="ascii" RangeMin="0.0518798828125" RangeMax="21.84209442138672">
          0.051879883 0.051879883 0.076293945 0.0793457 0.08544922 0.091552734
          0.103759766 0.119018555 0.119018555 0.12207794 0.13123322 0.14344025
          0.15259552 0.15259552 0.15564728 0.1617508 0.16785431 0.17090607
          0.17090607 0.17395782 0.17395782 0.18311311 0.18921661 0.19837189
          0.2044754 0.20752716 0.21057892 0.21057893 0.22278595 0.23499298
          0.23804475 0.24414825 0.24720001 0.25025177 0.25025177 0.25025177
          0.25330353 0.25940704 0.26551056 0.26551056 0.27161407 0.27466583
          0.28076935 0.2838211 0.28687286 0.28992462 0.29297638 0.29297638
          0.29602814 0.3051834 0.31128693 0.31128693 0.31433868 0.3204422
          0.3204422 0.32349396 0.32349396 0.32349396 0.32959747 0.33264923
          0.335701 0.34485626 0.35095978 0.35401154 0.3570633 0.36011505
          0.36011505 0.3723297 0.37538147 0.37843323 0.3875885 0.3906403
          0.39369202 0.39674377 0.39674377 0.39674377 0.39979553 0.39979553
          0.40589905 0.41200256 0.41200256 0.4150543 0.41505432 0.41505432
          0.4242096 0.43946835 0.4455719 0.45472717 0.45777893 0.45777893
          0.46388245 0.4669342 0.47303772 0.48829648 0.49745178 0.49745178
          0.49745178 0.50050354 0.5005036 0.5035553 0.5035553 0.5127106
          0.5127106 0.5127106 0.5249176 0.5249176 0.52796936 0.5310211
          0.5340729 0.5340729 0.53712463 0.54933167 0.5523834 0.5554352
          0.56459045 0.56764215 0.5676422 0.5737457 0.5767975 0.57984924
          0.57984924 0.582901 0.5920563 0.5920563 0.59510803 0.59815985
          0.60121155 0.60426337 0.60731506 0.60731506 0.6195221 0.6195221
          0.6195221 0.62563324 0.628685 0.628685 0.63173676 0.6347885
          0.6378403 0.6439438 0.64699554 0.64699554 0.65309906 0.6561508
          0.6592026 0.65920264 0.66835785 0.66835785 0.6805649 0.6897201
          0.68972015 0.692772 0.69582367 0.70497894 0.71108246 0.7171859
          0.717186 0.72634125 0.73244476 0.7446518 0.7660141 0.7751694
          0.78432465 0.79042816 0.8026352 0.80568695 0.830101 0.8392563
          0.8514633 0.8606186 0.86977386 0.8911438 0.8941956 0.91250616
          0.91555786 0.92471313 0.9277649 0.9338684 0.939972 0.9430237
          0.94607544 0.94607544 0.9491272 0.9491272 0.9491272 0.9521789
          0.9613343 0.96743774 0.976593 0.9857483 0.98880005 0.9918518
          0.99490356 0.99490356 1.0101624 1.0193176 1.0284729 1.0376282
          1.052887 1.0589905 1.0681458 1.077301 1.0803528 1.0864563
          1.0956116 1.0986633 1.1017151 1.1078186 1.1078186 1.1322403
          1.135292 1.1413956 1.1413956 1.1474991 1.1627579 1.1688614
          1.1810684 1.1902237 1.211586 1.2207413 1.2329483 1.2390518
          1.2390518 1.2451553 1.2573624 1.2634659 1.2756729 1.2817764
          1.2817764 1.2848282 1.28788 1.28788 1.2909317 1.2939835
          1.2970352 1.3061905 1.3092422 1.3122939 1.312294 1.3336563
          1.3458633 1.3458633 1.3489151 1.3519669 1.3550186 1.3611221
          1.3611221 1.3641739 1.3641739 1.3702774 1.3763885 1.3824921
          1.3855438 1.3885956 1.3916473 1.3916473 1.3977509 1.4008026
          1.4191132 1.4191132 1.4252167 1.4252167 1.434372 1.446579
          1.4496307 1.4709929 1.4893035 1.4893036 1.4893036 1.4923555
          1.5198212 1.5228729 1.5259247 1.5259248 1.5289764 1.5381317
          1.5381318 1.5533905 1.559494 1.5625457 1.5655975 1.5747528
          1.5778046 1.5778046 1.5869597 1.5869598 1.5900116 1.5961151
          1.5991669 1.6083221 1.6113739 1.6144255 1.6144257 1.6144257
          1.6205292 1.6266403 1.6296921 1.6327438 1.6388474 1.6449507
          1.6510544 1.654106 1.6541061 1.6602097 1.6632614 1.6754684
          1.6785202 1.681572 1.6846237 1.6846237 1.6907272 1.6937789
          1.705986 1.7090378 1.7120895 1.7120895 1.7120897 1.718193
          1.718193 1.7212448 1.733452 1.7456588 1.7487106 1.7487108
          1.7517623 1.7517623 1.7609178 1.7639694 1.7639694 1.7639694
          1.7670212 1.7792281 1.7914352 1.7914352 1.8005905 1.806694
          1.8097458 1.8280563 1.8311081 1.8341599 1.8402634 1.8524703
          1.8524703 1.8646774 1.8646774 1.870781 1.8738403 1.8890991
          1.8921509 1.8921509 1.8982543 1.9104614 1.928772 1.928772
          1.9318237 1.9501343 1.9501343 1.9623413 1.9623413 1.9684448
          1.9684448 1.9714966 1.9714966 1.9806519 1.9867555 1.9928589
          1.9928589 1.9959106 1.9989624 1.9989624 2.005066 2.0081174
          2.017273 2.0203247 2.0203247 2.0233765 2.0233765 2.0355833
          2.0386353 2.053894 2.0569458 2.0630493 2.0691528 2.0722046
          2.0722046 2.0783079 2.078308 2.0905151 2.0996704 2.1027222
          2.1118774 2.1149292 2.117981 2.1271439 2.1332474 2.1454544
          2.1485062 2.1485062 2.1546097 2.1607132 2.163765 2.1698685
          2.1698685 2.1729202 2.1851273 2.1912308 2.1912308 2.1912308
          2.1973343 2.200386 2.200386 2.200386 2.2064896 2.2064896
          2.2095413 2.2095416 2.2186966 2.227852 2.2339554 2.2370071
          2.2370071 2.2431107 2.2614212 2.2705765 2.2736285 2.27668
          2.27668 2.2827835 2.2919388 2.2919388 2.2919388 2.2919388
          2.2980423 2.2980423 2.3041458 2.313301 2.325508 2.3285599
          2.3438187 2.3560257 2.3712845 2.386551 2.398758 2.4079132
          2.4109652 2.4140167 2.4262238 2.4292755 2.435379 2.4384308
          2.4658966 2.4750516 2.4750519 2.4842072 2.4933624 2.4964142
          2.499466 2.4994662 2.5055695 2.5055695 2.511673 2.5330353
          2.5421906 2.548294 2.5543976 2.5574493 2.560501 2.587967
          2.5971222 2.6215363 2.6215363 2.6245956 2.6398544 2.6429062
          2.6429062 2.645958 2.6520615 2.658165 2.6673203 2.6734238
          2.682579 2.6978378 2.6978378 2.7008896 2.7039413 2.706993
          2.706993 2.7130966 2.734459 2.7375107 2.7375107 2.7405624
          2.7497177 2.7527695 2.7619247 2.7649765 2.7680283 2.77108
          2.77108 2.7771835 2.7802353 2.7863388 2.7863388 2.7863388
          2.7863388 2.8107529 2.8168564 2.8168564 2.8260117 2.8260117
          2.8321152 2.8382187 2.8687363 2.8870544 2.8992615 2.9114685
          2.9114685 2.917572 2.9236755 2.9267273 2.929779 2.9328306
          2.932831 2.9389343 2.9389343 2.941986 2.9450378 2.954193
          2.9633484 2.9633484 2.969452 2.9755554 2.9786072 2.981659
          3.0030212 3.006073 3.006073 3.006073 3.006073 3.0121765
          3.021332 3.0274353 3.0335388 3.0365906 3.042694 3.0457458
          3.0487976 3.0518494 3.0518494 3.0549011 3.07016 3.079315
          3.0854187 3.0854187 3.0915222 3.094574 3.106781 3.128151
          3.1342545 3.1342545 3.1708753 3.1708755 3.1769793 3.1800308
          3.1952896 3.204445 3.204445 3.2105484 3.216652 3.2197037
          3.241066 3.241066 3.253273 3.2593765 3.2715836 3.2715836
          3.2746353 3.3204117 3.329567 3.3387222 3.3448257 3.3570328
          3.3631363 3.3906097 3.4028168 3.4089203 3.411972 3.4211273
          3.4333344 3.4577484 3.4852142 3.4852142 3.4943695 3.4943695
          3.5065765 3.5157318 3.5157318 3.5340424 3.5340424 3.5431976
          3.552353 3.5676117 3.576767 3.5859222 3.5950775 3.5950775
          3.5950775 3.601181 3.6072845 3.61644 3.631706 3.634758
          3.634758 3.634758 3.646965 3.6500168 3.6622238 3.671379
          3.683586 3.6835861 3.6835861 3.6835861 3.6896896 3.7080004
          3.7141037 3.723259 3.7263107 3.7293625 3.7446213 3.75988
          3.848381 3.848381 3.8544846 3.8636398 3.8850098 3.8880615
          3.8972168 3.9155273 3.918579 3.9216309 3.933838 3.9429932
          3.9521482 3.9552002 3.9674072 3.9674072 3.970459 3.9765625
          3.994873 4.0131836 4.019287 4.031494 4.031494 4.034546
          4.068115 4.068115 4.0803223 4.1016846 4.1047363 4.1138916
          4.119995 4.119995 4.13221 4.13221 4.1352615 4.1474686
          4.1596756 4.165779 4.2115555 4.2146072 4.2207108 4.2390213
          4.242073 4.2481766 4.2725906 4.2756424 4.278694 4.278694
          4.278694 4.293953 4.3122635 4.321419 4.3641434 4.3946686
          4.3946686 4.397721 4.4099274 4.412979 4.412979 4.425186
          4.428238 4.4343414 4.440445 4.4434967 4.4496 4.4709625
          4.4740143 4.477066 4.492325 4.5197906 4.5197906 4.5319977
          4.5319977 4.5442047 4.5472565 4.550308 4.550308 4.5564117
          4.5594635 4.5625153 4.5625153 4.565567 4.568619 4.5716705
          4.5716705 4.5747223 4.5747223 4.5869293 4.5960846 4.6082916
          4.675438 4.6815414 4.687645 4.6906967 4.6906967 4.7181625
          4.724266 4.7303696 4.7334213 4.751732 4.7791977 4.785301
          4.8158183 4.8188705 4.8310776 4.8432846 4.849388 4.849388
          4.861595 4.8676987 4.8707504 4.8799133 4.8890686 4.9012756
          4.907379 4.9134827 4.9256897 4.9287415 4.9287415 4.934845
          4.974518 4.986725 5.0019836 5.0019836 5.0416565 5.0538635
          5.072174 5.084381 5.087433 5.0935364 5.09964 5.09964
          5.108795 5.1118474 5.121002 5.1240616 5.142372 5.1606827
          5.2003555 5.2278214 5.2400284 5.2644424 5.2919083 5.3498917
          5.355995 5.3620987 5.3743134 5.3743134 5.4078827 5.4078827
          5.426193 5.4353485 5.441452 5.441452 5.4475555 5.468918
          5.4841766 5.49028 5.493332 5.502487 5.505539 5.517746
          5.5207977 5.5238495 5.5574193 5.5726776 5.5848846 5.590988
          5.606247 5.6092987 5.6123505 5.618454 5.618454 5.627617
          5.648979 5.6856003 5.700859 5.713066 5.73748 5.78936
          5.804619 5.865654 5.8717575 5.899231 5.9175415 5.926697
          5.935852 5.938904 5.951111 5.951111 5.9663696 5.9816284
          5.9816284 5.996887 5.996887 6.0457153 6.064026 6.115906
          6.1281204 6.1525345 6.1647415 6.1677933 6.2013626 6.219673
          6.234932 6.2562943 6.262398 6.308174 6.347847 6.363106
          6.3661575 6.3722687 6.393631 6.4516144 6.457718 6.4638214
          6.5279083 6.5401154 6.5492706 6.555374 6.5614777 6.570633
          6.5858917 6.5889435 6.6042023 6.6347275 6.6347275 6.704918
          6.7232285 6.7720566 6.7781596 6.8086777 6.8483505 6.8605576
          6.8605576 6.8636093 6.869713 6.8849792 6.8941345 6.8941345
          6.9185486 6.9216003 6.924652 6.9551697 6.9551697 6.964325
          7.0070496 7.016205 7.0345154 7.0467224 7.052826 7.07724
          7.0955505 7.135231 7.1413345 7.15049 7.15049 7.1688004
          7.1840596 7.187111 7.2023697 7.223732 7.2420425 7.2542496
          7.3030777 7.3030777 7.3183365 7.3335953 7.351906 7.3549576
          7.3732758 7.385483 7.39769 7.4251556 7.434311 7.446518
          7.4648285 7.495346 7.5014496 7.5136566 7.51976 7.535019
          7.5502777 7.5685883 7.5930023 7.6021576 7.608261 7.620468
          7.6265793 7.6479416 7.654045 7.678459 7.7089767 7.745598
          7.7486496 7.754753 7.8615646 7.904297 7.916504 7.977539
          7.9958496 7.9958496 7.9989014 7.9989014 8.005005 8.029419
          8.050781 8.050781 8.096558 8.096558 8.105713 8.108765
          8.120972 8.133186 8.145393 8.166756 8.178963 8.178963
          8.19117 8.200325 8.203377 8.20948 8.221687 8.307137
          8.316292 8.343758 8.343758 8.349861 8.392593 8.4292145
          8.453629 8.45668 8.465836 8.487198 8.496353 8.532974
          8.548233 8.554337 8.563492 8.563492 8.572647 8.590958
          8.590958 8.590958 8.590958 8.600113 8.621475 8.630638
          8.636742 8.645897 8.652 8.661156 8.673363 8.6886215
          8.70388 8.706932 8.731346 8.798485 8.804588 8.816795
          8.825951 8.825951 8.85952 8.865623 8.871727 8.871727
          8.877838 8.883942 8.893097 8.981598 8.993805 9.006012
          9.063995 9.216591 9.25016 9.28373 9.3600235 9.37529
          9.3936 9.396652 9.430222 9.454636 9.469894 9.47905
          9.482101 9.491257 9.49736 9.5065155 9.515671 9.521774
          9.537033 9.540085 9.564499 9.588913 9.610275 9.616379
          9.6408 9.646904 9.646904 9.649956 9.6530075 9.680473
          9.689629 9.689629 9.714043 9.720146 9.732352 9.738457
          9.7415085 9.765923 9.772026 9.793388 9.839165 9.845268
          9.8544235 9.891052 9.894104 9.903259 9.909363 9.967346
          9.979553 9.982605 9.982605 9.997864 10.003967 10.022278
          10.02533 10.046692 10.049744 10.052795 10.065002 10.068054
          10.083313 10.09552 10.101624 10.104675 10.122993 10.126045
          10.1352005 10.153511 10.153511 10.174873 10.205391 10.214546
          10.217598 10.229805 10.242012 10.245064 10.275581 10.278633
          10.278633 10.287788 10.303047 10.309151 10.321358 10.3244095
          10.330513 10.3366165 10.34272 10.351875 10.354927 10.354927
          10.357979 10.376297 10.3824005 10.385452 10.385452 10.385452
          10.388503 10.391556 10.425125 10.431229 10.446487 10.464798
          10.489212 10.525833 10.525833 10.531937 10.544143 10.547195
          10.559402 10.565506 10.574661 10.58992 10.599075 10.602127
          10.611282 10.614334 10.617386 10.623497 10.626549 10.629601
          10.632652 10.647911 10.666222 10.672325 10.675377 10.68148
          10.684532 10.687584 10.702843 10.702843 10.711998 10.727257
          10.727257 10.745567 10.760826 10.776085 10.779137 10.794395
          10.800499 10.824913 10.852379 10.858482 10.861534 10.867638
          10.870689 10.876801 10.879852 10.879852 10.879852 10.885956
          10.885956 10.91037 10.92868 10.934784 10.934784 10.940887
          10.959198 10.9653015 10.986664 10.998871 11.020233 11.020233
          11.029388 11.047699 11.059906 11.0660095 11.069061 11.081268
          11.093475 11.099579 11.111786 11.130104 11.139259 11.166725
          11.172829 11.178932 11.203346 11.236916 11.236916 11.239967
          11.239967 11.243019 11.246071 11.252174 11.267433 11.270485
          11.276588 11.27964 11.27964 11.282692 11.285744 11.325417
          11.328468 11.352882 11.365089 11.383408 11.398666 11.420029
          11.450546 11.450546 11.47496 11.481064 11.496323 11.50853
          11.532944 11.539047 11.5482025 11.575668 11.575668 11.587875
          11.593979 11.597031 11.612289 11.627556 11.645866 11.65197
          11.752678 11.795403 11.801506 11.816765 11.841179 11.868645
          11.877808 11.911377 11.920532 11.935791 11.944946 11.95105
          11.960205 11.987671 12.051758 12.070068 12.076172 12.1188965
          12.1188965 12.128059 12.134163 12.137215 12.137215 12.140266
          12.143318 12.155525 12.161629 12.1646805 12.182991 12.186043
          12.195198 12.213509 12.21656 12.256234 12.2775955 12.305062
          12.344734 12.417984 12.521744 12.543106 12.564468 12.6194
          12.683495 12.701805 12.735374 12.738425 13.028351 13.171791
          13.18705 13.318275 13.3304825 13.3304825 13.38237 13.394577
          13.400681 13.400681 13.568527 13.5776825 13.617355 13.62957
          13.644829 13.653984 13.672295 13.742485 13.757744 13.782158
          13.870659 14.081238 14.264351 14.716026 14.731285 14.752647
          14.755699 14.838097 14.856407 14.874725 14.908295 14.975433
          15.057831 15.100555 15.103607 15.112762 15.152443 15.158546
          15.16465 15.195168 15.222633 15.237892 15.2714615 15.326393
          15.359962 15.390488 15.421005 15.4301605 15.445419 15.475937
          15.5186615 15.521713 15.680412 15.680412 15.698723 15.698723
          15.698723 15.698724 15.744499 15.869621 16.013062 16.040527
          16.058838 16.077148 16.119873 21.842094
        </DataArray>
        <DataArray type="Int32" Name="VertexId" format="ascii" RangeMin="1" RangeMax="25591">
          2865 3023 139 11947 933 8841
          2672 10365 12933 9003 2511 12444
          1095 13251 931 3024 10288 11165
          12282 6427 7574 2528 10028 11779
          1589 1348 5583 934 3967 1509
          10033 306 1549 270 2512 3015
          12540 1024 2036 7253 1898 2236
          296 1873 2693 9539 297 1869
          9217 12775 9378 12121 1186 12764
          13249 772 10212 13086 2719 145
          6060 12122 2222 5901 12117 428
          13092 146 13250 2855 2352 11811
          12934 2197 11942 12925 2037 12284
          2050 10362 11800 2543 1229 9700
          12453 11960 703 1709 12114 13085
          11944 2361 11945 221 541 2220
          2539 615 130 381 13088 2209
          12604 12765 11943 12110 12115 2364
          475 11782 12109 10363 9056 2378
          269 291 1886 1187 1257 1731
          1734 12613 3328 8842 451 5247
          3488 1575 1508 5420 1572 2698
          5421 8734 1908 2363 542 434
          1389 2045 2558 12112 159 1875
          290 54 11973 12133 11958 157
          4910 1890 142 8091 8731 10312
          3009 8895 3169 1728 5732 8573
          863 11972 4922 1184 1673 10215
          2228 1711 3170 5106 432 4446
          57 7413 1672 116 595 10214
          435 2040 115 5735 6591 7329
          288 5265 2345 289 3979 8412
          633 4454 7410 910 7251 5085
          10136 1748 8214 10846 6431 7249
          56 8054 11006 5889 7409 8572
          3941 4616 7793 2179 4293 9861
          1598 11327 6752 4615 4435 1066
          10023 10687 8677 6556 8847 9006
          9474 8850 858 1067 1019 6525
          4115 4275 1917 9017 1278 4932
          4630 6206 859 8404 58 2342
          4773 4457 7066 7646 697 7067
          10209 7165 2072 5094 8678 7006
          2233 6689 5254 6592 5759 7488
          13230 4629 8851 9016 10641 10802
          7034 10801 10198 7947 6666 9498
          8367 7928 10036 6841 13067 9595
          6875 13068 8268 11487 4433 9185
          10783 6416 6237 8527 7001 7929
          8849 7948 3635 10292 10785 9178
          6505 8109 10462 6665 7148 6035
          6037 8195 7144 10930 6241 9817
          2016 8555 8355 13238 6987 6669
          10025 10460 8394 10902 8733 10638
          6986 7147 5053 2503 8205 8554
          10622 8206 10769 12919 4799 103
          6577 9502 7640 104 11167 6668
          6672 6831 9509 11124 10354 7199
          9820 10964 9349 9503 893 8087
          10196 10022 10674 5872 8251 4572
          4898 4732 7468 11446 11447 4420
          6033 414 574 1865 7198 11285
          7987 2012 9055 4260 9092 4254
          10987 5279 10034 6834 8894 5055
          6833 4413 11147 11899 12059 13236
          10514 8617 83 2025 1546 9216
          1203 7988 3122 1533 10500 3677
          4418 2962 1214 47 1362 8552
          1694 1042 1202 3274 2017 2948
          10199 1695 4317 10678 3517 4316
          10177 4319 4417 9411 3111 2956
          5191 3142 5030 5031 9251 10519
          4579 10197 3112 10507 8302 3109
          10667 10338 725 886 403 10399
          726 187 724 16798 50 348
          188 8460 10661 11741 9154 10272
          2291 1047 887 3757 3597 10347
          8878 11573 10112 9377 8144 2181
          4490 4329 9572 1974 4330 9095
          16474 4241 250 1815 16309 15359
          6605 251 11567 7364 6880 9538
          11412 16636 7368 1973 16159 4403
          4079 6720 8935 7529 7360 5199
          16470 7369 16318 3731 3892 9699
          11570 3732 8934 16310 13737 16471
          7214 13736 408 3130 10078 3129
          7361 7040 13379 4013 5356 14221
          9242 7375 14383 9404 7086 7215
          4337 13898 18 4879 14 9918
          4172 17 13380 14035 15839 10238
          9244 7366 14222 14034 192 7054
          15835 4017 7212 191 8332 9240
          9241 13738 4662 4182 4500 8011
          6120 7851 8765 8171 3293 3452
          14060 4501 10241 21 5303 4498
          4176 15995 2823 16144 8627 16145
          4175 4180 8335 8334 15034 15196
          10380 4972 9 6282 10 14399
          7839 15822 3689 15823 7679 14719
          14705 9076 15660 5120 14545 15820
          3887 4814 15498 4982 3849 14555
          14556 15669 15829 13528 40 9075
          14294 15658 3888 13053 18079 13054
          9119 8342 15348 15508 6014 17919
          9270 8182 4965 9431 15027 15028
          13532 14711 13373 9430 16459 10379
          5853 15175 15176 15172 8824 8821
          11680 8506 4806 8636 16460 8626
          13530 8505 8477 8663 14688 9438
          5611 8822 11683 7232 15174 6018
          11682 13435 6017 9441 9601 14365
          14364 5704 11372 12159 1320 2773
          11529 16453 4668 1319 13756 14525
          14929 11531 13274 9109 13275 3547
          4353 5440 15161 9124 13823 13844
          2744 13113 2763 15160 3707 15164
          15163 13683 4666 5864 13114 2257
          10543 5168 5008 9612 10581 9452
          10741 5062 16134 9110 13843 5061
          10542 2602 2762 11048 4352 2942
          8948 2730 7616 2885 14006 10891
          2943 1923 11375 6499 5816 14619
          19199 13750 2579 19039 5655 14617
          10890 6660 13342 14461 13912 1761
          1762 2728 10727 3065 13119 6974
          11526 11209 3203 8949 7266 19030
          6138 6619 7426 16447 5977 6496
          4357 6778 3840 3681 2404 18871
          16287 2766 1 17411 9911 12785
          7455 17091 3241 4356 8788 16440
          20152 21119 1964 3081 16122 1804
          3200 13107 5955 12947 12948 3201
          20796 6114 19831 20957 19991 4995
          9591 20473 4994 19511 20313 3396
          4 3716 20634 20635 20474 3556
          9432 12199 12039 15405 3561 5983
          24159 4036 5984 20307 3401 6970
          11709 6810 14288 20148 19503 11036
          11350 12147 19504 24799 12308 23674
          9582 10552 11028 22399 19211 24479
          22079 23517 11037 14289 8417 10713
          18422 21753 8576 11821 10712 21593
          25591 11820 11188 11339 22875 14612
          23035 20619 13169 11179 9421 12172
          22717 22229 22066 20621 10867 16539
          22385 22225 21747 12012 22070 24474
          12486 24476 4040 19006 10714 11232
          12643 8581 12644 12488 22864 24786
          19365 4039 8582 19813 16344 12337
          19009 19334 19333 22705 12017 21100
          12177 15610 11857 18036 25267 21099
          13009 15931 17877 19654 15771 16252
          16499 16251 16749 25427 16909 17300
          15866 23333 21094 16060 13649 24951
          17782 23818 20776 17950 25107 15288
          13808 25255 16685 16716 19966 19806
          16022 23009 23010 24135 22859 24303
          23976 23178 24463 16564 22860 23019
          24454 23327 13771 16024 23168 23654
          19317 15889 23336 21562 16725 16724
          16183 16897 15762 25573 15763 21083
          16083 19368 19159 24294 21242 13291
          13802 15728 17378 16020 18318 17942
          16576 13767 21686 20765 24774 18157
          15544 17377 15704 20118 13447 18959
          15570 22364 20117 22365 18798 25414
          22373 16809 22374 15911 17283 13325
          13165 19761 17461 14743 19600 20403
          13484 16979 17847 15378 20243 20564
          13616 13615 17686 14242 15063 18812
          13955 14116 13956 25579 18491 25580
          17600 18184 18185 15712 19290 19632
          18144 19130 19473 16966 15699 18339
          18338 17983 17984 17982 14084 18821
          14897 18406 14898 18820 21506 14754
          19910 15082 17440 20231 17150 20071
          20105 20876 19784 22470 22309 19944
          15083 20067 22313 21715 22310 22148
          20068 20235 22312 21717 20250 20396
          21988 20233 18948 22308 24229 19917
          23616 22626 16202 14261 21670 14421
          14893 19931 21835 19109 16203 19108
          17956 14415 22464 14734 18566 21669
          22465 17476 22468 21386 19780 19429
          17795 20869 23771 21029 19575 23146
          23450 23610 23431 23773 14435 23110
          19105 17635 23130 18946 23109 20861
          17955 23271 16690 24278 20169 19260
          15390 20008 19100 19737 19898 19577
          20009 19738 14109 25353 21379 23753
          19848 20746 24235 21182 23625 23593
          18432 24234 14760 16840 21219 18272
          24439 25082 23914 15391 19258 25083
          22318 22317 23466 18931 16994 18240
          19091 24714 22345 19407 15388 23424
          13472 23584 23926 20367 22184 15362
          23277 17484 23263 14602 23264 15205
          17645 14921 17485 19249 24263 14761
          15042 15364 22990 17793 16842 23768
          22989 22665 23115 24104 25560 17325
          13951 23418 24268 23257 20047 23417
          25562 23949 23789 17309 24267 18126
          23740 23739 23741 17966 15684 21293
          16669 21168 17154 16509 24886 21490
          24885 17320 20847 17615 21775 21330
          17616 25229 20811 21614 17454 15879
          24541 25041 25040 24702 24703 17293
          24542 25202 25381 25201 18441 18442
          17614 15880 25368 25207 25523 25524
          17133 25374 25532 24909 24856 25225
          24697 22767 22614 22774 21804 22125
          21965 21645 17931 22445 17930 19874
          21479 23539 22417 19393 21482 19233
          20195 23062 20194 19554 22416 23380
          15398 15397 22899 19385 19225 20343
          20341 21465 24686 20984 20824 21145
          20800 24527 25485 21281 24324 22565
          25166 20961 24813 21762 21602 22108
          25123 25281 25282 20643 24654 24192
          21947 24967 22243 23366 23206 23522
          24646 24965 23687 23364 24503 23548
          24041 24343 24202 18106
        </DataArray>
        <DataArray type="Int32" Name="CriticalType" format="ascii" RangeMin="0" RangeMax="4">
          0 0 0 0 0 0
          0 0 0 0 0 0
          0 0 0 1 0 0
          0 0 0 0 0 0
          0 0 0 1 0 0
          0 0 0 0 1 0
          0 0 0 0 0 0
          0 0 0 0 1 0
          0 0 0 0 0 0
          0 1 0 0 0 0
          0 1 0 1 0 0
          1 1 1 1 1 0
          1 0 0 0 1 1
          0 0 0 1 0 0
          0 1 0 1 0 1
          0 0 1 0 0 1
          0 1 0 1 1 1
          1 1 1 0 1 0
          0 1 1 1 0 1
          1 0 0 1 1 0
          0 1 0 1 1 0
          1 1 1 0 1 1
          1 0 0 1 1 0
          1 1 1 1 0 1
          1 0 0 1 1 1
          0 1 1 0 0 0
          0 0 1 1 0 0
          1 1 0 1 0 0
          1 1 1 0 1 1
          0 1 1 0 0 1
          1 1 1 1 0 0
          0 1 0 1 0 0
          1 0 0 1 1 1
          0 1 0 0 1 0
          1 1 1 1 1 4
          0 0 0 0 1 0
          0 0 0 1 0 0
          0 1 0 0 0 1
          0 0 0 1 0 0
          0 1 1 0 1 0
          0 1 1 0 1 0
          1 1 0 0 1 1
          1 0 0 0 1 1
          1 1 1 1 0 1
          0 1 1 1 0 0
          0 1 0 0 0 0
          0 0 0 0 0 0
          1 1 0 1 1 0
          0 0 1 1 1 1
          1 1 1 1 1 1
          0 1 0 1 0 0
          1 0 0 0 0 1
          0 0 1 0 0 0
          1 1 0 0 1 1
          4 1 0 1 0 1
          1 1 1 1 0 0
          1 0 1 1 1 1
          0 1 0 0 0 0
          1 1 1 1 0 1
          1 1 0 0 1 0
          0 1 1 0 1 0
          1 0 1 0 1 1
          0 0 1 1 0 0
          0 1 1 0 1 1
          1 1 1 0 1 1
          1 0 0 1 1 1
          0 1 0 0 0 0
          0 1 1 0 1 1
          1 0 1 0 1 0
          1 1 0 0 1 1
          0 1 1 0 0 1
          0 0 0 1 1 1
          1 1 1 0 0 1
          1 1 0 0 1 0
          1 0 1 0 1 0
          1 1 1 1 1 0
          0 0 1 0 1 1
          1 0 1 1 1 1
          0 0 1 0 1 0
          0 0 0 1 0 0
          0 1 0 0 0 1
          1 1 0 1 0 1
          1 1 1 0 0 0
          0 1 1 0 0 1
          1 1 1 1 0 1
          0 1 1 0 0 1
          1 1 0 0 1 0
          0 0 0 0 1 1
          0 0 0 1 0 1
          1 1 1 0 1 1
          1 1 1 1 0 1
          0 0 1 1 0 0
          1 1 0 0 0 0
          0 1 1 1 0 1
          1 1 0 1 0 1
          1 1 1 0 0 1
          1 1 0 1 0 1
          0 0 0 1 1 0
          0 0 0 1 1 1
          0 0 0 0 1 1
          0 1 0 1 1 0
          1 0 1 0 1 1
          0 1 1 0 0 1
          0 0 0 1 0 1
          0 1 0 0 0 1
          0 1 1 1 0 1
          1 0 1 0 0 0
          0 0 1 0 1 1
          1 1 1 1 0 1
          1 1 0 1 1 0
          1 0 1 0 1 0
          1 0 0 0 0 1
          0 0 0 1 1 1
          0 1 0 0 1 0
          0 1 0 1 0 0
          0 0 0 1 1 0
          1 0 1 1 1 0
          0 0 1 0 0 1
          1 0 1 1 1 1
          1 0 1 0 1 0
          0 0 0 0 1 0
          1 0 1 0 0 0
          0 0 1 1 1 1
          1 1 1 1 1 0
          1 1 1 1 1 0
          1 1 1 1 0 0
          0 0 1 0 1 1
          0 1 0 1 1 1
          1 1 0 0 0 0
          1 1 0 1 1 0
          0 0 0 1 1 1
          0 0 0 1 1 1
          0 1 0 1 1 0
          1 0 1 1 1 0
          1 0 0 1 1 1
          1 0 1 0 0 0
          0 1 1 0 1 0
          0 1 0 1 0 0
          0 0 1 0 1 0
          0 0 0 0 0 1
          1 1 1 1 0 0
          0 0 1 0 1 1
          0 1 1 0 0 1
          1 0 0 1 1 0
          1 0 0 1 1 0
          0 1 1 1 1 0
          0 1 0 0 1 1
          0 0 1 1 0 0
          0 1 1 0 0 0
          1 0 1 1 0 0
          1 0 1 0 0 1
          1 0 1 1 1 0
          0 1 0 1 1 0
          0 0 0 1 0 1
          0 0 1 0 1 1
          1 0 0 0 0 1
          0 0 1 0 0 0
          1 0 1 0 1 1
          0 0 0 1 1 1
          0 0 1 0 0 1
          1 0 0 0 1 0
          1 1 1 1 1 1
          0 1 0 1 0 1
          1 0 0 1 1 1
          0 1 1 0 1 0
          1 0 1 1 1 1
          0 0 1 1 0 0
          1 0 1 0 1 0
          1 1 0 0 1 1
          0 1 1 0 1 0
          0 0 1 0 1 1
          0 0 1 0 0 0
          0 1 1 1 1 0
          1 0 1 1 1 0
          0 0 1 1 0 0
          0 0 1 0 0 1
          0 0 0 0 0 1
          1 0 0 0 1 0
          1 0 1 1 0 1
          1 1 0 1 0 1
          0 0 0 0 0 1
          0 1 1 0 1 1
          0 1 0 1 1 1
          1 0 1 0 1 1
          0 0 0 1 0 0
          0 1 0 1 1 0
          0 1 1 1 1 0
          1 1 1 0 0 0
          0 0 1 0 0 1
          1 1 0 0 0 0
          1 1 0 1 0 1
          0 1 0 0 1 1
          1 0 1 1 1 1
          0 1 1 0 0 1
          1 1 0 0 1 0
          1 1 0 0 1 0
          0 0 0 1 1 0
          0 0 1 1 0 1
          1 1 0 1 1 1
          1 1 1 1 0 1
          1 0 0 0 1 1
          1 0 1 1 1 0
          0 1 1 1 1 0
          0 0 1 1 0 0
          1 1 1 0 0 1
          1 0 1 1 0 0
          0 0 1 0 1 0
          1 0 0 1 0 1
          1 1 0 1 0 1
          1 0 1 1 0 1
          1 0 0 1 0 0
          1 1 0 1 1 0
          0 0 0 0 1 1
          0 0 1 1 1 1
          0 1 1 0 1 0
          1 0 0 0 1 1
          0 1 0 0 0 0
          1 1 0 0 1 0
          0 0 1 1 1 0
          1 0 1 0 1 0
          1 1 1 1 0 1
          0 1 1 3
        </DataArray>
        <DataArray type="Int32" Name="RegionSize" format="ascii" RangeMin="0" RangeMax="578">
          3 0 1 3 0 2
          0 2 0 2 0 1
          2 0 2 15 24 1
          1 13 4 2 4 3
          1 1 3 3 9 2
          0 1 0 1 5 0
          16 1 0 2 9 6
          0 2 3 0 3 2
          0 0 0 0 1 0
          0 18 5 1 1 0
          0 1 2 5 1 0
          0 14 1 14 13 6
          5 0 1 0 9 1
          0 0 0 9 1 0
          3 1 1 0 0 1
          0 7 1 0 0 12
          1 9 0 2 1 1
          0 1 0 0 1 1
          5 0 11 4 0 4
          9 0 3 0 11 0
          0 13 0 17 4 17
          9 4 2 0 0 18
          35 0 1 2 1 2
          2 11 24 1 1 12
          6 9 0 1 22 16
          26 0 16 2 0 36
          0 0 9 59 8 0
          0 184 6 2 0 0
          11 15 21 1 3 19
          0 3 33 0 0 3
          0 27 3 4 0 17
          0 35 2 10 9 1
          16 3 0 21 3 11
          22 47 0 0 11 0
          12 0 1 54 21 8
          2 0 18 4 51 1
          3 1 0 66 1 0
          1 2 1 5 1 4
          22 2 1 23 0 2
          0 9 0 0 33 0
          1 17 0 14 3 1
          5 55 0 1 165 1
          10 0 1 0 15 1
          4 13 28 17 5 34
          3 185 0 11 0 0
          0 9 0 0 1 2
          0 0 1 1 0 10
          0 20 0 39 8 19
          1 2 34 0 21 4
          3 2 51 4 16 14
          0 16 3 0 1 1
          158 0 1 1 15 4
          5 0 3 3 0 4
          0 21 0 18 1 0
          0 3 6 5 0 8
          6 9 69 8 7 1
          101 4 0 131 52 1
          0 11 1 0 1 0
          0 11 2 77 1 2
          2 9 2 1 7 0
          2 9 18 0 4 0
          65 0 7 1 4 89
          1 3 0 0 3 1
          0 13 1 0 5 0
          47 23 29 0 5 85
          5 4 4 0 77 28
          0 11 0 2 4 0
          1 6 3 3 2 18
          2 0 24 4 0 2
          78 56 1 1 3 5
          2 205 4 0 1 10
          1 2 0 44 7 6
          69 57 12 0 2 21
          130 6 0 0 10 1
          0 1 4 8 33 0
          20 5 11 14 48 0
          2 0 7 0 49 11
          8 3 2 61 9 62
          0 0 92 1 6 0
          5 8 1 29 1 4
          5 45 4 7 0 2
          82 5 1 9 0 1
          72 4 40 0 1 8
          0 10 8 0 0 0
          33 55 39 0 0 20
          1 54 92 0 0 79
          1 13 1 0 4 0
          3 0 1 3 69 1
          2 0 1 79 2 1
          13 2 66 0 32 18
          3 7 1 95 0 2
          3 3 33 18 1 0
          7 171 1 3 1 0
          10 6 18 55 0 23
          86 1 15 26 9 0
          0 5 271 0 0 19
          8 24 0 97 2 22
          1 5 0 134 23 3
          0 1 1 2 48 10
          0 0 0 4 114 17
          1 5 1 1 76 0
          4 0 8 8 5 54
          14 15 73 0 1 267
          1 1 0 12 2 12
          0 66 3 0 0 31
          0 11 48 1 0 23
          32 0 84 2 1 1
          1 0 21 0 3 32
          48 3 126 9 10 20
          0 13 0 13 41 0
          20 2 55 0 24 0
          146 2 1 14 1 83
          1 4 2 8 0 162
          11 8 0 0 59 0
          0 30 1 71 25 0
          13 0 0 12 52 0
          29 0 69 1 50 10
          0 0 25 0 0 18
          3 0 20 0 4 1
          45 0 11 4 221 0
          0 10 4 8 74 1
          268 2 11 1 1 2
          0 3 13 7 37 1
          2 8 25 27 77 0
          10 10 4 3 140 6
          0 33 196 2 0 1
          2 0 36 1 0 34
          0 21 0 45 48 90
          62 297 5 2 1 3
          8 22 0 66 72 2
          3 2 0 11 33 91
          0 0 0 1 19 13
          1 166 1 7 1 0
          5 0 15 1 52 1
          178 0 0 1 124 4
          103 0 102 11 1 0
          10 19 30 1 42 0
          16 84 1 168 3 3
          3 1 56 4 211 4
          2 0 1 1 12 0
          38 34 185 4 0 0
          9 1 20 0 2 21
          13 133 1 0 2 131
          13 2 1 51 15 2
          35 2 3 11 26 23
          0 0 38 1 72 2
          4 35 0 9 31 107
          1 0 1 41 1 11
          12 13 111 2 3 1
          18 0 16 63 0 1
          0 2 67 0 1 10
          32 0 13 97 2 1
          11 28 0 4 63 5
          1 11 6 58 0 105
          1 5 46 15 53 22
          37 11 19 30 1 105
          1 1 6 0 0 0
          8 1 34 2 0 141
          5 1 7 4 11 6
          7 1 145 6 0 3
          2 6 1 3 46 0
          25 46 1 39 6 46
          6 6 0 5 2 10
          29 2 35 11 38 21
          0 99 23 0 26 1
          42 0 9 10 8 17
          0 10 91 104 6 0
          298 4 0 1 28 1
          67 9 2 4 10 9
          0 6 112 6 15 4
          0 0 12 0 9 47
          1 0 41 2 0 1
          0 30 23 11 14 0
          53 0 1 43 69 1
          0 2 37 153 10 4
          1 0 46 0 2 8
          1 9 0 1 0 24
          87 0 0 3 0 0
          7 3 5 85 3 3
          1 9 2 11 28 69
          10 2 0 0 1 5
          1 7 36 0 9 5
          0 8 0 2 19 49
          0 1 31 16 24 113
          0 0 2 120 4 6
          0 0 0 3 16 1
          1 0 4 9 27 7
          10 29 52 4 0 0
          0 0 156 0 1 1
          1 15 13 12 1 1
          21 45 0 17 2 12
          0 10 3 2 15 6
          49 1 5 4 15 32
          0 90 17 0 2 90
          35 38 1 7 45 0
          13 45 7 7 144 3
          6 0 0 6 33 0
          0 0 6 14 3 7
          4 6 0 7 56 43
          2 20 32 44 2 59
          75 0 1 0 62 4
          15 0 47 12 52 0
          0 0 22 34 265 8
          0 4 6 76 0 0
          44 15 35 0 2 11
          126 15 18 65 0 0
          0 0 2 0 7 0
          26 0 14 20 0 8
          19 52 1 53 0 42
          174 3 14 58 2 56
          40 16 0 289 1 0
          6 3 0 17 93 2
          3 7 2 0 5 58
          1 2 1 6 106 19
          0 53 171 0 10 1
          52 2 7 0 29 37
          2 33 2 2 32 15
          108 3 2 0 14 2
          0 1 7 9 34 33
          82 4 14 1 17 7
          0 7 76 91 1 20
          1 22 578 578
        </DataArray>
        <DataArray type="Int32" Name="RegionSpan" format="ascii" RangeMin="1" RangeMax="196">
          1 1 2 2 1 1
          1 2 1 1 1 1
          1 1 1 3 4 1
          1 4 1 2 3 3
          1 1 2 2 3 1
          1 1 1 1 1 1
          3 1 1 1 2 2
          1 3 2 1 2 1
          1 1 1 1 1 1
          1 3 2 1 1 1
          1 2 2 3 2 1
          2 4 4 3 4 1
          6 1 1 1 2 4
          1 1 1 3 1 1
          1 5 1 2 1 3
          1 2 2 1 1 2
          1 4 1 1 3 2
          1 8 1 1 3 1
          2 7 3 4 1 7
          3 1 1 2 7 1
          1 3 1 4 8 2
          2 3 4 1 9 17
          6 1 2 2 2 2
          2 3 4 6 2 4
          10 2 1 15 14 5
          4 16 17 2 1 7
          1 1 1 20 3 1
          2 5 5 8 1 1
          18 9 8 1 3 16
          1 2 17 1 1 5
          2 14 7 10 1 3
          1 16 2 24 3 1
          43 1 1 30 5 31
          4 32 1 1 5 1
          2 6 2 10 9 1
          2 1 5 2 2 1
          2 1 1 35 1 1
          2 3 1 2 1 8
          2 1 1 51 1 2
          1 2 4 1 44 1
          1 11 2 3 4 1
          4 21 1 2 28 5
          6 1 1 1 9 3
          36 10 15 15 3 27
          2 31 5 7 1 1
          1 3 1 1 1 2
          1 1 1 1 1 3
          4 8 1 12 5 4
          2 1 6 2 21 2
          9 1 15 5 13 4
          1 11 2 2 1 2
          10 1 2 1 3 23
          1 1 28 2 1 1
          3 2 1 1 3 16
          1 3 2 3 1 2
          21 16 12 13 3 1
          4 2 49 46 40 3
          1 5 1 1 2 1
          25 22 6 24 2 4
          2 5 1 1 5 1
          3 3 10 1 2 1
          5 1 4 1 12 22
          1 2 1 2 1 1
          1 20 3 1 2 4
          33 4 15 1 2 52
          3 3 2 3 52 18
          1 25 1 2 2 1
          1 10 3 3 1 48
          1 1 12 2 2 1
          2 6 1 1 5 3
          1 28 2 1 1 4
          1 2 1 5 2 2
          16 10 3 1 2 22
          6 3 1 1 2 1
          2 1 34 2 37 1
          3 4 40 31 73 1
          2 1 19 1 24 30
          46 1 65 35 56 15
          1 1 34 1 2 1
          2 2 1 2 1 3
          3 69 3 3 1 47
          48 2 1 29 1 4
          24 2 1 1 1 3
          1 3 7 1 1 50
          85 4 30 1 1 8
          1 95 17 1 1 49
          2 6 1 1 4 1
          2 1 1 1 35 1
          1 1 1 57 3 2
          3 4 14 1 4 5
          3 6 2 24 1 2
          1 1 4 10 1 1
          5 33 1 2 1 1
          2 2 46 3 1 81
          79 3 4 11 2 2
          1 10 64 1 1 12
          5 7 1 8 2 13
          1 2 1 117 30 2
          1 1 1 17 45 20
          1 1 1 2 138 17
          1 8 1 14 6 1
          10 1 11 2 93 32
          3 10 8 1 1 57
          2 1 1 18 1 21
          1 3 1 1 1 3
          1 58 49 2 1 53
          72 1 8 2 1 1
          2 1 7 1 49 64
          74 2 125 22 3 6
          22 14 1 113 67 1
          4 2 58 1 4 1
          101 1 1 6 1 16
          2 2 2 140 31 31
          4 4 1 1 162 1
          1 23 1 121 3 1
          5 1 1 117 119 1
          116 1 78 67 117 2
          1 1 45 1 1 128
          7 1 76 1 3 53
          116 1 4 2 80 1
          1 2 1 3 72 1
          138 1 9 1 1 2
          1 2 6 133 45 4
          3 56 7 91 146 1
          4 5 51 147 150 3
          3 50 68 1 1 1
          1 1 12 1 39 38
          1 60 1 8 178 28
          116 56 3 2 2 2
          69 123 1 115 112 2
          1 2 1 114 118 124
          1 1 1 1 158 37
          1 118 1 2 3 1
          120 1 147 5 195 1
          196 1 1 1 69 3
          114 1 50 3 1 1
          2 30 28 1 53 1
          4 101 1 5 1 1
          2 1 45 2 61 3
          1 1 1 2 3 6
          69 3 62 3 1 1
          3 1 99 1 2 62
          4 89 2 1 1 89
          2 2 1 11 84 1
          20 1 1 61 68 3
          1 3 147 151 16 2
          2 86 1 3 122 25
          1 1 4 61 1 2
          3 68 70 1 1 1
          4 1 24 144 1 1
          2 1 134 1 1 102
          74 1 20 30 3 1
          3 6 1 5 49 1
          2 3 2 106 1 30
          1 2 29 2 84 41
          86 3 3 9 1 33
          2 1 2 1 1 1
          2 1 10 1 1 3
          1 1 3 1 6 2
          2 1 70 2 1 4
          3 2 1 1 2 1
          40 5 35 140 4 87
          2 2 1 4 1 3
          38 2 7 26 59 4
          1 93 9 1 44 1
          72 1 16 21 19 19
          1 3 74 31 3 1
          53 1 3 2 52 1
          57 12 1 2 2 81
          1 75 7 2 5 2
          1 1 3 1 65 57
          1 1 16 2 1 1
          1 23 16 6 5 1
          36 1 2 62 100 1
          1 1 4 61 3 2
          1 1 5 1 1 3
          1 3 1 1 1 4
          84 1 1 2 2 1
          5 1 4 41 2 3
          2 4 1 7 5 14
          3 1 1 1 1 6
          1 20 75 1 7 2
          1 2 1 69 8 5
          3 1 36 4 31 10
          1 1 1 24 2 2
          1 3 1 5 6 1
          1 2 35 26 2 2
          2 46 18 1 1 1
          1 1 47 1 1 1
          1 3 2 4 1 1
          12 44 1 18 1 30
          1 2 2 2 28 3
          45 1 33 3 74 49
          1 32 4 1 1 16
          41 74 1 2 12 1
          70 41 2 2 77 2
          2 1 1 58 29 1
          1 1 1 29 1 39
          2 39 1 5 62 18
          4 30 29 72 2 25
          41 1 1 1 82 2
          17 1 3 5 46 1
          1 2 39 44 25 3
          1 2 6 76 1 1
          65 23 4 1 1 41
          20 2 5 69 1 1
          1 1 17 1 1 1
          19 1 4 57 1 28
          28 74 1 3 1 88
          94 2 17 4 1 48
          12 2 1 11 1 1
          2 5 1 44 38 2
          3 1 1 1 16 2
          1 2 4 25 48 3
          1 50 23 1 8 2
          4 2 1 1 2 30
          1 4 2 2 2 2
          51 4 1 1 6 1
          1 1 3 27 21 5
          24 2 6 1 3 2
          2 8 3 24 1 7
          1 19 41 41
        </DataArray>
      </PointData>
      <CellData>
      </CellData>
      <Points>
        <DataArray type="Float32" Name="Points" NumberOfComponents="3" format="ascii" RangeMin="1" RangeMax="221.35265979879256">
          145 17 0 143 18 0
          139 0 0 107 74 0
          133 5 0 41 55 0
          112 16 0 125 64 0
          133 80 0 43 56 0
          111 15 0 124 77 0
          135 6 0 131 82 0
          131 5 0 144 18 0
          48 64 0 125 69 0
          122 76 0 27 40 0
          54 47 0 128 15 0
          108 62 0 99 73 0
          149 9 0 68 8 0
          143 34 0 134 5 0
          127 24 0 69 9 0
          113 62 0 146 1 0
          109 9 0 110 1 0
          112 15 0 135 18 0
          60 78 0 64 6 0
          116 12 0 53 45 0
          138 11 0 156 13 0
          136 1 0 113 11 0
          133 16 0 99 59 0
          137 1 0 109 11 0
          97 57 0 135 79 0
          98 58 0 121 75 0
          66 7 0 124 79 0
          129 82 0 132 4 0
          132 63 0 126 81 0
          159 16 0 145 0 0
          140 37 0 122 75 0
          142 13 0 141 36 0
          117 75 0 108 2 0
          132 81 0 146 0 0
          130 82 0 135 17 0
          112 14 0 131 73 0
          134 80 0 117 13 0
          102 74 0 125 80 0
          117 12 0 124 76 0
          130 12 0 122 64 0
          120 73 0 143 15 0
          109 7 0 100 60 0
          133 77 0 120 74 0
          63 4 0 109 10 0
          114 75 0 125 81 0
          104 74 0 121 14 0
          105 74 0 61 1 0
          61 3 0 140 13 0
          139 15 0 135 3 0
          130 0 0 61 2 0
          128 81 0 129 13 0
          124 78 0 125 79 0
          103 74 0 110 75 0
          115 75 0 124 14 0
          155 2 0 102 73 0
          109 75 0 123 64 0
          96 56 0 138 14 0
          109 1 0 131 1 0
          126 11 0 67 7 0
          137 7 0 131 10 0
          134 10 0 133 78 0
          128 20 0 42 55 0
          131 2 0 127 32 0
          128 21 0 135 9 0
          68 9 0 140 33 0
          132 9 0 138 16 0
          141 33 0 94 54 0
          148 11 0 123 14 0
          62 3 0 114 2 0
          109 8 0 125 12 0
          158 15 0 112 75 0
          159 0 0 115 11 0
          130 1 0 54 0 0
          133 74 0 133 75 0
          118 74 0 157 0 0
          110 30 0 130 11 0
          142 0 0 91 50 0
          91 54 0 72 64 0
          129 18 0 95 55 0
          129 19 0 128 10 0
          132 35 0 93 53 0
          63 5 0 132 74 0
          122 30 0 64 7 0
          73 10 0 135 63 0
          148 13 0 111 10 0
          130 19 0 146 31 0
          112 2 0 126 27 0
          57 0 0 53 46 0
          72 10 0 116 0 0
          115 3 0 134 63 0
          115 2 0 120 12 0
          115 0 0 135 35 0
          31 41 0 129 45 0
          128 1 0 145 32 0
          105 14 0 129 1 0
          139 24 0 92 52 0
          153 3 0 134 27 0
          50 46 0 110 5 0
          51 45 0 125 31 0
          56 63 0 148 10 0
          54 51 0 126 67 0
          31 40 0 49 45 0
          56 0 0 54 50 0
          126 68 0 129 36 0
          49 46 0 92 53 0
          101 24 0 136 28 0
          113 48 0 99 13 0
          133 26 0 101 61 0
          158 9 0 127 70 0
          32 42 0 135 28 0
          115 27 0 106 6 0
          103 62 0 127 66 0
          37 54 0 156 40 0
          47 55 0 46 56 0
          34 59 0 50 55 0
          58 5 0 107 6 0
          59 6 0 125 40 0
          115 25 0 115 26 0
          157 11 0 57 56 0
          158 7 0 132 30 0
          150 28 0 126 38 0
          59 5 0 84 52 0
          58 0 0 102 14 0
          133 29 0 137 27 0
          26 44 0 126 47 0
          57 4 0 27 44 0
          129 63 0 125 44 0
          152 12 0 134 31 0
          38 54 0 126 43 0
          153 13 0 129 41 0
          134 32 0 32 41 0
          159 35 0 128 46 0
          110 82 0 149 28 0
          51 55 0 56 56 0
          81 66 0 82 67 0
          154 43 0 81 67 0
          118 63 0 107 49 0
          106 41 0 58 59 0
          47 52 0 88 49 0
          116 62 0 121 42 0
          107 81 0 155 59 0
          155 42 0 108 81 0
          108 51 0 127 71 0
          113 27 0 65 57 0
          63 67 0 16 40 0
          157 38 0 47 53 0
          121 43 0 89 49 0
          49 55 0 108 49 0
          115 22 0 52 64 0
          65 67 0 58 57 0
          105 40 0 109 50 0
          62 65 0 105 41 0
          108 44 0 115 37 0
          117 37 0 35 51 0
          104 44 0 50 68 0
          1 39 0 57 61 0
          96 12 0 75 53 0
          35 52 0 118 82 0
          107 43 0 109 41 0
          105 62 0 60 65 0
          74 52 0 22 68 0
          93 54 0 78 66 0
          106 43 0 107 44 0
          93 31 0 103 15 0
          45 51 0 74 53 0
          62 66 0 46 51 0
          49 67 0 119 80 0
          159 29 0 103 0 0
          17 41 0 62 59 0
          120 47 0 104 0 0
          127 69 0 108 41 0
          112 41 0 111 42 0
          69 59 0 84 69 0
          114 64 0 159 44 0
          60 61 0 84 68 0
          69 58 0 63 59 0
          93 5 0 87 50 0
          116 63 0 102 62 0
          114 66 0 112 36 0
          91 51 0 92 28 0
          98 30 0 92 29 0
          108 46 0 86 71 0
          87 71 0 100 27 0
          113 37 0 94 2 0
          94 3 0 105 11 0
          158 44 0 85 70 0
          147 49 0 92 12 0
          95 56 0 100 26 0
          132 56 0 94 26 0
          107 68 0 159 32 0
          114 62 0 114 42 0
          94 55 0 95 31 0
          113 42 0 93 27 0
          107 69 0 59 74 0
          59 75 0 116 82 0
          114 65 0 137 53 0
          83 0 0 105 12 0
          106 9 0 96 57 0
          83 7 0 148 49 0
          82 19 0 93 9 0
          100 65 0 157 22 0
          98 27 0 82 18 0
          94 7 0 47 0 0
          82 8 0 72 53 0
          94 10 0 82 6 0
          82 7 0 74 20 0
          97 12 0 68 18 0
          119 63 0 95 10 0
          157 26 0 118 66 0
          157 21 0 156 26 0
          97 63 0 159 26 0
          97 27 0 131 58 0
          71 19 0 76 18 0
          71 32 0 102 19 0
          70 31 0 71 31 0
          131 57 0 119 65 0
          99 28 0 117 63 0
          72 19 0 107 65 0
          142 51 0 69 19 0
          107 66 0 98 64 0
          85 4 0 86 5 0
          83 2 0 159 64 0
          86 4 0 27 1 0
          84 4 0 158 104 0
          50 0 0 28 2 0
          28 1 0 140 52 0
          101 66 0 61 73 0
          34 57 0 32 64 0
          51 14 0 87 6 0
          87 5 0 77 23 0
          77 22 0 107 64 0
          78 55 0 53 72 0
          32 63 0 97 58 0
          144 50 0 101 13 0
          10 28 0 9 27 0
          132 59 0 54 12 0
          10 27 0 135 56 0
          154 102 0 81 26 0
          90 1 0 55 11 0
          149 101 0 159 95 0
          45 41 0 91 1 0
          47 72 0 4 46 0
          0 43 0 98 59 0
          52 71 0 156 103 0
          8 46 0 53 12 0
          159 100 0 83 27 0
          79 25 0 0 42 0
          135 55 0 9 47 0
          0 46 0 79 32 0
          150 102 0 9 46 0
          158 101 0 51 23 0
          52 24 0 99 60 0
          50 72 0 52 23 0
          134 55 0 150 101 0
          137 85 0 151 102 0
          14 45 0 136 85 0
          88 2 0 90 19 0
          158 62 0 89 19 0
          1 46 0 0 44 0
          99 83 0 13 25 0
          76 33 0 141 88 0
          122 57 0 15 46 0
          143 89 0 124 58 0
          46 44 0 15 45 0
          17 27 0 138 86 0
          18 0 0 79 30 0
          14 0 0 158 61 0
          12 26 0 17 0 0
          100 83 0 115 87 0
          159 98 0 158 63 0
          124 57 0 6 46 0
          142 88 0 114 87 0
          32 1 0 14 44 0
          155 98 0 17 25 0
          12 45 0 31 1 0
          12 52 0 120 57 0
          121 57 0 138 85 0
          22 29 0 22 26 0
          20 28 0 11 50 0
          40 38 0 11 49 0
          125 54 0 11 51 0
          93 20 0 92 21 0
          140 87 0 21 28 0
          1 64 0 21 0 0
          23 33 0 18 28 0
          16 26 0 155 99 0
          103 17 0 144 100 0
          147 53 0 145 100 0
          15 26 0 20 26 0
          15 52 0 14 52 0
          154 93 0 156 94 0
          140 64 0 12 31 0
          9 0 0 42 39 0
          10 0 0 159 89 0
          159 48 0 142 98 0
          9 23 0 143 98 0
          159 47 0 159 91 0
          145 91 0 116 56 0
          140 97 0 0 32 0
          145 90 0 140 98 0
          47 24 0 14 30 0
          138 96 0 22 31 0
          9 24 0 155 90 0
          156 90 0 149 97 0
          149 98 0 88 84 0
          40 0 0 115 56 0
          54 89 0 138 97 0
          48 24 0 93 81 0
          159 112 0 94 81 0
          159 56 0 22 52 0
          148 95 0 148 96 0
          94 37 0 159 111 0
          150 57 0 22 51 0
          5 31 0 151 58 0
          147 93 0 148 93 0
          92 84 0 151 91 0
          93 83 0 150 58 0
          139 102 0 139 64 0
          93 36 0 135 94 0
          136 94 0 132 94 0
          24 55 0 21 55 0
          0 73 0 26 53 0
          6 30 0 156 53 0
          140 102 0 146 53 0
          90 84 0 25 53 0
          157 52 0 23 54 0
          128 91 0 158 58 0
          11 35 0 22 55 0
          3 73 0 32 45 0
          134 94 0 98 37 0
          2 73 0 155 83 0
          97 37 0 1 59 0
          1 60 0 125 89 0
          124 89 0 104 35 0
          12 71 0 159 75 0
          40 8 0 53 17 0
          9 72 0 133 102 0
          28 29 0 39 8 0
          156 85 0 125 90 0
          49 93 0 11 72 0
          154 82 0 149 56 0
          155 82 0 27 22 0
          33 27 0 0 34 0
          121 94 0 4 57 0
          63 86 0 84 86 0
          24 17 0 153 81 0
          43 17 0 120 94 0
          27 23 0 124 94 0
          123 94 0 83 85 0
          26 29 0 104 36 0
          154 81 0 17 14 0
          143 65 0 48 32 0
          48 31 0 12 60 0
          21 66 0 12 59 0
          21 67 0 102 31 0
          134 100 0 150 56 0
          83 86 0 101 31 0
          142 65 0 42 16 0
          42 17 0 8 69 0
          32 27 0 62 18 0
          148 55 0 10 17 0
          96 47 0 5 18 0
          86 87 0 11 68 0
          63 18 0 3 12 0
          15 71 0 99 40 0
          56 36 0 59 91 0
          159 119 0 150 85 0
          19 16 0 159 118 0
          55 35 0 57 91 0
          10 68 0 100 41 0
          62 83 0 61 90 0
          152 86 0 1 11 0
          2 11 0 8 17 0
          7 67 0 25 19 0
          159 81 0 94 43 0
          6 72 0 9 70 0
          3 20 0 149 55 0
          66 45 0 150 118 0
          58 38 0 59 41 0
          66 46 0 127 102 0
          57 37 0 96 40 0
          37 27 0 58 42 0
          0 24 0 1 23 0
          4 15 0 151 117 0
          127 101 0 46 17 0
          1 0 0 131 108 0
          151 61 0 145 79 0
          95 46 0 131 106 0
          41 20 0 36 27 0
          148 54 0 120 102 0
          152 125 0 159 131 0
          44 12 0 41 19 0
          122 100 0 44 11 0
          0 20 0 147 81 0
          35 37 0 147 80 0
          148 80 0 1 20 0
          156 129 0 34 38 0
          151 123 0 157 130 0
          151 124 0 35 31 0
          151 59 0 153 127 0
          34 31 0 151 121 0
          153 126 0 36 21 0
          4 0 0 36 23 0
          154 128 0 155 128 0
          154 127 0 36 22 0
          152 58 0 39 76 0
          39 75 0 45 96 0
          41 22 0 63 37 0
          159 150 0 36 25 0
          64 37 0 147 126 0
          41 21 0 90 43 0
          29 73 0 90 42 0
          48 89 0 148 125 0
          143 121 0 156 68 0
          150 70 0 147 75 0
          144 121 0 159 154 0
          148 76 0 154 147 0
          142 59 0 152 65 0
          148 68 0 159 139 0
          11 120 0 159 152 0
          159 137 0 157 146 0
          157 68 0 49 89 0
          97 52 0 153 66 0
          22 115 0 153 135 0
          96 53 0 141 73 0
          152 66 0 153 134 0
          151 159 0 140 73 0
          148 69 0 139 70 0
          155 142 0 52 91 0
          155 143 0 139 128 0
          49 82 0 139 69 0
          141 58 0 12 76 0
          157 141 0 149 138 0
          146 137 0 141 128 0
          147 67 0 59 103 0
          145 139 0 145 138 0
          147 135 0 12 75 0
          150 137 0 154 152 0
          6 78 0 156 152 0
          40 25 0 126 118 0
          154 66 0 32 70 0
          3 79 0 101 53 0
          4 79 0 8 78 0
          144 142 0 146 154 0
          5 121 0 39 25 0
          102 53 0 133 123 0
          24 102 0 17 77 0
          129 118 0 134 120 0
          133 120 0 145 141 0
          17 75 0 140 131 0
          17 76 0 90 97 0
          17 74 0 116 112 0
          147 157 0 139 131 0
          49 81 0 91 99 0
          117 111 0 134 122 0
          91 98 0 92 101 0
          19 103 0 91 101 0
          109 104 0 147 158 0
          109 105 0 20 108 0
          26 99 0 133 145 0
          134 131 0 60 100 0
          49 85 0 151 155 0
          22 111 0 138 148 0
          136 129 0 30 112 0
          147 156 0 88 95 0
          48 86 0 135 157 0
          45 104 0 76 104 0
          126 124 0 126 123 0
          22 100 0 129 143 0
          130 143 0 135 150 0
          139 142 0 143 151 0
          136 149 0 138 144 0
          143 152 0 84 103 0
          140 142 0 139 143 0
          134 152 0 127 145 0
          11 86 0 24 100 0
          128 144 0 134 147 0
          117 120 0 49 99 0
          136 145 0 122 134 0
          85 104 0 84 104 0
          23 101 0 97 105 0
          82 98 0 133 159 0
          83 98 0 123 131 0
          83 100 0 8 121 0
          119 119 0 134 151 0
          122 132 0 11 83 0
          42 86 0 48 98 0
          98 108 0 20 100 0
          78 114 0 22 112 0
          96 103 0 7 86 0
          86 135 0 125 129 0
          134 154 0 77 113 0
          24 97 0 97 108 0
          24 98 0 118 125 0
          7 84 0 79 118 0
          50 97 0 124 139 0
          117 125 0 125 139 0
          78 117 0 134 158 0
          133 139 0 9 105 0
          134 139 0 71 99 0
          3 108 0 45 83 0
          45 82 0 81 123 0
          21 109 0 23 92 0
          80 122 0 83 127 0
          44 84 0 19 106 0
          87 111 0 18 96 0
          83 126 0 84 128 0
          16 85 0 15 85 0
          86 110 0 2 89 0
          23 94 0 92 117 0
          35 87 0 36 88 0
          36 87 0 139 159 0
          91 115 0 140 159 0
          0 110 0 104 113 0
          105 113 0 32 98 0
          90 120 0 112 122 0
          64 113 0 90 119 0
          113 121 0 6 106 0
          19 98 0 99 114 0
          98 114 0 63 112 0
          64 112 0 62 112 0
          4 88 0 101 117 0
          17 93 0 6 115 0
          18 93 0 100 117 0
          66 134 0 34 92 0
          70 124 0 42 94 0
          0 109 0 71 126 0
          30 107 0 71 125 0
          105 125 0 76 130 0
          104 123 0 70 140 0
          69 139 0 104 124 0
          43 94 0 67 125 0
          73 139 0 115 135 0
          70 139 0 68 138 0
          68 125 0 75 126 0
          72 139 0 117 135 0
          90 126 0 76 127 0
          68 137 0 73 126 0
          68 118 0 68 139 0
          69 151 0 77 124 0
          96 147 0 66 141 0
          42 101 0 21 89 0
          70 135 0 21 90 0
          13 93 0 91 124 0
          75 136 0 69 119 0
          43 101 0 68 119 0
          36 112 0 15 90 0
          64 140 0 14 92 0
          6 116 0 69 135 0
          65 140 0 36 109 0
          68 140 0 106 133 0
          100 123 0 69 121 0
          35 111 0 69 130 0
          91 148 0 69 131 0
          55 122 0 106 144 0
          90 146 0 90 147 0
          71 146 0 93 148 0
          35 90 0 70 144 0
          65 119 0 35 110 0
          90 144 0 66 118 0
          69 144 0 61 130 0
          35 112 0 71 145 0
          50 104 0 118 151 0
          9 126 0 60 120 0
          30 96 0 8 125 0
          60 119 0 57 123 0
          58 124 0 57 122 0
          9 125 0 58 123 0
          29 88 0 73 158 0
          99 133 0 73 148 0
          8 124 0 106 129 0
          75 151 0 62 132 0
          105 147 0 73 147 0
          32 115 0 74 151 0
          40 92 0 40 105 0
          99 132 0 32 114 0
          119 152 0 122 156 0
          74 149 0 31 96 0
          58 120 0 123 156 0
          78 139 0 77 139 0
          106 146 0 51 118 0
          34 106 0 0 114 0
          51 119 0 74 154 0
          105 139 0 47 121 0
          28 96 0 64 146 0
          32 84 0 64 147 0
          86 149 0 47 127 0
          104 138 0 2 96 0
          77 145 0 44 109 0
          63 145 0 42 91 0
          64 145 0 5 95 0
          45 110 0 41 93 0
          45 109 0 49 120 0
          103 151 0 41 92 0
          2 94 0 4 96 0
          110 143 0 33 111 0
          42 105 0 88 148 0
          109 143 0 105 141 0
          75 144 0 104 150 0
          120 159 0 45 108 0
          31 87 0 58 146 0
          108 151 0 57 145 0
          47 125 0 57 146 0
          122 159 0 109 149 0
          109 148 0 29 108 0
          107 151 0 46 113 0
          60 148 0 59 148 0
          61 148 0 46 112 0
          4 98 0 13 133 0
          29 104 0 48 132 0
          34 107 0 29 103 0
          86 155 0 50 134 0
          85 155 0 40 108 0
          47 130 0 15 110 0
          15 136 0 50 133 0
          16 110 0 109 157 0
          11 130 0 14 135 0
          14 109 0 39 99 0
          61 153 0 81 156 0
          80 156 0 62 154 0
          63 154 0 13 108 0
          62 153 0 82 157 0
          101 158 0 81 157 0
          41 115 0 42 115 0
          14 110 0 40 99 0
          88 158 0 87 157 0
          83 159 0 84 159 0
          13 107 0 94 158 0
          92 159 0 109 155 0
          56 155 0 105 157 0
          57 154 0 47 142 0
          54 141 0 54 142 0
          44 136 0 45 138 0
          45 137 0 45 135 0
          11 112 0 45 140 0
          10 112 0 34 124 0
          39 134 0 19 147 0
          17 140 0 33 121 0
          42 134 0 33 120 0
          35 126 0 22 144 0
          34 126 0 34 122 0
          16 140 0 20 146 0
          38 96 0 37 96 0
          19 143 0 25 121 0
          25 120 0 23 127 0
          21 127 0 25 134 0
          46 154 0 24 131 0
          24 130 0 25 132 0
          0 130 0 47 153 0
          45 159 0 1 133 0
          4 152 0 5 141 0
          46 157 0 1 131 0
          13 155 0 2 136 0
          2 135 0 28 138 0
          3 157 0 1 158 0
          2 158 0 3 129 0
          14 154 0 32 151 0
          27 137 0 7 156 0
          3 139 0 6 146 0
          6 145 0 2 147 0
          6 154 0 5 156 0
          7 148 0 4 146 0
          23 153 0 28 147 0
          41 150 0 23 152 0
          42 151 0 26 113 0
          <InformationKey name="L2_NORM_RANGE" location="vtkDataArray" length="2">
            <Value index="0">
              1
            </Value>
            <Value index="1">
              221.3526598
            </Value>
          </InformationKey>
        </DataArray>
      </Points>
      <Cells>
        <DataArray type="Int64" Name="connectivity" format="ascii" RangeMin="0" RangeMax="1329">
          0 1 2 3 4 5
          6 7 8 9 10 11
          12 13 14 15 16 17
          18 19 20 21 22 23
          24 25 26 27 28 29
          30 31 32 33 34 35
          36 37 38 39 40 41
          42 43 44 45 46 47
          48 49 50 51 52 53
          54 55 56 57 58 59
          60 61 62 63 64 65
          66 67 68 69 70 71
          72 73 74 75 76 77
          78 79 80 81 82 83
          84 85 86 87 88 89
          90 91 92 93 94 95
          96 97 98 99 100 101
          102 103 104 105 106 107
          108 109 110 111 112 113
          114 115 116 117 118 119
          120 121 122 123 124 125
          126 127 128 129 130 131
          132 133 134 135 136 137
          138 139 140 141 142 143
          144 145 146 147 148 149
          150 151 152 153 154 155
          156 157 158 159 160 161
          162 163 164 165 166 167
          168 169 170 171 172 173
          174 175 176 177 178 179
          180 181 182 183 184 185
          186 187 188 189 190 191
          192 193 194 195 196 197
          198 199 200 201 202 203
          204 205 206 207 208 209
          210 211 212 213 214 215
          216 217 218 219 220 221
          222 223 224 225 226 227
          228 229 230 231 232 233
          234 235 236 237 238 239
          240 241 242 243 244 245
          246 247 248 249 250 251
          252 253 254 255 256 257
          258 259 260 261 262 263
          264 265 266 267 268 269
          270 271 272 273 274 275
          276 277 278 279 280 281
          282 283 284 285 286 287
          288 289 290 291 292 293
          294 295 296 297 298 299
          300 301 302 303 304 305
          306 307 308 309 310 311
          312 313 314 315 316 317
          318 319 320 321 322 323
          324 325 326 327 328 329
          330 331 332 333 334 335
          336 337 338 339 340 341
          342 343 344 345 346 347
          348 349 350 351 352 353
          354 355 356 357 358 359
          360 361 362 363 364 365
          366 367 368 369 370 371
          372 373 374 375 376 377
          378 379 380 381 382 383
          384 385 386 387 388 389
          390 391 392 393 394 395
          396 397 398 399 400 401
          402 403 404 405 406 407
          408 409 410 411 412 413
          414 415 416 417 418 419
          420 421 422 423 424 425
          426 427 428 429 430 431
          432 433 434 435 436 437
          438 439 440 441 442 443
          444 445 446 447 448 449
          450 451 452 453 454 455
          456 457 458 459 460 461
          462 463 464 465 466 467
          468 469 470 471 472 473
          474 475 476 477 478 479
          480 481 482 483 484 485
          486 487 488 489 490 491
          492 493 494 495 496 497
          498 499 500 501 502 503
          504 505 506 507 508 509
          510 511 512 513 514 515
          516 517 518 519 520 521
          522 523 524 525 526 527
          528 529 530 531 532 533
          534 535 536 537 538 539
          540 541 542 543 544 545
          546 547 548 549 550 551
          552 553 554 555 556 557
          558 559 560 561 562 563
          564 565 566 567 568 569
          570 571 572 573 574 575
          576 577 578 579 580 581
          582 583 584 585 586 587
          588 589 590 591 592 593
          594 595 596 597 598 599
          600 601 602 603 604 605
          606 607 608 609 610 611
          612 613 614 615 616 617
          618 619 620 621 622 623
          624 625 626 627 628 629
          630 631 632 633 634 635
          636 637 638 639 640 641
          642 643 644 645 646 647
          648 649 650 651 652 653
          654 655 656 657 658 659
          660 661 662 663 664 665
          666 667 668 669 670 671
          672 673 674 675 676 677
          678 679 680 681 682 683
          684 685 686 687 688 689
          690 691 692 693 694 695
          696 697 698 699 700 701
          702 703 704 705 706 707
          708 709 710 711 712 713
          714 715 716 717 718 719
          720 721 722 723 724 725
          726 727 728 729 730 731
          732 733 734 735 736 737
          738 739 740 741 742 743
          744 745 746 747 748 749
          750 751 752 753 754 755
          756 757 758 759 760 761
          762 763 764 765 766 767
          768 769 770 771 772 773
          774 775 776 777 778 779
          780 781 782 783 784 785
          786 787 788 789 790 791
          792 793 794 795 796 797
          798 799 800 801 802 803
          804 805 806 807 808 809
          810 811 812 813 814 815
          816 817 818 819 820 821
          822 823 824 825 826 827
          828 829 830 831 832 833
          834 835 836 837 838 839
          840 841 842 843 844 845
          846 847 848 849 850 851
          852 853 854 855 856 857
          858 859 860 861 862 863
          864 865 866 867 868 869
          870 871 872 873 874 875
          876 877 878 879 880 881
          882 883 884 885 886 887
          888 889 890 891 892 893
          894 895 896 897 898 899
          900 901 902 903 904 905
          906 907 908 909 910 911
          912 913 914 915 916 917
          918 919 920 921 922 923
          924 925 926 927 928 929
          930 931 932 933 934 935
          936 937 938 939 940 941
          942 943 944 945 946 947
          948 949 950 951 952 953
          954 955 956 957 958 959
          960 961 962 963 964 965
          966 967 968 969 970 971
          972 973 974 975 976 977
          978 979 980 981 982 983
          984 985 986 987 988 989
          990 991 992 993 994 995
          996 997 998 999 1000 1001
          1002 1003 1004 1005 1006 1007
          1008 1009 1010 1011 1012 1013
          1014 1015 1016 1017 1018 1019
          1020 1021 1022 1023 1024 1025
          1026 1027 1028 1029 1030 1031
          1032 1033 1034 1035 1036 1037
          1038 1039 1040 1041 1042 1043
          1044 1045 1046 1047 1048 1049
          1050 1051 1052 1053 1054 1055
          1056 1057 1058 1059 1060 1061
          1062 1063 1064 1065 1066 1067
          1068 1069 1070 1071 1072 1073
          1074 1075 1076 1077 1078 1079
          1080 1081 1082 1083 1084 1085
          1086 1087 1088 1089 1090 1091
          1092 1093 1094 1095 1096 1097
          1098 1099 1100 1101 1102 1103
          1104 1105 1106 1107 1108 1109
          1110 1111 1112 1113 1114 1115
          1116 1117 1118 1119 1120 1121
          1122 1123 1124 1125 1126 1127
          1128 1129 1130 1131 1132 1133
          1134 1135 1136 1137 1138 1139
          1140 1141 1142 1143 1144 1145
          1146 1147 1148 1149 1150 1151
          1152 1153 1154 1155 1156 1157
          1158 1159 1160 1161 1162 1163
          1164 1165 1166 1167 1168 1169
          1170 1171 1172 1173 1174 1175
          1176 1177 1178 1179 1180 1181
          1182 1183 1184 1185 1186 1187
          1188 1189 1190 1191 1192 1193
          1194 1195 1196 1197 1198 1199
          1200 1201 1202 1203 1204 1205
          1206 1207 1208 1209 1210 1211
          1212 1213 1214 1215 1216 1217
          1218 1219 1220 1221 1222 1223
          1224 1225 1226 1227 1228 1229
          1230 1231 1232 1233 1234 1235
          1236 1237 1238 1239 1240 1241
          1242 1243 1244 1245 1246 1247
          1248 1249 1250 1251 1252 1253
          1254 1255 1256 1257 1258 1259
          1260 1261 1262 1263 1264 1265
          1266 1267 1268 1269 1270 1271
          1272 1273 1274 1275 1276 1277
          1278 1279 1280 1281 1282 1283
          1284 1285 1286 1287 1288 1289
          1290 1291 1292 1293 1294 1295
          1296 1297 1298 1299 1300 1301
          1302 1303 1304 1305 1306 1307
          1308 1309 1310 1311 1312 1313
          1314 1315 1316 1317 1318 1319
          1320 1321 1322 1323 1324 1325
          1326 1327 1328 1329
        </DataArray>
        <DataArray type="Int64" Name="offsets" format="ascii" RangeMin="1" RangeMax="1330">
          1 2 3 4 5 6
          7 8 9 10 11 12
          13 14 15 16 17 18
          19 20 21 22 23 24
          25 26 27 28 29 30
          31 32 33 34 35 36
          37 38 39 40 41 42
          43 44 45 46 47 48
          49 50 51 52 53 54
          55 56 57 58 59 60
          61 62 63 64 65 66
          67 68 69 70 71 72
          73 74 75 76 77 78
          79 80 81 82 83 84
          85 86 87 88 89 90
          91 92 93 94 95 96
          97 98 99 100 101 102
          103 104 105 106 107 108
          109 110 111 112 113 114
          115 116 117 118 119 120
          121 122 123 124 125 126
          127 128 129 130 131 132
          133 134 135 136 137 138
          139 140 141 142 143 144
          145 146 147 148 149 150
          151 152 153 154 155 156
          157 158 159 160 161 162
          163 164 165 166 167 168
          169 170 171 172 173 174
          175 176 177 178 179 180
          181 182 183 184 185 186
          187 188 189 190 191 192
          193 194 195 196 197 198
          199 200 201 202 203 204
          205 206 207 208 209 210
          211 212 213 214 215 216
          217 218 219 220 221 222
          223 224 225 226 227 228
          229 230 231 232 233 234
          235 236 237 238 239 240
          241 242 243 244 245 246
          247 248 249 250 251 252
          253 254 255 256 257 258
          259 260 261 262 263 264
          265 266 267 268 269 270
          271 272 273 274 275 276
          277 278 279 280 281 282
          283 284 285 286 287 288
          289 290 291 292 293 294
          295 296 297 298 299 300
          301 302 303 304 305 306
          307 308 309 310 311 312
          313 314 315 316 317 318
          319 320 321 322 323 324
          325 326 327 328 329 330
          331 332 333 334 335 336
          337 338 339 340 341 342
          343 344 345 346 347 348
          349 350 351 352 353 354
          355 356 357 358 359 360
          361 362 363 364 365 366
          367 368 369 370 371 372
          373 374 375 376 377 378
          379 380 381 382 383 384
          385 386 387 388 389 390
          391 392 393 394 395 396
          397 398 399 400 401 402
          403 404 405 406 407 408
          409 410 411 412 413 414
          415 416 417 418 419 420
          421 422 423 424 425 426
          427 428 429 430 431 432
          433 434 435 436 437 438
          439 440 441 442 443 444
          445 446 447 448 449 450
          451 452 453 454 455 456
          457 458 459 460 461 462
          463 464 465 466 467 468
          469 470 471 472 473 474
          475 476 477 478 479 480
          481 482 483 484 485 486
          487 488 489 490 491 492
          493 494 495 496 497 498
          499 500 501 502 503 504
          505 506 507 508 509 510
          511 512 513 514 515 516
          517 518 519 520 521 522
          523 524 525 526 527 528
          529 530 531 532 533 534
          535 536 537 538 539 540
          541 542 543 544 545 546
          547 548 549 550 551 552
          553 554 555 556 557 558
          559 560 561 562 563 564
          565 566 567 568 569 570
          571 572 573 574 575 576
          577 578 579 580 581 582
          583 584 585 586 587 588
          589 590 591 592 593 594
          595 596 597 598 599 600
          601 602 603 604 605 606
          607 608 609 610 611 612
          613 614 615 616 617 618
          619 620 621 622 623 624
          625 626 627 628 629 630
          631 632 633 634 635 636
          637 638 639 640 641 642
          643 644 645 646 647 648
          649 650 651 652 653 654
          655 656 657 658 659 660
          661 662 663 664 665 666
          667 668 669 670 671 672
          673 674 675 676 677 678
          679 680 681 682 683 684
          685 686 687 688 689 690
          691 692 693 694 695 696
          697 698 699 700 701 702
          703 704 705 706 707 708
          709 710 711 712 713 714
          715 716 717 718 719 720
          721 722 723 724 725 726
          727 728 729 730 731 732
          733 734 735 736 737 738
          739 740 741 742 743 744
          745 746 747 748 749 750
          751 752 753 754 755 756
          757 758 759 760 761 762
          763 764 765 766 767 768
          769 770 771 772 773 774
          775 776 777 778 779 780
          781 782 783 784 785 786
          787 788 789 790 791 792
          793 794 795 796 797 798
          799 800 801 802 803 804
          805 806 807 808 809 810
          811 812 813 814 815 816
          817 818 819 820 821 822
          823 824 825 826 827 828
          829 830 831 832 833 834
          835 836 837 838 839 840
          841 842 843 844 845 846
          847 848 849 850 851 852
          853 854 855 856 857 858
          859 860 861 862 863 864
          865 866 867 868 869 870
          871 872 873 874 875 876
          877 878 879 880 881 882
          883 884 885 886 887 888
          889 890 891 892 893 894
          895 896 897 898 899 900
          901 902 903 904 905 906
          907 908 909 910 911 912
          913 914 915 916 917 918
          919 920 921 922 923 924
          925 926 927 928 929 930
          931 932 933 934 935 936
          937 938 939 940 941 942
          943 944 945 946 947 948
          949 950 951 952 953 954
          955 956 957 958 959 960
          961 962 963 964 965 966
          967 968 969 970 971 972
          973 974 975 976 977 978
          979 980 981 982 983 984
          985 986 987 988 989 990
          991 992 993 994 995 996
          997 998 999 1000 1001 1002
          1003 1004 1005 1006 1007 1008
          1009 1010 1011 1012 1013 1014
          1015 1016 1017 1018 1019 1020
          1021 1022 1023 1024 1025 1026
          1027 1028 1029 1030 1031 1032
          1033 1034 1035 1036 1037 1038
          1039 1040 1041 1042 1043 1044
          1045 1046 1047 1048 1049 1050
          1051 1052 1053 1054 1055 1056
          1057 1058 1059 1060 1061 1062
          1063 1064 1065 1066 1067 1068
          1069 1070 1071 1072 1073 1074
          1075 1076 1077 1078 1079 1080
          1081 1082 1083 1084 1085 1086
          1087 1088 1089 1090 1091 1092
          1093 1094 1095 1096 1097 1098
          1099 1100 1101 1102 1103 1104
          1105 1106 1107 1108 1109 1110
          1111 1112 1113 1114 1115 1116
          1117 1118 1119 1120 1121 1122
          1123 1124 1125 1126 1127 1128
          1129 1130 1131 1132 1133 1134
          1135 1136 1137 1138 1139 1140
          1141 1142 1143 1144 1145 1146
          1147 1148 1149 1150 1151 1152
          1153 1154 1155 1156 1157 1158
          1159 1160 1161 1162 1163 1164
          1165 1166 1167 1168 1169 1170
          1171 1172 1173 1174 1175 1176
          1177 1178 1179 1180 1181 1182
          1183 1184 1185 1186 1187 1188
          1189 1190 1191 1192 1193 1194
          1195 1196 1197 1198 1199 1200
          1201 1202 1203 1204 1205 1206
          1207 1208 1209 1210 1211 1212
          1213 1214 1215 1216 1217 1218
          1219 1220 1221 1222 1223 1224
          1225 1226 1227 1228 1229 1230
          1231 1232 1233 1234 1235 1236
          1237 1238 1239 1240 1241 1242
          1243 1244 1245 1246 1247 1248
          1249 1250 1251 1252 1253 1254
          1255 1256 1257 1258 1259 1260
          1261 1262 1263 1264 1265 1266
          1267 1268 1269 1270 1271 1272
          1273 1274 1275 1276 1277 1278
          1279 1280 1281 1282 1283 1284
          1285 1286 1287 1288 1289 1290
          1291 1292 1293 1294 1295 1296
          1297 1298 1299 1300 1301 1302
          1303 1304 1305 1306 1307 1308
          1309 1310 1311 1312 1313 1314
          1315 1316 1317 1318 1319 1320
          1321 1322 1323 1324 1325 1326
          1327 1328 1329 1330
        </DataArray>
        <DataArray type="UInt8" Name="types" format="ascii" RangeMin="1" RangeMax="1">
          1 1 1 1 1 1
          1 1 1 1 1 1
          1 1 1 1 1 1
          1 1 1 1 1 1
          1 1 1 1 1 1
          1 1 1 1 1 1
          1 1 1 1 1 1
          1 1 1 1 1 1
          1 1 1 1 1 1
          1 1 1 1 1 1
          1 1 1 1 1 1
          1 1 1 1 1 1
          1 1 1 1 1 1
          1 1 1 1 1 1
          1 1 1 1 1 1
          1 1 1 1 1 1
          1 1 1 1 1 1
          1 1 1 1 1 1
          1 1 1 1 1 1
          1 1 1 1 1 1
          1 1 1 1 1 1
          1 1 1 1 1 1
          1 1 1 1 1 1
          1 1 1 1 1 1
          1 1 1 1 1 1
          1 1 1 1 1 1
          1 1 1 1 1 1
          1 1 1 1 1 1
          1 1 1 1 1 1
          1 1 1 1 1 1
          1 1 1 1 1 1
          1 1 1 1 1 1
          1 1 1 1 1 1
          1 1 1 1 1 1
          1 1 1 1 1 1
          1 1 1 1 1 1
          1 1 1 1 1 1
          1 1 1 1 1 1
          1 1 1 1 1 1
          1 1 1 1 1 1
          1 1 1 1 1 1
          1 1 1 1 1 1
          1 1 1 1 1 1
          1 1 1 1 1 1
          1 1 1 1 1 1
          1 1 1 1 1 1
          1 1 1 1 1 1
          1 1 1 1 1 1
          1 1 1 1 1 1
          1 1 1 1 1 1
          1 1 1 1 1 1
          1 1 1 1 1 1
          1 1 1 1 1 1
          1 1 1 1 1 1
          1 1 1 1 1 1
          1 1 1 1 1 1
          1 1 1 1 1 1
          1 1 1 1 1 1
          1 1 1 1 1 1
          1 1 1 1 1 1
          1 1 1 1 1 1
          1 1 1 1 1 1
          1 1 1 1 1 1
          1 1 1 1 1 1
          1 1 1 1 1 1
          1 1 1 1 1 1
          1 1 1 1 1 1
          1 1 1 1 1 1
          1 1 1 1 1 1
          1 1 1 1 1 1
          1 1 1 1 1 1
          1 1 1 1 1 1
          1 1 1 1 1 1
          1 1 1 1 1 1
          1 1 1 1 1 1
          1 1 1 1 1 1
          1 1 1 1 1 1
          1 1 1 1 1 1
          1 1 1 1 1 1
          1 1 1 1 1 1
          1 1 1 1 1 1
          1 1 1 1 1 1
          1 1 1 1 1 1
          1 1 1 1 1 1
          1 1 1 1 1 1
          1 1 1 1 1 1
          1 1 1 1 1 1
          1 1 1 1 1 1
          1 1 1 1 1 1
          1 1 1 1 1 1
          1 1 1 1 1 1
          1 1 1 1 1 1
          1 1 1 1 1 1
          1 1 1 1 1 1
          1 1 1 1 1 1
          1 1 1 1 1 1
          1 1 1 1 1 1
          1 1 1 1 1 1
          1 1 1 1 1 1
          1 1 1 1 1 1
          1 1 1 1 1 1
          1 1 1 1 1 1
          1 1 1 1 1 1
          1 1 1 1 1 1
          1 1 1 1 1 1
          1 1 1 1 1 1
          1 1 1 1 1 1
          1 1 1 1 1 1
          1 1 1 1 1 1
          1 1 1 1 1 1
          1 1 1 1 1 1
          1 1 1 1 1 1
          1 1 1 1 1 1
          1 1 1 1 1 1
          1 1 1 1 1 1
          1 1 1 1 1 1
          1 1 1 1 1 1
          1 1 1 1 1 1
          1 1 1 1 1 1
          1 1 1 1 1 1
          1 1 1 1 1 1
          1 1 1 1 1 1
          1 1 1 1 1 1
          1 1 1 1 1 1
          1 1 1 1 1 1
          1 1 1 1 1 1
          1 1 1 1 1 1
          1 1 1 1 1 1
          1 1 1 1 1 1
          1 1 1 1 1 1
          1 1 1 1 1 1
          1 1 1 1 1 1
          1 1 1 1 1 1
          1 1 1 1 1 1
          1 1 1 1 1 1
          1 1 1 1 1 1
          1 1 1 1 1 1
          1 1 1 1 1 1
          1 1 1 1 1 1
          1 1 1 1 1 1
          1 1 1 1 1 1
          1 1 1 1 1 1
          1 1 1 1 1 1
          1 1 1 1 1 1
          1 1 1 1 1 1
          1 1 1 1 1 1
          1 1 1 1 1 1
          1 1 1 1 1 1
          1 1 1 1 1 1
          1 1 1 1 1 1
          1 1 1 1 1 1
          1 1 1 1 1 1
          1 1 1 1 1 1
          1 1 1 1 1 1
          1 1 1 1 1 1
          1 1 1 1 1 1
          1 1 1 1 1 1
          1 1 1 1 1 1
          1 1 1 1 1 1
          1 1 1 1 1 1
          1 1 1 1 1 1
          1 1 1 1 1 1
          1 1 1 1 1 1
          1 1 1 1 1 1
          1 1 1 1 1 1
          1 1 1 1 1 1
          1 1 1 1 1 1
          1 1 1 1 1 1
          1 1 1 1 1 1
          1 1 1 1 1 1
          1 1 1 1 1 1
          1 1 1 1 1 1
          1 1 1 1 1 1
          1 1 1 1 1 1
          1 1 1 1 1 1
          1 1 1 1 1 1
          1 1 1 1 1 1
          1 1 1 1 1 1
          1 1 1 1 1 1
          1 1 1 1 1 1
          1 1 1 1 1 1
          1 1 1 1 1 1
          1 1 1 1 1 1
          1 1 1 1 1 1
          1 1 1 1 1 1
          1 1 1 1 1 1
          1 1 1 1 1 1
          1 1 1 1 1 1
          1 1 1 1 1 1
          1 1 1 1 1 1
          1 1 1 1 1 1
          1 1 1 1 1 1
          1 1 1 1 1 1
          1 1 1 1 1 1
          1 1 1 1 1 1
          1 1 1 1 1 1
          1 1 1 1 1 1
          1 1 1 1 1 1
          1 1 1 1 1 1
          1 1 1 1 1 1
          1 1 1 1 1 1
          1 1 1 1 1 1
          1 1 1 1 1 1
          1 1 1 1 1 1
          1 1 1 1 1 1
          1 1 1 1 1 1
          1 1 1 1 1 1
          1 1 1 1 1 1
          1 1 1 1 1 1
          1 1 1 1 1 1
          1 1 1 1 1 1
          1 1 1 1 1 1
          1 1 1 1 1 1
          1 1 1 1 1 1
          1 1 1 1 1 1
          1 1 1 1 1 1
          1 1 1 1 1 1
          1 1 1 1 1 1
          1 1 1 1 1 1
          1 1 1 1 1 1
          1 1 1 1 1 1
          1 1 1 1
        </DataArray>
      </Cells>
    </Piece>
  </UnstructuredGrid>
</VTKFile>
