<VTKFile type="UnstructuredGrid" version="0.1" byte_order="LittleEndian" header_type="UInt32" compressor="vtkZLibDataCompressor">
  <UnstructuredGrid>
    <Piece NumberOfPoints="1394" NumberOfCells="1394">
      <PointData Scalars="CriticalType">
        <DataArray type="Int32" Name="NodeId" format="ascii" RangeMin="0" RangeMax="1393">
          0 1 2 3 4 5
          6 7 8 9 10 11
          12 13 14 15 16 17
          18 19 20 21 22 23
          24 25 26 27 28 29
          30 31 32 33 34 35
          36 37 38 39 40 41
          42 43 44 45 46 47
          48 49 50 51 52 53
          54 55 56 57 58 59
          60 61 62 63 64 65
          66 67 68 69 70 71
          72 73 74 75 76 77
          78 79 80 81 82 83
          84 85 86 87 88 89
          90 91 92 93 94 95
          96 97 98 99 100 101
          102 103 104 105 106 107
          108 109 110 111 112 113
          114 115 116 117 118 119
          120 121 122 123 124 125
          126 127 128 129 130 131
          132 133 134 135 136 137
          138 139 140 141 142 143
          144 145 146 147 148 149
          150 151 152 153 154 155
          156 157 158 159 160 161
          162 163 164 165 166 167
          168 169 170 171 172 173
          174 175 176 177 178 179
          180 181 182 183 184 185
          186 187 188 189 190 191
          192 193 194 195 196 197
          198 199 200 201 202 203
          204 205 206 207 208 209
          210 211 212 213 214 215
          216 217 218 219 220 221
          222 223 224 225 226 227
          228 229 230 231 232 233
          234 235 236 237 238 239
          240 241 242 243 244 245
          246 247 248 249 250 251
          252 253 254 255 256 257
          258 259 260 261 262 263
          264 265 266 267 268 269
          270 271 272 273 274 275
          276 277 278 279 280 281
          282 283 284 285 286 287
          288 289 290 291 292 293
          294 295 296 297 298 299
          300 301 302 303 304 305
          306 307 308 309 310 311
          312 313 314 315 316 317
          318 319 320 321 322 323
          324 325 326 327 328 329
          330 331 332 333 334 335
          336 337 338 339 340 341
          342 343 344 345 346 347
          348 349 350 351 352 353
          354 355 356 357 358 359
          360 361 362 363 364 365
          366 367 368 369 370 371
          372 373 374 375 376 377
          378 379 380 381 382 383
          384 385 386 387 388 389
          390 391 392 393 394 395
          396 397 398 399 400 401
          402 403 404 405 406 407
          408 409 410 411 412 413
          414 415 416 417 418 419
          420 421 422 423 424 425
          426 427 428 429 430 431
          432 433 434 435 436 437
          438 439 440 441 442 443
          444 445 446 447 448 449
          450 451 452 453 454 455
          456 457 458 459 460 461
          462 463 464 465 466 467
          468 469 470 471 472 473
          474 475 476 477 478 479
          480 481 482 483 484 485
          486 487 488 489 490 491
          492 493 494 495 496 497
          498 499 500 501 502 503
          504 505 506 507 508 509
          510 511 512 513 514 515
          516 517 518 519 520 521
          522 523 524 525 526 527
          528 529 530 531 532 533
          534 535 536 537 538 539
          540 541 542 543 544 545
          546 547 548 549 550 551
          552 553 554 555 556 557
          558 559 560 561 562 563
          564 565 566 567 568 569
          570 571 572 573 574 575
          576 577 578 579 580 581
          582 583 584 585 586 587
          588 589 590 591 592 593
          594 595 596 597 598 599
          600 601 602 603 604 605
          606 607 608 609 610 611
          612 613 614 615 616 617
          618 619 620 621 622 623
          624 625 626 627 628 629
          630 631 632 633 634 635
          636 637 638 639 640 641
          642 643 644 645 646 647
          648 649 650 651 652 653
          654 655 656 657 658 659
          660 661 662 663 664 665
          666 667 668 669 670 671
          672 673 674 675 676 677
          678 679 680 681 682 683
          684 685 686 687 688 689
          690 691 692 693 694 695
          696 697 698 699 700 701
          702 703 704 705 706 707
          708 709 710 711 712 713
          714 715 716 717 718 719
          720 721 722 723 724 725
          726 727 728 729 730 731
          732 733 734 735 736 737
          738 739 740 741 742 743
          744 745 746 747 748 749
          750 751 752 753 754 755
          756 757 758 759 760 761
          762 763 764 765 766 767
          768 769 770 771 772 773
          774 775 776 777 778 779
          780 781 782 783 784 785
          786 787 788 789 790 791
          792 793 794 795 796 797
          798 799 800 801 802 803
          804 805 806 807 808 809
          810 811 812 813 814 815
          816 817 818 819 820 821
          822 823 824 825 826 827
          828 829 830 831 832 833
          834 835 836 837 838 839
          840 841 842 843 844 845
          846 847 848 849 850 851
          852 853 854 855 856 857
          858 859 860 861 862 863
          864 865 866 867 868 869
          870 871 872 873 874 875
          876 877 878 879 880 881
          882 883 884 885 886 887
          888 889 890 891 892 893
          894 895 896 897 898 899
          900 901 902 903 904 905
          906 907 908 909 910 911
          912 913 914 915 916 917
          918 919 920 921 922 923
          924 925 926 927 928 929
          930 931 932 933 934 935
          936 937 938 939 940 941
          942 943 944 945 946 947
          948 949 950 951 952 953
          954 955 956 957 958 959
          960 961 962 963 964 965
          966 967 968 969 970 971
          972 973 974 975 976 977
          978 979 980 981 982 983
          984 985 986 987 988 989
          990 991 992 993 994 995
          996 997 998 999 1000 1001
          1002 1003 1004 1005 1006 1007
          1008 1009 1010 1011 1012 1013
          1014 1015 1016 1017 1018 1019
          1020 1021 1022 1023 1024 1025
          1026 1027 1028 1029 1030 1031
          1032 1033 1034 1035 1036 1037
          1038 1039 1040 1041 1042 1043
          1044 1045 1046 1047 1048 1049
          1050 1051 1052 1053 1054 1055
          1056 1057 1058 1059 1060 1061
          1062 1063 1064 1065 1066 1067
          1068 1069 1070 1071 1072 1073
          1074 1075 1076 1077 1078 1079
          1080 1081 1082 1083 1084 1085
          1086 1087 1088 1089 1090 1091
          1092 1093 1094 1095 1096 1097
          1098 1099 1100 1101 1102 1103
          1104 1105 1106 1107 1108 1109
          1110 1111 1112 1113 1114 1115
          1116 1117 1118 1119 1120 1121
          1122 1123 1124 1125 1126 1127
          1128 1129 1130 1131 1132 1133
          1134 1135 1136 1137 1138 1139
          1140 1141 1142 1143 1144 1145
          1146 1147 1148 1149 1150 1151
          1152 1153 1154 1155 1156 1157
          1158 1159 1160 1161 1162 1163
          1164 1165 1166 1167 1168 1169
          1170 1171 1172 1173 1174 1175
          1176 1177 1178 1179 1180 1181
          1182 1183 1184 1185 1186 1187
          1188 1189 1190 1191 1192 1193
          1194 1195 1196 1197 1198 1199
          1200 1201 1202 1203 1204 1205
          1206 1207 1208 1209 1210 1211
          1212 1213 1214 1215 1216 1217
          1218 1219 1220 1221 1222 1223
          1224 1225 1226 1227 1228 1229
          1230 1231 1232 1233 1234 1235
          1236 1237 1238 1239 1240 1241
          1242 1243 1244 1245 1246 1247
          1248 1249 1250 1251 1252 1253
          1254 1255 1256 1257 1258 1259
          1260 1261 1262 1263 1264 1265
          1266 1267 1268 1269 1270 1271
          1272 1273 1274 1275 1276 1277
          1278 1279 1280 1281 1282 1283
          1284 1285 1286 1287 1288 1289
          1290 1291 1292 1293 1294 1295
          1296 1297 1298 1299 1300 1301
          1302 1303 1304 1305 1306 1307
          1308 1309 1310 1311 1312 1313
          1314 1315 1316 1317 1318 1319
          1320 1321 1322 1323 1324 1325
          1326 1327 1328 1329 1330 1331
          1332 1333 1334 1335 1336 1337
          1338 1339 1340 1341 1342 1343
          1344 1345 1346 1347 1348 1349
          1350 1351 1352 1353 1354 1355
          1356 1357 1358 1359 1360 1361
          1362 1363 1364 1365 1366 1367
          1368 1369 1370 1371 1372 1373
          1374 1375 1376 1377 1378 1379
          1380 1381 1382 1383 1384 1385
          1386 1387 1388 1389 1390 1391
          1392 1393
        </DataArray>
        <DataArray type="Float32" Name="Scalar" format="ascii" RangeMin="0.08544921875" RangeMax="16.953033447265625">
          0.08544922 0.119018555 0.13428497 0.15564728 0.16785431 0.21973419
          0.27161407 0.31433865 0.31433868 0.3204422 0.33264923 0.34485626
          0.34485626 0.36927032 0.39064026 0.39979553 0.41505432 0.41505432
          0.43946838 0.43946838 0.4486237 0.45777893 0.4608307 0.46998596
          0.4882965 0.4882965 0.5035553 0.5035553 0.5035553 0.5157623
          0.56459045 0.5737457 0.59510803 0.5981598 0.6195221 0.63173676
          0.640892 0.6439438 0.67446136 0.7019272 0.70497894 0.72634125
          0.729393 0.7385483 0.7507553 0.7599106 0.76906586 0.7812729
          0.7873764 0.7873764 0.7965317 0.8239975 0.8331528 0.8392563
          0.8392563 0.85146326 0.875885 0.875885 0.875885 0.88809204
          0.91555786 0.91555786 0.93081665 0.9430237 0.94607544 0.9491272
          0.97354126 0.976593 0.9796448 1.0162659 1.0193176 1.0437317
          1.0498352 1.0559387 1.0742493 1.0742493 1.1139221 1.135292
          1.1505508 1.1536026 1.1536026 1.1749649 1.1841202 1.1841202
          1.1871719 1.1963272 1.2024307 1.2268448 1.2512589 1.2726213
          1.2787247 1.2848282 1.3061905 1.3306046 1.3550186 1.3916473
          1.4069061 1.4099579 1.434372 1.4374237 1.4557343 1.4618378
          1.4679413 1.5167693 1.5228728 1.5228729 1.5411835 1.5686493
          1.5839081 1.6174773 1.6357956 1.6571579 1.6632614 1.6724167
          1.6998825 1.7029341 1.7273484 1.7914352 1.794487 1.8280563
          1.8433151 1.8555222 1.8890991 1.9013062 1.9348755 1.9348755
          1.9348755 1.9440308 1.9714966 1.9776001 2.0508423 2.0508423
          2.0722046 2.0752563 2.0813599 2.0905151 2.1210327 2.139351
          2.1576614 2.175972 2.1942825 2.2003858 2.2156448 2.2370071
          2.2858353 2.288887 2.2919388 2.3041458 2.3041458 2.313301
          2.3163528 2.3224564 2.3224564 2.3316116 2.337715 2.3773956
          2.3834991 2.3926544 2.3926544 2.4323273 2.4384308 2.4658966
          2.4689484 2.4720001 2.487259 2.4933624 2.4964142 2.548294
          2.5513458 2.5666046 2.5818634 2.5971222 2.6154327 2.6154327
          2.6245956 2.6306992 2.633751 2.6337512 2.645958 2.6490097
          2.6551132 2.658165 2.6795273 2.682579 2.6886826 2.7130966
          2.7130966 2.7375107 2.7527695 2.7527695 2.7527695 2.7619247
          2.7649765 2.7741318 2.7893906 2.7924423 2.7924423 2.7985458
          2.807701 2.8107529 2.8107529 2.8229597 2.835167 2.8412704
          2.847374 2.8534775 2.8717878 2.8840027 2.8840027 2.8870544
          2.8901062 2.8931582 2.8962097 2.8992615 2.9023132 2.9084167
          2.917572 2.941986 2.9450378 2.9511414 2.9511414 2.9602966
          2.9633484 2.9633484 2.9725037 2.9725037 2.981659 3.006073
          3.0091245 3.0243835 3.030487 3.0549011 3.0549011 3.0610046
          3.0610046 3.0640564 3.0671082 3.0671082 3.07016 3.07016
          3.082367 3.0915222 3.0976257 3.1006775 3.106781 3.106781
          3.106781 3.106781 3.118988 3.118988 3.1220398 3.1220398
          3.1250992 3.1373062 3.1495132 3.1495132 3.1556168 3.1800308
          3.1983414 3.204445 3.204445 3.2074966 3.2105484 3.2197037
          3.2502213 3.2593765 3.26548 3.2685318 3.2715836 3.277687
          3.2837906 3.2868423 3.289894 3.289894 3.2898943 3.2959976
          3.2959979 3.314308 3.3143082 3.31736 3.3204117 3.3265152
          3.3356705 3.3356705 3.366188 3.3753507 3.3814545 3.3845065
          3.3997653 3.4028168 3.4058685 3.4089203 3.411972 3.421127
          3.421127 3.448593 3.4485931 3.4608002 3.4699554 3.4699557
          3.4730072 3.4791107 3.4943695 3.500473 3.5065763 3.5096283
          3.51268 3.5187836 3.5187836 3.5218353 3.5309908 3.5340421
          3.5401459 3.5462492 3.5462494 3.5523527 3.552353 3.5554047
          3.5584562 3.5584564 3.576767 3.579819 3.5889742 3.5920258
          3.6042328 3.610336 3.613388 3.6256027 3.6439133 3.6439135
          3.6530685 3.6652756 3.671379 3.671379 3.6805344 3.6805344
          3.6866379 3.6866379 3.6896894 3.6957932 3.7202075 3.7446213
          3.747673 3.7629316 3.7690353 3.7812424 3.7842941 3.787346
          3.8026047 3.8056564 3.8087082 3.8117602 3.8178635 3.8331223
          3.836174 3.8422775 3.8544846 3.8636398 3.8636398 3.8666916
          3.8666916 3.8697436 3.8789062 3.8880615 3.8941648 3.9216309
          3.9246826 3.9368896 3.946045 3.958252 3.958252 3.9613037
          3.9643552 3.9643555 3.9643555 3.9674075 3.9796143 3.9796143
          3.9826658 3.9857178 4.010132 4.0284424 4.043701 4.046753
          4.0528564 4.055908 4.068115 4.071167 4.0742188 4.0742188
          4.083374 4.0925293 4.095581 4.0955815 4.0986323 4.098633
          4.1047363 4.1138916 4.1138916 4.1169434 4.1169434 4.119995
          4.1230545 4.1230545 4.1230545 4.129158 4.13221 4.1352615
          4.141365 4.141365 4.1505203 4.1505203 4.1627274 4.1627274
          4.165779 4.165779 4.168831 4.1718826 4.1749344 4.1749344
          4.1749344 4.181038 4.1993484 4.2024 4.2024 4.2115555
          4.2146072 4.229866 4.229866 4.235969 4.2390213 4.2481766
          4.257332 4.257332 4.2603836 4.2603836 4.2725906 4.281746
          4.2847977 4.290901 4.2970047 4.30616 4.318367 4.318367
          4.321419 4.333626 4.345833 4.345833 4.3488846 4.3519363
          4.3519363 4.354988 4.35804 4.35804 4.3610916 4.3610916
          4.3641434 4.367195 4.367195 4.3855133 4.388565 4.391617
          4.3946686 4.400772 4.403824 4.403824 4.4099274 4.4190826
          4.4251857 4.428238 4.428238 4.428238 4.4312897 4.4465485
          4.4557037 4.4618073 4.4709625 4.480118 4.4831696 4.498428
          4.5014796 4.5075836 4.513687 4.513687 4.51979 4.538101
          4.538101 4.538101 4.541153 4.5472565 4.5594635 4.5625153
          4.565567 4.5716705 4.577774 4.577774 4.577774 4.577774
          4.589981 4.5960846 4.6082916 4.6204987 4.6204987 4.623558
          4.62661 4.6296616 4.6327133 4.6327133 4.635765 4.638817
          4.6418686 4.6418686 4.6449203 4.647972 4.651024 4.651024
          4.651024 4.6571274 4.675438 4.687645 4.687645 4.6906967
          4.6906967 4.6937485 4.699852 4.7059555 4.712059 4.7120595
          4.727318 4.727318 4.7303696 4.736473 4.736473 4.7425766
          4.74868 4.7578354 4.763939 4.770043 4.773094 4.773094
          4.7822495 4.788353 4.788353 4.8036118 4.8036118 4.8188705
          4.8188705 4.818871 4.8219223 4.828026 4.8310776 4.8310776
          4.8341293 4.8341293 4.8463364 4.8463364 4.8463364 4.846337
          4.85244 4.8554916 4.8676987 4.8676987 4.886017 4.8890686
          4.8921204 4.8921204 4.895172 4.9043274 4.907379 4.931793
          4.9378963 4.9409485 4.9440002 4.9440002 4.947052 4.962311
          4.962311 4.962311 4.983673 4.983673 4.983673 4.983673
          4.986725 4.986725 4.986725 4.986725 4.9928284 4.998932
          5.0019836 5.011139 5.0172424 5.0263977 5.0263977 5.0294495
          5.035553 5.0355535 5.0386047 5.0386047 5.0447083 5.0477595
          5.0538635 5.0538635 5.075226 5.075226 5.084381 5.087433
          5.087433 5.087433 5.0904846 5.1026917 5.1057434 5.108795
          5.121002 5.1240616 5.1362686 5.1484756 5.154579 5.163735
          5.1667857 5.1728897 5.1759415 5.182045 5.185097 5.1881485
          5.1881485 5.1912003 5.194252 5.197304 5.2003555 5.206459
          5.2156143 5.2278214 5.230873 5.2400284 5.2400284 5.2522354
          5.2735977 5.2797017 5.2919083 5.29496 5.3010635 5.304115
          5.3071666 5.310219 5.3132706 5.3285294 5.3376846 5.3651505
          5.389572 5.3926234 5.3956757 5.401779 5.4078827 5.4078827
          5.4109344 5.417038 5.4506073 5.4628143 5.4719696 5.4750214
          5.478073 5.49028 5.493332 5.493332 5.493332 5.4994354
          5.505539 5.505539 5.5116425 5.514694 5.526901 5.5330048
          5.5391083 5.5513153 5.554367 5.554367 5.554367 5.5635223
          5.5726776 5.5757294 5.5757294 5.5757294 5.578781 5.5848846
          5.6001434 5.603195 5.618454 5.6215057 5.6459274 5.6581345
          5.661186 5.664238 5.6703415 5.700859 5.7069626 5.7130666
          5.716118 5.7344284 5.73748 5.749687 5.752739 5.755791
          5.764946 5.764946 5.7679977 5.7710495 5.774101 5.7832565
          5.7832565 5.78936 5.792412 5.7954636 5.8015666 5.801567
          5.8107224 5.816826 5.8198776 5.84124 5.8442917 5.847344
          5.8564982 5.8564987 5.8687057 5.8717575 5.8778687 5.8931274
          5.899231 5.908386 5.9114385 5.9175415 5.9205933 5.926697
          5.926697 5.926697 5.9328003 5.932801 5.9358525 5.9419556
          5.9450073 5.948059 5.9541626 5.9663696 5.969421 5.972473
          5.9724736 5.9785767 5.9785767 5.9816284 5.9907837 6.0060425
          6.012146 6.0335083 6.0365596 6.03656 6.0548706 6.0548706
          6.057922 6.064026 6.064026 6.067077 6.0670776 6.070129
          6.0701294 6.0731807 6.076233 6.076233 6.082336 6.0823364
          6.0884395 6.10675 6.1067505 6.1067505 6.1098022 6.1098022
          6.112854 6.1189575 6.1220093 6.1281204 6.131172 6.137275
          6.1372757 6.1403275 6.1677938 6.1769485 6.186104 6.2013626
          6.207466 6.210518 6.210518 6.2257767 6.2257767 6.228829
          6.2379837 6.2410355 6.2440867 6.244087 6.2501903 6.2562943
          6.262398 6.2654495 6.271553 6.277657 6.28376 6.28376
          6.286812 6.286812 6.2929153 6.2990184 6.3142776 6.3570023
          6.3570023 6.3722687 6.3753204 6.3875275 6.3966827 6.3966827
          6.4027863 6.405838 6.4088893 6.40889 6.4119415 6.411942
          6.418045 6.454666 6.4699254 6.4882355 6.491287 6.5034943
          6.509598 6.5126495 6.5126495 6.534012 6.5401154 6.543167
          6.543167 6.546219 6.5492706 6.5523224 6.5523224 6.558426
          6.5614777 6.5645294 6.5645294 6.567581 6.570633 6.58284
          6.5858917 6.595047 6.6042023 6.607254 6.619461 6.6316757
          6.6347275 6.6347275 6.659141 6.6621933 6.6652446 6.665245
          6.6682963 6.668297 6.6713486 6.6744 6.6835556 6.6866074
          6.692711 6.692711 6.7018657 6.704918 6.707969 6.7079697
          6.7110214 6.729332 6.7323837 6.7354355 6.741539 6.741539
          6.744591 6.756798 6.7842636 6.7842636 6.7873154 6.7964706
          6.802574 6.805626 6.811729 6.8147817 6.826988 6.8269887
          6.836143 6.8361435 6.842247 6.8483505 6.848351 6.848351
          6.857506 6.8575063 6.8666615 6.8788757 6.894134 6.9002385
          6.90329 6.90329 6.9063416 6.9338074 6.9582214 6.967376
          6.9734797 6.982636 7.0009456 7.003998 7.010102 7.0192566
          7.0253606 7.0345154 7.0375676 7.040619 7.052826 7.058929
          7.061981 7.0680847 7.07724 7.083343 7.089447 7.104706
          7.1077576 7.11081 7.1138616 7.129128 7.129128 7.15049
          7.187111 7.2023697 7.208473 7.2176285 7.2298355 7.245094
          7.248146 7.2573013 7.260353 7.2695084 7.2786636 7.284767
          7.284767 7.287819 7.2939224 7.293923 7.3122325 7.312233
          7.318336 7.32444 7.32444 7.3274918 7.339699 7.339699
          7.3427505 7.351906 7.354958 7.361061 7.3671646 7.367165
          7.3732758 7.379379 7.3793793 7.3793793 7.382431 7.39769
          7.443466 7.4495697 7.458725 7.4587255 7.4678802 7.470932
          7.473984 7.473984 7.4770355 7.498398 7.522812 7.535019
          7.544174 7.544174 7.544174 7.5472264 7.5502777 7.5502777
          7.5624847 7.568588 7.57164 7.574692 7.5777435 7.580795
          7.586899 7.599106 7.6021576 7.6021576 7.6143646 7.6265793
          7.64489 7.647941 7.650994 7.666252 7.669304 7.669304
          7.6723557 7.678459 7.681511 7.681511 7.684563 7.6876144
          7.693718 7.6967697 7.6998215 7.702873 7.7150803 7.7150807
          7.721184 7.7303386 7.7333903 7.733391 7.733391 7.742546
          7.757805 7.7730637 7.7761154 7.791374 7.8005295 7.81884
          7.831047 7.8310475 7.840203 7.846306 7.8524094 7.8768315
          7.879883 7.879883 7.8829346 7.885987 7.8981934 7.904297
          7.9073486 7.916504 7.9195557 7.9195557 7.9348145 7.937866
          7.9439697 7.9592285 7.9622803 7.965332 7.965332 7.9683833
          7.983642 7.9836426 7.9836426 7.9836426 7.9866943 7.989746
          7.99585 8.008057 8.008057 8.020264 8.035522 8.038574
          8.056885 8.059937 8.062988 8.062988 8.078247 8.081299
          8.087402 8.090453 8.090454 8.11792 8.120972 8.133186
          8.145393 8.154549 8.160653 8.163704 8.166756 8.178963
          8.185066 8.188118 8.19117 8.1942215 8.200325 8.200326
          8.206429 8.212532 8.215584 8.218636 8.224739 8.236947
          8.24305 8.24305 8.249153 8.249153 8.264412 8.270515
          8.273567 8.273567 8.279671 8.282722 8.288826 8.291878
          8.294929 8.301033 8.310188 8.319344 8.319344 8.334602
          8.337654 8.343758 8.343758 8.346809 8.349861 8.352913
          8.352914 8.355964 8.359016 8.362068 8.377335 8.392593
          8.395645 8.410904 8.410904 8.410904 8.423111 8.435318
          8.444473 8.484146 8.493301 8.496353 8.505508 8.50856
          8.511612 8.523819 8.526871 8.536026 8.5421295 8.557388
          8.566544 8.581802 8.581802 8.587906 8.597061 8.600113
          8.600113 8.630637 8.630638 8.639793 8.645897 8.648949
          8.658104 8.661156 8.667259 8.673363 8.673363 8.679466
          8.679466 8.682517 8.6886215 8.697777 8.716087 8.725243
          8.725243 8.728294 8.731346 8.734398 8.764915 8.786278
          8.792381 8.804588 8.80764 8.813744 8.822899 8.822899
          8.838157 8.838158 8.865623 8.874786 8.880891 8.890045
          8.893097 8.896149 8.899201 8.908356 8.908356 8.908357
          8.9236145 8.954132 8.963287 8.963287 8.981597 8.981598
          8.996857 8.999908 8.999908 9.0121155 9.018219 9.021271
          9.021271 9.021271 9.0243225 9.030426 9.033478 9.033478
          9.051788 9.063996 9.076202 9.079253 9.088409 9.115875
          9.121979 9.128091 9.131142 9.134193 9.134193 9.137245
          9.140297 9.140297 9.152504 9.155557 9.1586075 9.1586075
          9.164711 9.167763 9.173866 9.17997 9.183022 9.189125
          9.19828 9.213539 9.222693 9.222694 9.225746 9.228798
          9.244057 9.256265 9.2593155 9.265419 9.277626 9.28373
          9.286781 9.30204 9.308144 9.317299 9.326455 9.332558
          9.341713 9.347817 9.350868 9.350868 9.350868 9.3600235
          9.372237 9.384445 9.396652 9.396652 9.402755 9.408859
          9.411911 9.411911 9.411911 9.418015 9.421065 9.433273
          9.433273 9.433273 9.436325 9.436325 9.442429 9.457688
          9.469894 9.475998 9.475998 9.47905 9.482101 9.509567
          9.509567 9.527878 9.53093 9.540085 9.543137 9.546188
          9.54924 9.555344 9.570602 9.579758 9.598068 9.598068
          9.6072235 9.613327 9.634697 9.643852 9.646905 9.656059
          9.662163 9.747612 9.775078 9.775078 9.781181 9.802543
          9.820855 9.866631 9.875793 9.878845 9.8880005 9.903259
          9.909363 9.912415 9.912415 9.930725 9.93988 9.97345
          9.982605 10.000916 10.003967 10.016174 10.019226 10.02533
          10.037537 10.040588 10.040588 10.04364 10.055847 10.068054
          10.071106 10.071106 10.071106 10.107727 10.129097 10.132149
          10.1352005 10.1352005 10.141304 10.150459 10.156563 10.168769
          10.16877 10.16877 10.171822 10.174873 10.174873 10.174873
          10.202339 10.205391 10.208443 10.2237015 10.226753 10.23896
          10.242012 10.245064 10.260323 10.284737 10.287788 10.287788
          10.293892 10.306099 10.3244095 10.327461 10.327461 10.345772
          10.351875 10.379349 10.403763 10.406815 10.412918 10.431229
          10.440384 10.446487 10.449539 10.473953 10.489212 10.525833
          10.577713 10.644858 10.650963 10.68148 10.702843 10.727257
          10.754723 10.92868 10.9530945 10.956146 10.971405 11.154518
          11.17588 11.224709 11.224709 11.33152 11.377304 11.612289
          11.716057 16.953033
        </DataArray>
        <DataArray type="Int32" Name="VertexId" format="ascii" RangeMin="0" RangeMax="25597">
          1703 25448 5537 24648 17580 3375
          25127 19378 5270 11295 22535 8291
          17692 19056 19280 22697 5552 24966
          17705 24651 5376 20001 17383 19605
          18253 24806 5063 19122 19521 19376
          6073 19441 23543 16000 19841 22532
          24971 5713 13754 5109 19282 18961
          13355 5553 5536 19281 5269 6076
          15373 19120 17696 24967 6942 1316
          19603 24811 20135 24649 25287 22537
          5215 5216 8618 7087 15520 6264
          5540 15623 5539 21571 21890 5361
          651 15840 351 22209 16520 17540
          4901 17447 22062 6426 17546 20613
          19602 22533 19763 885 17286 6559
          24791 17541 17287 2569 11558 17538
          14250 17708 139 3692 3377 6265
          3693 8519 5432 6235 24138 5431
          3376 11397 15839 18265 16282 11557
          9103 16443 17707 21034 14551 10534
          1468 5592 1151 16310 4421 16639
          20645 6398 19678 2976 10490 16182
          20780 10373 20325 16604 20782 1689
          4891 342 20324 16444 20781 24004
          6168 19839 20707 7302 9888 23181
          10533 17599 17694 19453 20932 6397
          10651 17770 20485 413 20546 6489
          16805 16965 1207 7332 21453 1944
          12017 13958 20298 1046 16095 16442
          16045 17584 15703 20706 4900 15862
          13637 24325 16121 19938 17769 381
          5062 18307 820 17930 19719 23496
          19517 16631 22060 1310 21709 19880
          21731 7012 21229 19655 16159 0
          23657 25334 19896 8455 10329 17746
          11018 6208 14071 23335 19815 20972
          6329 10489 10491 18468 21389 23591
          10212 19704 6558 20459 23339 19838
          18467 1312 18632 14705 25417 20811
          21068 1264 2824 19774 20137 21777
          21421 17583 13917 1696 1625 10956
          19773 22688 17623 20868 12664 19558
          22346 12152 7172 13916 3624 11508
          20973 19677 20971 19336 20867 14546
          21228 20834 5548 19879 17970 20454
          25272 1101 10372 17461 10812 22370
          9144 18634 9276 7083 19559 23348
          9724 11831 16368 1657 1206 9364
          2386 13759 14488 18735 1387 16281
          18633 7084 1546 21921 1045 19702
          13219 16529 2694 5330 7412 13918
          21082 12986 13124 14892 21616 16630
          24146 8782 18291 22050 23973 21252
          14731 13797 1760 23270 5709 25271
          12151 6316 4564 25582 7762 18131
          23813 23430 154 17907 19495 19609
          16939 19608 18794 12479 20673 20833
          2303 20384 17299 1102 2334 22529
          17279 20660 21760 18471 19610 3031
          20501 18631 24144 501 14776 11779
          20385 15053 24772 20259 9726 11670
          17784 19777 16362 780 13147 16367
          908 940 7252 1069 1068 10211
          13146 20809 17097 17098 14649 2504
          23346 12959 15994 14035 10652 17462
          19866 14196 11669 2752 6526 10972
          20497 6366 14523 12825 25101 7489
          4581 24669 25323 16690 12985 14161
          2205 13474 5385 20657 14322 14648
          5672 11830 3799 17114 656 16369
          16954 15039 7490 2835 24452 705
          3304 21761 22743 19313 23489 19616
          209 13226 17906 19615 17799 25310
          1234 10856 20223 20383 9858 17745
          19865 22904 19396 20655 15359 14195
          19018 23490 895 4344 7442 25259
          18141 18470 19776 1745 14719 7602
          1669 2498 13681 14162 17459 2521
          13520 4124 17012 25579 21074 13841
          16530 2084 2298 19030 13521 20711
          20712 97 1064 19177 13843 12639
          22262 22915 13278 2526 20581 19
          24974 23571 4848 5770 14166 14441
          13065 18935 620 2697 3803 2946
          19791 6798 13387 19397 24127 19632
          12665 17957 13099 20710 6949 18614
          25570 20742 5384 3116 17958 8406
          13225 19096 3067 23202 16482 20417
          20420 22422 14281 68 24973 23561
          13548 17137 20416 2635 3963 19937
          2015 5349 15349 2495 4894 25253
          25588 16851 1304 11618 20 2366
          3642 5510 7509 14326 20099 4364
          23362 3186 14970 21343 24841 2376
          13311 24990 5008 3641 8711 21866
          14190 13709 3026 13227 1491 13388
          17259 18560 12062 13475 15189 25571
          3348 15193 18774 24159 2796 15192
          18720 3620 9183 1504 21505 2625
          1528 10606 15354 25589 13842 14003
          2113 15353 658 14810 20538 5511
          17034 17195 16236 20741 4121 17035
          2273 1344 3802 20537 5545 3621
          22482 18115 1224 16813 5838 637
          4883 4122 20903 2170 894 21073
          1326 10640 22420 2465 14016 6959
          2864 8175 6948 21504 5509 2536
          488 1794 2786 19416 5188 22469
          4502 1978 543 7475 1645 25002
          13519 1664 4503 12481 17956 18454
          13692 79 3529 5927 18868 25003
          8862 16975 17521 12642 25001 420
          18936 8439 20028 25585 25597 3024
          16974 953 8336 21666 3755 5348
          22560 13870 17651 23967 22629 15132
          1911 12101 10469 3795 8951 4845
          18869 954 17297 12100 2216 4103
          645 5417 8176 16976 12320 95
          13472 14352 19074 3347 5000 3349
          9022 2906 2543 14762 12643 2678
          16715 20027 2245 9828 2081 2544
          278 7 5098 15131 14359 10472
          10767 14602 17091 259 21506 17246
          4936 1078 8589 10633 10607 22721
          12752 4289 10471 16 7655 9869
          3637 19742 10634 12480 6805 7504
          3475 4160 5257 3310 10638 490
          3436 17086 5928 10308 6882 13708
          16550 8952 3472 20062 1826 5338
          14217 22308 10632 9707 15539 16548
          15739 16549 19234 19530 15798 6637
          4841 9035 14539 11677 21827 25456
          1167 3629 2676 19371 105 3469
          3473 8875 16711 15578 3471 8084
          13605 14540 18143 9553 17 12641
          16712 15293 16710 9708 4931 20370
          13309 17360 14378 14377 5097 1217
          20190 25455 13853 19899 10340 9228
          1938 16970 24233 3244 560 7735
          20191 2764 12388 214 5760 15231
          5419 1486 18272 5835 8219 5938
          8380 15958 7832 3200 12209 15292
          7734 15063 5530 8540 654 13222
          4531 13896 5259 5655 9551 13733
          551 11629 3987 11477 14009 4690
          6539 7897 1919 22309 9388 13780
          646 25595 550 2968 6848 8722
          17805 4770 16222 8058 12953 8563
          9876 14379 5495 3361 547 20189
          1732 10020 21826 8909 1940 3968
          7831 8882 22241 475 10 15389
          3084 89 364 16934 22311 23867
          9 10353 2444 20211 4453 22147
          3901 4639 249 7516 24871 15223
          10483 6358 15901 365 22910 9949
          23518 10035 24874 16384 15388 7896
          3360 6058 13622 13734 39 8379
          24873 1429 12551 1270 12562 10684
          9373 5816 9212 372 2921 9715
          5815 18480 9213 2141 216 7675
          24199 11570 168 3679 2308 9374
          2809 11915 7358 1076 1588 6057
          6039 14288 18910 23399 5720 12882
          261 850 5423 8057 2053 5879
          8218 9165 22811 18536 2680 11994
          6378 25168 2363 21641 1232 2467
          2850 18547 15230 9786 2929 24799
          10121 6733 2689 25167 15454 6198
          5497 23913 12583 21077 24713 11800
          4159 7957 9960 9785 23839 10821
          9039 5 11006 11758 10523 24639
          2690 11889 3090 9106 2930 23734
          3075 5759 1123 11735 23263 14127
          9788 8315 13340 14287 1992 10846
          11437 24821 713 2915 7958 22117
          2701 1839 21434 24316 2395 11639
          5425 777 2762 10120 21958 7796
          9879 9188 504 12112 12272 10783
          18528 356 16823 2069 25461 22772
          1244 17727 17365 617 11626 11951
          2234 10282 12111 11090 17364 15156
          17567 598 9086 11950 23733 24215
          1609 9105 1930 5262 1405 23090
          5279 11182 12224 24501 136 6631
          9107 17152 14450 712 22008 21647
          21002 682 2851 25330 19035 2235
          12106 11577 12727 9329 15112 14449
          11947 3681 15122 24055 134 9328
          1090 24374 4196 25301 15723 1091
          456 17366 3744 8842 13021 15777
          6837 2700 6079 1188 2381 1348
          17236 1770 923 6139 13046 10002
          1282 6356 10133 9843 18831 2962
          8853 135 146 18208 25065 2961
          9015 2073 5979 14962 2452 7180
          1083 25508 12180 4515 1291 25370
          2236 14451 17474 22398 1568 15394
          19591 17247 6459 9473 9651 25348
          9632 15393 25041 25459 9491 13088
          15555 6702 16593 15752 19887 1739
          7666 16433 7694 9014 306 19888
          1899 25516 4473 22073 16918 25356
          22037 7854 14657 6863 19725 15108
          11153 21877 13249 25234 8851 13089
          4633 8106 7022 14497 1575 9812
          23745 22158 17393 25395 1735 14341
          25522 14180 24702 14182 15554 25394
          12853 17394 14181 19886 13251 7963
          19006 10431 16088 21913 25521 15927
          8124 2048 12532 19007 16087 22198
          9972 10069 25559 6415 3860 21569
          25398 25399 964 9811 25397 15767
          14790 9930 22038 7964 22235 9847
          25561 9178 1774 12443 21010 8125
          12283 23605 11732 20604 8413 25518
          9687 20763 8574 8734 24864 8573
          1775 14042 14202 23460 7715 9749
          24105 11053 10064 20957 25537 8960
          24407 6100 9744 19621 18762 22602
          22442 11523 23141 18601 19620 11365
          6400 2560 11840 16888 9769 9929
          11524 16728 23763 11682 19624 23474
          18441 18602 25526 24568 23313 12000
          11214 23635 19784 19463 19623 23475
          13663 21279 21686 22484 8967 18923
          7217 24900 13503 21525 9795 22978
          25475 18763 21526 10556 21119 25474
          25548 21687 25547 22979 25534 25219
          23950 19649 23790 19650 19963 19802
          22816 4962 5763 10397 4974 5133
          8485 7688 9760 10889 11048 9440
          8646 8490 8643 7526 9763 11041
          11201 8349
        </DataArray>
        <DataArray type="Int32" Name="CriticalType" format="ascii" RangeMin="0" RangeMax="4">
          0 0 0 0 0 0
          0 0 0 0 0 0
          0 0 0 0 0 0
          0 0 0 0 0 0
          0 1 0 0 0 1
          0 0 0 0 1 0
          0 0 0 0 1 0
          0 1 1 1 1 0
          0 1 0 1 0 0
          0 1 0 1 1 1
          0 1 0 0 0 0
          0 0 1 0 0 0
          0 1 0 0 0 0
          0 0 0 0 1 0
          1 1 1 0 0 0
          0 1 1 0 0 1
          0 0 0 0 0 1
          1 0 0 1 0 1
          1 0 0 0 0 1
          0 0 1 0 0 0
          0 1 0 0 0 0
          0 0 0 0 0 0
          0 0 0 0 0 0
          0 0 1 1 1 0
          0 0 0 0 0 0
          1 0 1 0 0 1
          0 0 1 0 0 0
          0 1 0 0 0 0
          0 0 0 0 0 1
          0 0 0 1 1 1
          0 1 0 0 1 0
          1 0 0 1 0 0
          0 0 1 1 0 0
          1 0 0 0 1 0
          1 0 0 1 0 0
          0 0 1 1 1 0
          1 1 1 0 1 0
          0 0 1 1 1 1
          1 1 0 0 0 0
          0 0 0 0 1 0
          1 1 0 0 1 0
          1 0 0 0 0 0
          0 0 1 1 0 0
          1 1 1 0 1 1
          1 0 0 1 0 1
          0 0 1 0 0 1
          0 0 0 0 1 0
          0 0 0 0 1 0
          0 0 0 1 0 1
          1 1 1 0 1 1
          0 0 0 0 0 1
          0 0 0 0 1 1
          0 1 0 1 0 1
          1 1 0 0 1 1
          1 0 0 0 0 1
          1 1 0 0 1 0
          0 1 1 0 0 1
          0 0 0 1 0 1
          1 0 0 0 1 0
          1 1 1 1 0 0
          1 1 0 0 1 0
          1 0 1 0 0 1
          0 1 1 0 4 1
          1 1 0 1 0 1
          1 0 1 0 1 1
          0 0 1 0 0 1
          0 1 0 0 0 0
          1 0 0 0 1 0
          0 0 0 1 0 1
          0 1 0 0 0 1
          1 0 1 0 1 0
          1 1 0 0 0 0
          0 0 1 1 0 0
          0 1 0 1 0 1
          1 1 0 1 1 1
          0 1 0 0 0 1
          0 1 1 1 1 1
          0 1 0 1 1 0
          0 0 0 1 0 1
          1 0 0 0 1 0
          1 0 0 1 0 1
          0 0 1 0 0 0
          0 0 0 0 0 0
          0 0 1 0 0 0
          0 0 0 1 0 1
          1 0 0 1 0 0
          0 0 1 0 1 0
          1 0 0 0 1 0
          1 1 1 0 1 0
          0 0 1 0 1 1
          1 0 0 1 1 1
          0 1 1 1 1 1
          0 0 0 1 1 0
          1 0 0 0 0 0
          0 1 1 1 0 1
          0 0 1 1 0 1
          1 0 0 1 1 1
          0 0 1 0 1 1
          1 0 0 0 0 0
          1 0 0 1 1 1
          0 1 1 1 0 1
          0 0 0 1 0 1
          1 1 1 1 1 1
          0 0 1 0 1 0
          1 1 1 1 1 1
          0 0 1 1 0 1
          0 0 1 1 1 1
          0 1 1 1 0 0
          0 1 1 0 0 0
          1 1 1 0 1 1
          0 0 1 0 0 1
          0 0 0 0 1 0
          1 0 0 1 0 1
          1 0 0 0 0 1
          0 1 1 1 1 0
          0 0 0 0 0 1
          1 1 1 1 1 1
          0 0 1 1 0 1
          1 1 0 1 0 1
          1 1 0 0 1 0
          1 1 1 0 1 1
          0 0 0 1 1 0
          0 1 0 1 1 0
          0 0 0 0 1 1
          0 0 1 0 1 0
          1 0 1 1 1 0
          1 0 1 0 1 1
          1 1 1 1 0 1
          0 1 0 1 1 0
          0 0 1 0 1 0
          0 1 1 0 0 1
          1 0 0 0 0 0
          1 0 1 1 0 4
          1 1 0 1 1 1
          1 1 1 0 1 1
          1 0 1 1 0 0
          1 1 0 1 1 1
          0 1 1 1 0 0
          0 1 0 0 1 0
          1 0 0 0 0 0
          0 1 1 1 0 0
          0 1 0 0 0 1
          1 0 1 1 1 1
          0 1 1 0 1 0
          0 0 1 0 1 1
          0 0 0 1 1 0
          1 1 1 0 1 0
          1 1 0 0 1 1
          0 1 1 0 1 1
          0 1 1 1 1 1
          1 1 1 1 0 0
          1 0 0 1 1 1
          1 0 1 1 1 1
          0 0 1 0 0 1
          1 0 1 1 1 0
          0 1 0 1 1 1
          1 0 1 1 0 1
          1 0 1 1 0 0
          0 0 0 1 0 1
          1 1 1 1 1 1
          1 0 1 0 0 1
          1 1 1 1 1 1
          0 0 1 1 0 1
          1 1 0 1 1 1
          1 0 0 1 1 1
          1 0 1 0 1 1
          0 1 1 0 0 0
          0 0 0 1 1 1
          1 1 1 1 1 0
          1 0 0 1 1 1
          1 1 0 0 1 1
          1 1 0 0 1 0
          0 0 0 0 0 0
          1 1 0 1 1 1
          1 0 0 1 1 0
          0 1 0 1 0 1
          1 0 1 1 1 1
          1 1 1 0 1 1
          0 1 1 1 0 0
          0 0 0 1 1 0
          0 1 1 1 1 1
          1 1 1 1 1 0
          0 1 0 1 1 1
          1 1 1 1 0 1
          1 0 0 1 0 0
          1 1 1 1 1 1
          0 1 0 0 0 1
          1 1 0 1 0 1
          0 1 0 1 1 1
          1 1 1 1 1 1
          1 1 1 0 1 1
          0 1 0 0 1 0
          1 1 0 1 1 0
          0 1 0 1 0 1
          0 1 1 1 1 0
          1 0 1 1 1 0
          1 1 1 0 0 0
          1 1 1 0 0 1
          1 1 0 1 1 0
          0 0 0 1 0 0
          1 1 0 1 1 1
          1 0 0 0 1 1
          0 1 0 1 0 0
          1 1 0 0 1 1
          1 1 1 1 0 0
          1 1 0 0 1 0
          0 0 0 1 1 1
          0 1 1 1 1 0
          0 1 0 1 1 0
          0 1 1 1 1 0
          1 0 0 1 1 1
          0 1 1 1 1 1
          1 0 1 1 1 0
          1 1 0 0 1 1
          1 0 1 0 0 1
          1 1 0 1 1 1
          1 0 1 0 1 1
          1 0 0 1 0 0
          0 1 1 0 0 0
          1 0 1 0 1 0
          1 1 0 0 0 1
          1 1 1 1 0 0
          1 1 1 1 1 1
          1 0 1 0 1 1
          0 0 0 1 0 0
          1 0 1 0 1 0
          0 1 1 0 1 1
          0 1 1 1 1 1
          0 0 1 1 0 1
          1 1 1 1 0 1
          0 0 0 0 1 1
          1 1 1 1 1 0
          1 3
        </DataArray>
        <DataArray type="Int32" Name="RegionSize" format="ascii" RangeMin="0" RangeMax="1900">
          35 2 1 1 8 1
          0 1 0 14 1 11
          3 1 0 0 0 0
          1 0 0 1 6 1
          9 0 1 2 1 44
          6 0 21 4 17 1
          0 0 6 0 1 0
          27 20 0 0 3 2
          14 5 2 2 21 16
          0 1 4 0 30 2
          0 1 17 15 1 0
          0 95 28 1 0 10
          12 16 39 1 10 2
          1 0 9 1 2 0
          0 27 33 4 0 0
          7 3 10 27 0 4
          12 0 3 0 0 102
          0 29 0 3 16 1
          50 0 3 14 0 72
          4 0 9 26 10 1
          3 6 1 11 6 5
          3 0 0 10 0 2
          0 0 0 0 1 11
          8 2 2 1 15 6
          3 1 0 72 8 8
          3 3 130 4 1 5
          0 0 23 10 0 0
          0 2 0 3 5 1
          19 4 4 0 18 2
          9 0 0 1 0 23
          1 35 0 1 1 12
          15 0 8 14 0 1
          0 2 7 1 2 0
          1 0 0 0 17 10
          2 26 16 16 0 0
          6 3 7 9 0 0
          29 0 2 0 2 3
          0 2 77 3 11 0
          5 2 0 1 12 0
          0 6 5 0 0 3
          19 4 0 3 46 8
          10 1 2 0 2 0
          3 1 8 2 6 3
          0 27 4 0 2 6
          25 1 2 1 2 4
          0 0 2 1 0 25
          27 0 29 0 5 2
          1 1 0 7 0 13
          6 0 2 2 0 21
          0 4 14 0 16 12
          8 0 10 11 1 47
          21 1 13 1 11 8
          2 44 0 0 2 8
          3 10 4 1 19 13
          4 7 12 5 0 15
          2 17 10 0 15 0
          0 0 6 1 0 23
          11 0 1 3 7 9
          4 0 1 0 0 4
          15 19 26 13 20 4
          2 48 3 1 0 0
          2 0 0 0 0 1
          0 5 29 0 2 3
          0 11 0 5 0 9
          19 2 6 0 1 4
          1 0 0 8 0 7
          1 22 9 0 2 0
          16 3 6 0 3 1
          2 1 0 10 0 5
          3 39 6 0 4 6
          9 2 14 9 16 5
          12 7 3 2 1 0
          17 0 0 6 1 2
          9 97 0 2 17 7
          1 11 0 41 2 16
          0 22 3 1 0 1
          5 0 18 6 16 14
          5 27 0 0 19 12
          0 6 1 11 1 0
          4 3 6 2 6 0
          3 4 1 51 0 0
          0 23 54 0 1 0
          0 26 2 3 1 0
          0 1 13 2 0 3
          0 2 0 13 4 39
          14 0 19 28 0 0
          2 1 2 1 5 7
          0 1 4 0 32 0
          0 14 1 11 2 10
          0 1 0 1 3 1
          0 0 2 28 4 26
          1 10 1 17 0 13
          0 0 8 3 15 10
          22 0 1 2 1 0
          2 20 13 2 11 6
          4 1 9 1 24 6
          45 0 32 10 1 67
          2 0 0 7 11 4
          29 0 3 0 0 1
          3 2 0 8 0 1
          0 110 6 11 0 1
          0 0 3 6 0 11
          3 1 2 2 22 1
          19 1 1 1 0 6
          18 18 1 52 7 95
          0 3 53 0 4 24
          1 0 35 0 1 1
          3 27 0 1 1 0
          0 19 2 11 3 0
          13 16 46 0 13 1
          5 13 11 1 0 1
          1 0 5 0 24 1
          1 7 0 9 2 9
          1 0 0 0 2 15
          1 2 35 115 11 0
          9 0 2 3 0 16
          10 7 0 51 20 79
          0 0 12 14 0 1
          1 1 1 0 4 3
          12 31 1 0 7 2
          14 36 1 3 68 30
          9 2 0 22 1 0
          0 7 7 7 6 0
          4 8 6 0 15 7
          12 12 1 0 17 2
          1 1 0 0 5 19
          10 7 3 0 1 3
          52 8 35 1 18 19
          0 33 1 12 28 9
          1 1 57 1 6 0
          2 1 24 0 0 7
          12 0 0 8 1 0
          1 0 2 28 4 7
          0 36 0 18 22 16
          2 22 66 2 16 41
          0 0 1 3 1 1
          22 36 0 2 5 26
          0 14 3 27 2 0
          1 5 4 0 19 0
          2 2 14 7 13 1
          0 8 36 10 0 14
          0 33 0 1 8 0
          11 4 41 12 4 49
          0 4 13 0 1 1
          0 9 41 9 33 5
          3 0 8 7 3 3
          5 43 0 1 68 0
          5 2 4 0 0 22
          4 38 26 0 24 38
          3 7 2 13 29 0
          8 58 57 6 0 0
          0 0 0 23 3 6
          1 2 3 5 5 24
          9 5 126 4 2 11
          42 1 2 7 109 6
          2 1 0 10 36 6
          3 1 54 35 4 10
          3 0 13 7 6 4
          0 0 0 2 1 36
          15 58 0 0 16 8
          2 5 23 2 1 10
          7 23 1 1 68 22
          0 1 7 71 0 34
          8 7 3 1 19 1
          16 13 17 6 1 57
          6 0 7 6 56 47
          0 42 47 0 0 0
          1 4 1 5 1 11
          65 8 19 93 185 2
          8 1 1 3 1 62
          99 10 3 5 9 3
          2 8 0 2 20 1
          0 3 0 3 28 0
          29 15 2 2 6 9
          45 2 1 7 0 1
          2 17 10 46 1 27
          13 1 31 1 9 10
          18 114 3 0 4 10
          2 24 90 10 1 4
          1 0 0 20 38 0
          0 0 0 40 58 8
          1 9 7 28 0 0
          2 8 0 18 24 7
          5 4 13 27 1 2
          31 5 0 42 10 32
          2 30 7 96 77 2
          0 59 6 0 8 2
          217 10 0 2 1 4
          1 7 2 6 230 3
          23 35 32 13 30 36
          7 0 31 0 3 95
          6 4 0 1 27 0
          18 35 4 15 43 0
          3 32 1 57 17 7
          1 19 5 62 53 3
          75 1 37 9 22 36
          117 17 24 6 2 0
          19 6 285 0 0 56
          10 12 9 53 5 0
          0 3 0 18 0 0
          2 15 0 0 41 89
          93 0 1 3 104 23
          0 14 1 13 2 5
          61 71 0 1 20 1
          3 15 24 119 0 0
          14 84 0 0 104 0
          0 0 4 85 55 8
          2 18 57 155 154 0
          0 49 0 4 17 0
          0 34 7 73 1 0
          0 6 0 5 1 5
          0 2 82 6 6 41
          30 1 128 0 14 0
          65 58 0 0 2 14
          93 3 104 0 0 39
          31 107 0 15 28 16
          459 0 32 1 90 107
          205 2 1 140 5 7
          5 3 293 0 0 0
          80 0 60 0 80 0
          9 115 1 0 0 26
          0 3 269 0 0 1
          0 26 39 21 51 6
          12 0 9 0 1 198
          0 0 0 64 14 0
          79 4 103 0 68 1
          0 89 0 2 79 127
          0 104 19 29 80 81
          0 0 74 193 1 200
          214 16 100 170 0 771
          4 3 2 0 668 2
          2 0 239 102 609 2
          1900 1900
        </DataArray>
        <DataArray type="Int32" Name="RegionSpan" format="ascii" RangeMin="1" RangeMax="178">
          3 1 1 2 3 2
          1 2 1 3 2 4
          2 2 1 1 1 1
          1 1 1 1 3 2
          3 1 1 1 2 4
          2 1 4 1 4 1
          1 1 3 1 1 1
          4 4 2 1 2 1
          2 3 2 2 6 4
          1 2 2 4 6 4
          1 3 3 3 2 1
          1 6 4 1 1 4
          1 4 7 1 2 1
          1 1 2 1 5 1
          1 7 5 1 1 1
          3 3 2 6 1 9
          3 1 3 1 1 13
          3 3 1 5 3 1
          7 1 2 3 1 9
          2 1 13 2 3 1
          2 7 1 2 1 3
          1 1 1 3 1 2
          1 1 1 1 1 1
          3 1 1 2 2 2
          1 1 1 6 2 2
          1 2 8 2 2 1
          1 1 4 3 1 1
          1 6 1 1 3 2
          3 1 1 1 4 1
          3 1 1 1 2 3
          1 8 1 1 1 2
          3 1 2 7 1 1
          1 1 9 2 2 1
          2 1 1 1 7 5
          2 4 4 7 1 1
          2 2 5 4 2 1
          5 2 1 1 1 1
          1 2 19 2 12 1
          3 7 1 1 2 1
          1 2 2 1 8 1
          9 2 1 2 2 2
          3 1 1 1 1 1
          3 1 2 10 2 1
          2 4 6 1 3 12
          4 1 1 2 1 12
          1 1 1 1 1 2
          4 1 4 1 2 2
          2 2 1 2 1 3
          4 1 1 9 1 7
          1 8 3 1 4 5
          3 1 3 2 1 5
          5 1 3 1 8 5
          2 9 1 5 1 16
          2 5 2 1 4 2
          2 3 2 3 1 3
          27 5 2 1 19 1
          1 14 16 1 1 4
          2 1 1 2 2 18
          9 1 1 1 19 2
          4 24 5 5 5 1
          2 6 2 1 5 1
          2 1 5 1 1 2
          1 7 3 1 9 6
          1 6 1 1 1 5
          15 2 6 1 2 3
          1 1 1 3 1 7
          1 3 4 1 2 1
          5 2 2 1 2 1
          1 1 1 9 1 2
          1 7 2 1 2 1
          11 2 5 4 6 4
          7 3 1 2 1 1
          6 1 1 25 1 2
          2 13 1 7 2 6
          11 3 1 29 4 3
          1 27 1 1 1 2
          2 27 4 8 9 5
          3 3 1 2 2 1
          1 1 1 6 1 2
          2 1 2 1 2 1
          2 2 1 38 1 4
          1 5 15 1 1 1
          1 2 1 2 1 1
          1 1 16 1 1 1
          1 1 1 3 1 5
          5 1 5 8 1 1
          1 1 10 2 2 2
          2 2 1 1 14 1
          2 2 7 3 14 4
          1 1 3 1 1 2
          3 1 1 9 11 2
          1 5 8 3 4 3
          1 1 2 3 4 3
          4 1 1 1 1 1
          1 7 3 1 4 6
          2 1 2 1 4 2
          5 1 8 3 3 14
          1 1 2 2 4 1
          30 1 1 1 1 1
          4 1 1 4 1 8
          1 13 17 13 1 2
          1 1 3 2 1 2
          3 5 2 7 9 15
          4 1 15 1 7 3
          12 5 10 17 5 53
          1 2 16 2 3 6
          1 1 3 2 1 2
          2 10 7 3 1 1
          1 3 7 2 1 1
          15 2 5 1 4 3
          1 3 8 1 1 2
          1 1 1 1 5 1
          9 3 1 20 2 3
          2 1 1 1 2 7
          1 3 16 29 2 1
          2 1 2 2 1 4
          2 3 2 19 3 7
          1 1 2 6 1 4
          12 7 1 2 1 7
          3 20 1 1 6 2
          3 16 4 3 5 9
          2 2 1 1 11 1
          1 15 3 6 2 1
          1 2 2 1 5 22
          3 3 3 1 8 1
          2 2 4 1 8 2
          5 3 1 1 6 4
          9 10 5 4 3 6
          1 5 1 3 8 1
          1 1 11 1 18 1
          1 1 4 1 1 11
          9 1 1 3 1 1
          2 1 5 15 4 2
          2 4 1 3 19 16
          7 16 17 2 5 27
          2 1 10 3 1 1
          7 17 1 3 2 17
          1 24 4 19 2 1
          2 23 2 1 32 1
          2 2 3 2 4 1
          1 6 13 15 1 4
          1 5 1 1 2 8
          2 1 20 1 8 4
          1 4 7 1 3 1
          1 3 23 2 20 7
          1 1 3 2 3 2
          16 47 3 1 14 1
          21 5 2 1 16 53
          1 6 2 1 11 43
          2 7 2 7 16 55
          4 58 26 7 1 1
          4 1 1 10 45 33
          1 2 13 20 51 37
          3 3 16 1 2 5
          12 1 4 7 25 1
          2 2 1 20 2 1
          2 1 24 22 3 1
          1 1 5 2 2 1
          1 1 1 4 1 4
          2 40 1 13 7 3
          5 2 3 3 1 11
          52 9 37 4 42 50
          1 1 29 13 1 20
          24 19 2 1 5 2
          16 3 5 11 29 13
          29 1 13 3 59 5
          1 37 12 1 1 1
          1 2 1 27 20 4
          3 5 11 40 70 1
          7 1 1 3 5 24
          45 34 1 2 3 3
          1 5 1 1 3 1
          1 3 1 2 3 1
          4 20 2 2 7 9
          16 2 1 18 2 1
          1 37 3 33 1 6
          21 1 47 2 7 6
          8 40 12 1 1 9
          2 6 48 15 1 2
          1 1 1 29 24 1
          1 9 1 9 2 18
          106 71 19 52 5 1
          1 13 1 29 91 7
          5 13 35 30 2 77
          91 2 1 30 5 5
          28 69 11 7 30 2
          1 50 2 1 4 2
          77 7 1 2 1 6
          1 33 2 63 31 13
          75 26 58 9 39 86
          3 2 29 1 73 75
          2 3 1 1 51 1
          24 39 1 80 65 1
          1 113 1 105 6 72
          1 107 25 83 71 2
          112 1 35 26 145 4
          98 37 39 3 3 1
          36 95 87 1 1 71
          5 64 3 80 4 1
          1 1 1 35 1 1
          64 106 1 3 12 44
          96 1 1 1 67 46
          1 5 1 40 1 2
          57 53 1 1 6 2
          51 36 65 88 1 1
          16 60 1 1 84 1
          1 1 2 23 29 3
          2 23 30 83 70 1
          1 5 1 2 3 1
          1 106 5 16 2 1
          1 2 1 5 24 178
          1 2 123 8 4 18
          65 1 22 1 8 1
          119 74 1 1 110 26
          71 2 89 1 1 99
          77 80 1 105 106 88
          131 1 95 2 114 100
          55 1 2 165 3 3
          1 125 129 1 1 1
          59 1 22 1 145 1
          9 124 2 1 1 6
          2 44 53 2 1 1
          1 61 6 26 132 14
          104 1 1 1 26 31
          1 1 1 116 2 1
          60 2 36 1 56 1
          1 116 1 1 128 58
          1 31 17 16 5 14
          1 1 32 8 1 32
          145 5 156 147 1 37
          1 2 2 1 16 5
          4 7 7 14 9 1
          33 33
        </DataArray>
      </PointData>
      <CellData>
      </CellData>
      <Points>
        <DataArray type="Float32" Name="Points" NumberOfComponents="3" format="ascii" RangeMin="0" RangeMax="223.45021816950637">
          103 10 0 8 159 0
          97 34 0 8 154 0
          140 109 0 15 21 0
          7 157 0 18 121 0
          150 32 0 95 70 0
          135 140 0 131 51 0
          92 110 0 16 119 0
          80 120 0 137 141 0
          112 34 0 6 156 0
          105 110 0 11 154 0
          96 33 0 1 125 0
          103 108 0 85 122 0
          13 114 0 6 155 0
          103 31 0 82 119 0
          1 122 0 16 121 0
          153 37 0 81 121 0
          23 147 0 0 100 0
          1 124 0 132 140 0
          11 156 0 113 35 0
          154 85 0 149 31 0
          82 120 0 81 118 0
          75 83 0 113 34 0
          96 34 0 81 120 0
          149 32 0 156 37 0
          13 96 0 80 119 0
          96 110 0 7 156 0
          62 43 0 36 8 0
          83 122 0 11 155 0
          135 125 0 9 154 0
          7 158 0 137 140 0
          95 32 0 96 32 0
          138 53 0 47 44 0
          0 97 0 24 39 0
          100 34 0 103 97 0
          99 34 0 131 134 0
          130 136 0 81 33 0
          11 4 0 0 99 0
          31 2 0 129 138 0
          40 103 0 100 109 0
          101 30 0 7 109 0
          142 137 0 26 40 0
          106 109 0 133 128 0
          82 122 0 133 140 0
          83 123 0 85 5 0
          6 108 0 159 40 0
          151 154 0 101 109 0
          7 108 0 9 16 0
          38 72 0 98 109 0
          10 89 0 108 110 0
          139 0 0 12 23 0
          17 21 0 25 39 0
          13 23 0 39 53 0
          152 33 0 155 38 0
          138 150 0 151 33 0
          16 21 0 37 71 0
          159 98 0 25 114 0
          122 101 0 37 72 0
          143 56 0 123 102 0
          107 110 0 74 131 0
          151 90 0 134 65 0
          28 9 0 152 34 0
          31 7 0 150 101 0
          101 27 0 159 103 0
          5 129 0 158 39 0
          158 122 0 96 18 0
          90 65 0 22 101 0
          140 129 0 133 64 0
          5 127 0 124 103 0
          142 129 0 89 10 0
          91 30 0 22 2 0
          4 127 0 124 102 0
          141 129 0 4 150 0
          88 38 0 159 123 0
          67 129 0 102 45 0
          128 61 0 141 144 0
          133 65 0 159 109 0
          94 110 0 93 121 0
          132 130 0 157 39 0
          91 66 0 10 111 0
          5 128 0 93 2 0
          66 128 0 89 40 0
          5 105 0 5 106 0
          87 7 0 132 45 0
          13 134 0 24 12 0
          17 75 0 38 87 0
          138 126 0 86 6 0
          95 100 0 122 102 0
          45 100 0 144 109 0
          23 98 0 66 129 0
          100 30 0 22 99 0
          37 85 0 5 152 0
          121 100 0 98 124 0
          9 111 0 61 2 0
          102 31 0 67 114 0
          20 5 0 10 112 0
          39 123 0 136 146 0
          157 121 0 151 103 0
          140 137 0 30 8 0
          109 135 0 40 124 0
          131 135 0 132 43 0
          109 132 0 135 122 0
          159 100 0 0 0 0
          137 147 0 54 158 0
          56 124 0 135 52 0
          89 64 0 146 110 0
          138 68 0 128 38 0
          151 87 0 135 145 0
          135 123 0 12 131 0
          89 39 0 89 65 0
          91 65 0 68 115 0
          109 133 0 71 147 0
          132 63 0 24 123 0
          158 40 0 139 127 0
          139 145 0 158 123 0
          67 115 0 32 8 0
          72 116 0 145 91 0
          137 158 0 11 130 0
          108 131 0 144 7 0
          104 17 0 94 123 0
          137 125 0 17 136 0
          141 133 0 143 109 0
          157 86 0 96 10 0
          25 10 0 76 68 0
          93 123 0 128 141 0
          23 110 0 68 130 0
          24 79 0 38 122 0
          106 139 0 152 75 0
          132 44 0 156 86 0
          104 22 0 148 71 0
          13 131 0 157 122 0
          11 131 0 136 120 0
          67 130 0 146 90 0
          108 132 0 34 130 0
          108 34 0 39 124 0
          50 112 0 134 127 0
          152 157 0 141 6 0
          132 64 0 21 109 0
          92 67 0 130 139 0
          24 57 0 74 116 0
          156 57 0 43 44 0
          39 122 0 148 145 0
          124 60 0 151 73 0
          48 102 0 57 10 0
          86 7 0 84 58 0
          146 14 0 159 85 0
          88 90 0 15 117 0
          107 8 0 121 101 0
          73 116 0 44 44 0
          106 9 0 1 137 0
          85 6 0 22 123 0
          99 82 0 49 103 0
          134 16 0 50 33 0
          52 46 0 158 86 0
          122 131 0 26 81 0
          4 82 0 12 93 0
          16 135 0 150 103 0
          146 150 0 142 54 0
          51 114 0 130 137 0
          133 149 0 132 132 0
          11 92 0 37 86 0
          0 11 0 70 145 0
          109 35 0 151 157 0
          151 75 0 76 39 0
          84 28 0 142 159 0
          82 48 0 51 113 0
          133 148 0 70 146 0
          154 0 0 147 111 0
          135 121 0 89 122 0
          139 105 0 88 122 0
          74 117 0 159 77 0
          33 129 0 33 130 0
          63 14 0 64 127 0
          19 108 0 142 6 0
          94 14 0 129 140 0
          159 107 0 20 129 0
          0 136 0 71 115 0
          90 122 0 151 18 0
          21 128 0 71 116 0
          144 150 0 21 3 0
          56 92 0 99 73 0
          65 127 0 13 94 0
          132 154 0 99 126 0
          126 60 0 150 72 0
          24 111 0 97 123 0
          42 102 0 140 4 0
          27 82 0 47 102 0
          108 5 0 140 5 0
          52 45 0 109 6 0
          108 6 0 131 63 0
          26 82 0 9 130 0
          137 106 0 138 106 0
          89 91 0 104 15 0
          146 145 0 159 80 0
          154 99 0 115 87 0
          92 66 0 22 109 0
          26 124 0 116 88 0
          149 72 0 32 17 0
          126 40 0 92 68 0
          17 128 0 126 39 0
          123 90 0 25 80 0
          141 156 0 129 46 0
          101 28 0 29 154 0
          43 158 0 50 104 0
          25 81 0 81 88 0
          125 13 0 34 84 0
          105 33 0 17 129 0
          82 89 0 88 91 0
          72 35 0 150 73 0
          119 23 0 154 106 0
          16 4 0 49 102 0
          154 105 0 159 93 0
          130 46 0 115 17 0
          132 152 0 65 4 0
          104 20 0 1 136 0
          23 142 0 113 120 0
          129 146 0 96 122 0
          49 1 0 106 82 0
          146 111 0 95 122 0
          39 111 0 30 158 0
          114 7 0 136 67 0
          63 126 0 63 127 0
          98 61 0 145 110 0
          25 124 0 24 143 0
          36 121 0 15 129 0
          159 95 0 115 88 0
          138 118 0 130 146 0
          95 5 0 24 27 0
          82 46 0 139 157 0
          61 113 0 70 115 0
          96 123 0 145 10 0
          159 91 0 82 47 0
          69 10 0 98 15 0
          81 85 0 82 88 0
          19 109 0 121 15 0
          80 84 0 124 25 0
          52 106 0 139 159 0
          114 131 0 81 86 0
          50 103 0 4 13 0
          58 14 0 150 118 0
          81 84 0 71 129 0
          72 129 0 97 0 0
          104 6 0 137 119 0
          83 86 0 159 78 0
          22 139 0 35 143 0
          158 82 0 126 15 0
          101 128 0 19 0 0
          14 156 0 51 147 0
          48 30 0 10 36 0
          86 88 0 41 90 0
          105 81 0 55 118 0
          140 3 0 137 16 0
          123 23 0 66 18 0
          111 123 0 78 42 0
          107 83 0 37 121 0
          127 150 0 112 122 0
          25 79 0 37 112 0
          139 81 0 70 129 0
          69 43 0 54 116 0
          130 159 0 102 129 0
          104 33 0 76 19 0
          38 112 0 86 52 0
          105 82 0 56 119 0
          27 19 0 2 145 0
          2 103 0 97 127 0
          100 127 0 22 140 0
          41 89 0 68 0 0
          13 156 0 41 147 0
          108 84 0 17 107 0
          96 127 0 75 16 0
          123 24 0 97 124 0
          95 12 0 69 33 0
          149 95 0 95 15 0
          94 30 0 133 157 0
          148 159 0 51 105 0
          24 8 0 98 72 0
          20 0 0 126 14 0
          122 22 0 70 34 0
          149 46 0 86 89 0
          99 125 0 44 27 0
          2 146 0 146 19 0
          90 93 0 63 133 0
          41 155 0 136 14 0
          31 83 0 30 156 0
          48 31 0 121 22 0
          71 54 0 106 136 0
          110 88 0 109 85 0
          146 18 0 107 82 0
          51 9 0 108 83 0
          139 107 0 0 116 0
          62 75 0 35 84 0
          149 94 0 131 159 0
          148 20 0 153 94 0
          54 117 0 159 150 0
          76 17 0 152 94 0
          0 117 0 100 22 0
          63 57 0 64 9 0
          65 134 0 65 16 0
          88 9 0 46 66 0
          154 95 0 149 159 0
          82 86 0 83 87 0
          33 13 0 153 95 0
          18 4 0 90 92 0
          58 128 0 71 34 0
          74 106 0 75 107 0
          76 101 0 101 129 0
          121 25 0 75 106 0
          33 14 0 64 8 0
          122 23 0 57 128 0
          105 34 0 101 22 0
          82 140 0 35 113 0
          104 7 0 13 105 0
          78 36 0 157 3 0
          83 30 0 122 25 0
          103 130 0 90 13 0
          94 5 0 113 131 0
          46 8 0 80 66 0
          20 140 0 65 15 0
          96 87 0 79 43 0
          144 17 0 15 51 0
          68 43 0 64 134 0
          69 34 0 136 15 0
          8 3 0 34 11 0
          66 17 0 56 121 0
          68 32 0 69 140 0
          22 28 0 58 12 0
          63 3 0 115 46 0
          45 10 0 42 156 0
          79 84 0 64 10 0
          23 28 0 1 78 0
          36 112 0 54 115 0
          92 85 0 79 0 0
          9 22 0 7 37 0
          148 117 0 43 156 0
          62 55 0 15 106 0
          81 109 0 2 79 0
          41 156 0 100 2 0
          56 118 0 119 52 0
          28 125 0 145 159 0
          157 159 0 144 18 0
          14 106 0 153 5 0
          16 52 0 66 135 0
          75 23 0 68 33 0
          0 141 0 110 86 0
          51 110 0 127 149 0
          69 141 0 92 94 0
          151 11 0 101 75 0
          69 65 0 115 23 0
          151 55 0 45 30 0
          149 117 0 154 5 0
          17 108 0 100 75 0
          136 13 0 103 25 0
          5 4 0 137 33 0
          16 51 0 16 106 0
          0 77 0 95 0 0
          32 84 0 112 89 0
          34 119 0 147 20 0
          40 31 0 149 20 0
          62 56 0 26 18 0
          143 15 0 42 92 0
          3 79 0 118 16 0
          75 104 0 27 125 0
          5 14 0 68 61 0
          1 13 0 144 15 0
          118 1 0 7 0 0
          138 31 0 91 94 0
          119 89 0 72 65 0
          47 67 0 42 91 0
          131 106 0 99 1 0
          66 134 0 126 107 0
          136 30 0 118 6 0
          109 53 0 73 66 0
          47 66 0 1 142 0
          112 79 0 129 26 0
          71 65 0 16 0 0
          135 47 0 109 61 0
          117 22 0 62 123 0
          74 66 0 0 78 0
          85 42 0 144 46 0
          115 21 0 0 26 0
          137 32 0 110 20 0
          78 66 0 10 3 0
          76 21 0 126 106 0
          8 37 0 68 64 0
          2 43 0 108 85 0
          70 103 0 152 55 0
          112 21 0 62 125 0
          66 11 0 58 33 0
          137 88 0 68 139 0
          72 66 0 107 60 0
          19 97 0 68 103 0
          59 98 0 69 103 0
          34 120 0 10 122 0
          118 98 0 77 41 0
          41 30 0 75 56 0
          139 90 0 157 72 0
          67 136 0 16 159 0
          47 7 0 109 22 0
          116 16 0 11 121 0
          105 0 0 109 21 0
          113 21 0 75 55 0
          71 104 0 58 97 0
          111 21 0 84 50 0
          5 85 0 140 90 0
          63 113 0 113 59 0
          17 0 0 1 79 0
          72 104 0 93 95 0
          70 104 0 108 60 0
          131 30 0 50 127 0
          29 83 0 80 108 0
          138 89 0 137 89 0
          137 31 0 97 7 0
          30 126 0 15 159 0
          93 86 0 59 124 0
          100 64 0 108 57 0
          18 12 0 10 106 0
          73 151 0 44 20 0
          80 3 0 55 48 0
          31 126 0 44 17 0
          68 77 0 54 1 0
          0 36 0 31 95 0
          139 33 0 46 9 0
          32 114 0 75 36 0
          59 51 0 18 37 0
          60 52 0 118 99 0
          152 48 0 0 20 0
          49 76 0 92 95 0
          54 48 0 23 94 0
          90 34 0 60 53 0
          14 4 0 102 82 0
          51 28 0 136 86 0
          139 32 0 55 35 0
          111 59 0 133 85 0
          71 3 0 109 72 0
          147 24 0 117 71 0
          89 87 0 50 29 0
          139 40 0 57 49 0
          159 11 0 69 139 0
          108 58 0 20 86 0
          6 4 0 155 159 0
          70 3 0 88 18 0
          128 42 0 82 54 0
          45 111 0 130 29 0
          62 101 0 58 50 0
          153 80 0 83 53 0
          116 61 0 139 89 0
          55 34 0 1 21 0
          67 3 0 29 126 0
          132 10 0 100 62 0
          66 136 0 109 55 0
          20 12 0 128 24 0
          151 48 0 82 55 0
          1 139 0 155 2 0
          10 0 0 29 96 0
          44 19 0 89 0 0
          44 2 0 134 105 0
          71 139 0 27 149 0
          9 0 0 113 64 0
          44 15 0 51 126 0
          133 27 0 67 138 0
          61 24 0 159 28 0
          89 1 0 156 46 0
          71 155 0 23 95 0
          83 65 0 118 39 0
          61 99 0 45 2 0
          30 143 0 29 62 0
          158 146 0 115 62 0
          74 155 0 64 102 0
          28 96 0 56 49 0
          0 21 0 138 37 0
          22 85 0 134 85 0
          39 0 0 59 52 0
          73 155 0 149 8 0
          71 78 0 150 7 0
          82 78 0 124 66 0
          93 58 0 56 36 0
          92 57 0 52 2 0
          41 18 0 115 60 0
          55 36 0 80 115 0
          93 57 0 61 13 0
          56 1 0 155 47 0
          39 151 0 50 72 0
          8 1 0 159 22 0
          68 14 0 94 58 0
          89 17 0 75 74 0
          158 45 0 116 6 0
          148 9 0 137 37 0
          119 37 0 48 89 0
          30 118 0 39 146 0
          120 35 0 82 80 0
          101 1 0 50 5 0
          143 33 0 57 50 0
          133 12 0 119 36 0
          58 51 0 45 57 0
          91 142 0 136 115 0
          120 16 0 154 74 0
          138 39 0 48 157 0
          123 14 0 41 135 0
          112 7 0 67 15 0
          130 17 0 147 115 0
          30 95 0 26 61 0
          49 18 0 159 154 0
          41 63 0 13 42 0
          129 16 0 47 157 0
          94 96 0 118 38 0
          57 34 0 73 149 0
          103 78 0 117 131 0
          73 154 0 120 73 0
          159 25 0 117 49 0
          40 62 0 25 61 0
          159 148 0 101 67 0
          79 56 0 5 0 0
          126 68 0 78 73 0
          123 65 0 159 153 0
          130 16 0 49 74 0
          50 19 0 146 56 0
          50 18 0 54 148 0
          35 19 0 159 35 0
          3 7 0 55 73 0
          63 145 0 47 88 0
          28 61 0 155 51 0
          60 83 0 47 89 0
          72 12 0 126 67 0
          77 71 0 21 155 0
          73 4 0 35 18 0
          118 49 0 37 138 0
          141 16 0 79 11 0
          154 133 0 156 151 0
          155 14 0 119 72 0
          145 33 0 137 4 0
          42 17 0 40 63 0
          38 137 0 116 48 0
          119 61 0 68 57 0
          24 3 0 112 75 0
          112 76 0 63 67 0
          128 115 0 36 2 0
          23 105 0 149 12 0
          21 159 0 52 142 0
          124 7 0 127 110 0
          85 108 0 137 3 0
          106 72 0 111 74 0
          154 13 0 42 64 0
          111 75 0 50 69 0
          84 108 0 116 94 0
          127 109 0 118 3 0
          126 56 0 110 74 0
          53 148 0 55 151 0
          9 10 0 145 56 0
          10 12 0 142 32 0
          125 8 0 50 144 0
          159 32 0 142 69 0
          64 76 0 21 153 0
          136 0 0 71 41 0
          147 56 0 32 107 0
          50 90 0 72 4 0
          88 137 0 47 135 0
          42 131 0 42 4 0
          131 17 0 50 158 0
          155 118 0 155 13 0
          106 75 0 57 72 0
          87 79 0 49 58 0
          72 94 0 49 90 0
          107 74 0 1 23 0
          82 94 0 55 150 0
          134 0 0 48 58 0
          130 6 0 54 152 0
          36 26 0 21 158 0
          43 98 0 131 6 0
          136 2 0 86 108 0
          64 23 0 42 55 0
          61 81 0 97 98 0
          117 42 0 140 16 0
          159 37 0 68 7 0
          141 14 0 68 8 0
          116 107 0 10 11 0
          123 5 0 59 38 0
          86 81 0 82 62 0
          2 8 0 116 39 0
          53 63 0 83 61 0
          111 117 0 82 18 0
          53 55 0 135 0 0
          146 0 0 128 113 0
          105 156 0 81 18 0
          55 56 0 153 12 0
          59 37 0 82 93 0
          52 15 0 140 44 0
          123 6 0 68 159 0
          20 76 0 35 28 0
          11 8 0 90 158 0
          156 13 0 51 90 0
          34 109 0 158 139 0
          128 9 0 34 96 0
          71 122 0 127 107 0
          59 40 0 33 59 0
          51 60 0 68 158 0
          32 60 0 33 96 0
          81 156 0 19 159 0
          51 59 0 128 81 0
          35 97 0 142 41 0
          113 103 0 72 98 0
          47 124 0 139 10 0
          146 47 0 113 102 0
          14 48 0 54 56 0
          146 1 0 48 124 0
          139 11 0 76 159 0
          153 27 0 153 137 0
          118 105 0 76 158 0
          117 137 0 14 49 0
          97 91 0 143 42 0
          45 123 0 68 94 0
          113 69 0 117 136 0
          129 82 0 114 157 0
          51 55 0 129 81 0
          153 28 0 106 50 0
          142 43 0 97 90 0
          135 9 0 52 61 0
          65 148 0 78 138 0
          113 108 0 115 158 0
          135 10 0 101 89 0
          82 159 0 100 88 0
          62 154 0 102 88 0
          34 97 0 114 158 0
          53 80 0 114 108 0
          101 88 0 46 124 0
          131 82 0 123 49 0
          126 118 0 31 65 0
          88 100 0 153 136 0
          81 159 0 87 99 0
          124 50 0 128 12 0
          52 78 0 127 118 0
          87 100 0 118 138 0
          52 62 0 149 62 0
          119 159 0 15 40 0
          20 24 0 129 134 0
          118 158 0 119 158 0
          4 6 0 51 61 0
          117 158 0 87 98 0
          70 92 0 10 62 0
          118 137 0 124 49 0
          155 138 0 87 61 0
          121 159 0 58 57 0
          14 11 0 123 77 0
          50 131 0 125 50 0
          123 76 0 85 147 0
          52 73 0 124 128 0
          93 52 0 78 159 0
          87 60 0 123 129 0
          94 53 0 94 54 0
          64 155 0 93 53 0
          15 11 0 122 87 0
          122 88 0 100 146 0
          35 48 0 149 60 0
          105 150 0 13 69 0
          144 62 0 157 130 0
          97 159 0 0 56 0
          87 152 0 20 38 0
          144 60 0 101 122 0
          42 117 0 42 141 0
          42 140 0 3 72 0
          101 144 0 41 116 0
          100 122 0 5 71 0
          0 40 0 0 16 0
          0 74 0 88 105 0
          9 61 0 9 62 0
          4 72 0 88 104 0
          83 148 0 2 73 0
          104 122 0 114 146 0
          41 115 0 42 116 0
          86 159 0 88 153 0
          113 145 0 0 75 0
          14 70 0 115 147 0
          104 123 0 103 121 0
          103 122 0 115 146 0
          63 85 0 159 132 0
          86 135 0 84 140 0
          7 56 0 43 118 0
          17 45 0 100 155 0
          63 84 0 85 134 0
          35 61 0 98 143 0
          35 159 0 43 117 0
          86 134 0 156 65 0
          159 131 0 34 159 0
          108 159 0 87 135 0
          107 159 0 99 143 0
          94 159 0 99 157 0
          110 149 0 129 122 0
          110 148 0 130 122 0
          123 124 0 122 123 0
          96 142 0 2 31 0
          3 36 0 157 64 0
          14 31 0 13 32 0
          5 53 0 8 48 0
          0 61 0 9 68 0
          8 69 0 0 59 0
          6 54 0 10 53 0
          3 54 0 6 47 0
          3 61 0 1 69 0
          1 70 0 29 52 0
          <InformationKey name="L2_NORM_RANGE" location="vtkDataArray" length="2">
            <Value index="0">
              0
            </Value>
            <Value index="1">
              223.45021817
            </Value>
          </InformationKey>
        </DataArray>
      </Points>
      <Cells>
        <DataArray type="Int64" Name="connectivity" format="ascii" RangeMin="0" RangeMax="1393">
          0 1 2 3 4 5
          6 7 8 9 10 11
          12 13 14 15 16 17
          18 19 20 21 22 23
          24 25 26 27 28 29
          30 31 32 33 34 35
          36 37 38 39 40 41
          42 43 44 45 46 47
          48 49 50 51 52 53
          54 55 56 57 58 59
          60 61 62 63 64 65
          66 67 68 69 70 71
          72 73 74 75 76 77
          78 79 80 81 82 83
          84 85 86 87 88 89
          90 91 92 93 94 95
          96 97 98 99 100 101
          102 103 104 105 106 107
          108 109 110 111 112 113
          114 115 116 117 118 119
          120 121 122 123 124 125
          126 127 128 129 130 131
          132 133 134 135 136 137
          138 139 140 141 142 143
          144 145 146 147 148 149
          150 151 152 153 154 155
          156 157 158 159 160 161
          162 163 164 165 166 167
          168 169 170 171 172 173
          174 175 176 177 178 179
          180 181 182 183 184 185
          186 187 188 189 190 191
          192 193 194 195 196 197
          198 199 200 201 202 203
          204 205 206 207 208 209
          210 211 212 213 214 215
          216 217 218 219 220 221
          222 223 224 225 226 227
          228 229 230 231 232 233
          234 235 236 237 238 239
          240 241 242 243 244 245
          246 247 248 249 250 251
          252 253 254 255 256 257
          258 259 260 261 262 263
          264 265 266 267 268 269
          270 271 272 273 274 275
          276 277 278 279 280 281
          282 283 284 285 286 287
          288 289 290 291 292 293
          294 295 296 297 298 299
          300 301 302 303 304 305
          306 307 308 309 310 311
          312 313 314 315 316 317
          318 319 320 321 322 323
          324 325 326 327 328 329
          330 331 332 333 334 335
          336 337 338 339 340 341
          342 343 344 345 346 347
          348 349 350 351 352 353
          354 355 356 357 358 359
          360 361 362 363 364 365
          366 367 368 369 370 371
          372 373 374 375 376 377
          378 379 380 381 382 383
          384 385 386 387 388 389
          390 391 392 393 394 395
          396 397 398 399 400 401
          402 403 404 405 406 407
          408 409 410 411 412 413
          414 415 416 417 418 419
          420 421 422 423 424 425
          426 427 428 429 430 431
          432 433 434 435 436 437
          438 439 440 441 442 443
          444 445 446 447 448 449
          450 451 452 453 454 455
          456 457 458 459 460 461
          462 463 464 465 466 467
          468 469 470 471 472 473
          474 475 476 477 478 479
          480 481 482 483 484 485
          486 487 488 489 490 491
          492 493 494 495 496 497
          498 499 500 501 502 503
          504 505 506 507 508 509
          510 511 512 513 514 515
          516 517 518 519 520 521
          522 523 524 525 526 527
          528 529 530 531 532 533
          534 535 536 537 538 539
          540 541 542 543 544 545
          546 547 548 549 550 551
          552 553 554 555 556 557
          558 559 560 561 562 563
          564 565 566 567 568 569
          570 571 572 573 574 575
          576 577 578 579 580 581
          582 583 584 585 586 587
          588 589 590 591 592 593
          594 595 596 597 598 599
          600 601 602 603 604 605
          606 607 608 609 610 611
          612 613 614 615 616 617
          618 619 620 621 622 623
          624 625 626 627 628 629
          630 631 632 633 634 635
          636 637 638 639 640 641
          642 643 644 645 646 647
          648 649 650 651 652 653
          654 655 656 657 658 659
          660 661 662 663 664 665
          666 667 668 669 670 671
          672 673 674 675 676 677
          678 679 680 681 682 683
          684 685 686 687 688 689
          690 691 692 693 694 695
          696 697 698 699 700 701
          702 703 704 705 706 707
          708 709 710 711 712 713
          714 715 716 717 718 719
          720 721 722 723 724 725
          726 727 728 729 730 731
          732 733 734 735 736 737
          738 739 740 741 742 743
          744 745 746 747 748 749
          750 751 752 753 754 755
          756 757 758 759 760 761
          762 763 764 765 766 767
          768 769 770 771 772 773
          774 775 776 777 778 779
          780 781 782 783 784 785
          786 787 788 789 790 791
          792 793 794 795 796 797
          798 799 800 801 802 803
          804 805 806 807 808 809
          810 811 812 813 814 815
          816 817 818 819 820 821
          822 823 824 825 826 827
          828 829 830 831 832 833
          834 835 836 837 838 839
          840 841 842 843 844 845
          846 847 848 849 850 851
          852 853 854 855 856 857
          858 859 860 861 862 863
          864 865 866 867 868 869
          870 871 872 873 874 875
          876 877 878 879 880 881
          882 883 884 885 886 887
          888 889 890 891 892 893
          894 895 896 897 898 899
          900 901 902 903 904 905
          906 907 908 909 910 911
          912 913 914 915 916 917
          918 919 920 921 922 923
          924 925 926 927 928 929
          930 931 932 933 934 935
          936 937 938 939 940 941
          942 943 944 945 946 947
          948 949 950 951 952 953
          954 955 956 957 958 959
          960 961 962 963 964 965
          966 967 968 969 970 971
          972 973 974 975 976 977
          978 979 980 981 982 983
          984 985 986 987 988 989
          990 991 992 993 994 995
          996 997 998 999 1000 1001
          1002 1003 1004 1005 1006 1007
          1008 1009 1010 1011 1012 1013
          1014 1015 1016 1017 1018 1019
          1020 1021 1022 1023 1024 1025
          1026 1027 1028 1029 1030 1031
          1032 1033 1034 1035 1036 1037
          1038 1039 1040 1041 1042 1043
          1044 1045 1046 1047 1048 1049
          1050 1051 1052 1053 1054 1055
          1056 1057 1058 1059 1060 1061
          1062 1063 1064 1065 1066 1067
          1068 1069 1070 1071 1072 1073
          1074 1075 1076 1077 1078 1079
          1080 1081 1082 1083 1084 1085
          1086 1087 1088 1089 1090 1091
          1092 1093 1094 1095 1096 1097
          1098 1099 1100 1101 1102 1103
          1104 1105 1106 1107 1108 1109
          1110 1111 1112 1113 1114 1115
          1116 1117 1118 1119 1120 1121
          1122 1123 1124 1125 1126 1127
          1128 1129 1130 1131 1132 1133
          1134 1135 1136 1137 1138 1139
          1140 1141 1142 1143 1144 1145
          1146 1147 1148 1149 1150 1151
          1152 1153 1154 1155 1156 1157
          1158 1159 1160 1161 1162 1163
          1164 1165 1166 1167 1168 1169
          1170 1171 1172 1173 1174 1175
          1176 1177 1178 1179 1180 1181
          1182 1183 1184 1185 1186 1187
          1188 1189 1190 1191 1192 1193
          1194 1195 1196 1197 1198 1199
          1200 1201 1202 1203 1204 1205
          1206 1207 1208 1209 1210 1211
          1212 1213 1214 1215 1216 1217
          1218 1219 1220 1221 1222 1223
          1224 1225 1226 1227 1228 1229
          1230 1231 1232 1233 1234 1235
          1236 1237 1238 1239 1240 1241
          1242 1243 1244 1245 1246 1247
          1248 1249 1250 1251 1252 1253
          1254 1255 1256 1257 1258 1259
          1260 1261 1262 1263 1264 1265
          1266 1267 1268 1269 1270 1271
          1272 1273 1274 1275 1276 1277
          1278 1279 1280 1281 1282 1283
          1284 1285 1286 1287 1288 1289
          1290 1291 1292 1293 1294 1295
          1296 1297 1298 1299 1300 1301
          1302 1303 1304 1305 1306 1307
          1308 1309 1310 1311 1312 1313
          1314 1315 1316 1317 1318 1319
          1320 1321 1322 1323 1324 1325
          1326 1327 1328 1329 1330 1331
          1332 1333 1334 1335 1336 1337
          1338 1339 1340 1341 1342 1343
          1344 1345 1346 1347 1348 1349
          1350 1351 1352 1353 1354 1355
          1356 1357 1358 1359 1360 1361
          1362 1363 1364 1365 1366 1367
          1368 1369 1370 1371 1372 1373
          1374 1375 1376 1377 1378 1379
          1380 1381 1382 1383 1384 1385
          1386 1387 1388 1389 1390 1391
          1392 1393
        </DataArray>
        <DataArray type="Int64" Name="offsets" format="ascii" RangeMin="1" RangeMax="1394">
          1 2 3 4 5 6
          7 8 9 10 11 12
          13 14 15 16 17 18
          19 20 21 22 23 24
          25 26 27 28 29 30
          31 32 33 34 35 36
          37 38 39 40 41 42
          43 44 45 46 47 48
          49 50 51 52 53 54
          55 56 57 58 59 60
          61 62 63 64 65 66
          67 68 69 70 71 72
          73 74 75 76 77 78
          79 80 81 82 83 84
          85 86 87 88 89 90
          91 92 93 94 95 96
          97 98 99 100 101 102
          103 104 105 106 107 108
          109 110 111 112 113 114
          115 116 117 118 119 120
          121 122 123 124 125 126
          127 128 129 130 131 132
          133 134 135 136 137 138
          139 140 141 142 143 144
          145 146 147 148 149 150
          151 152 153 154 155 156
          157 158 159 160 161 162
          163 164 165 166 167 168
          169 170 171 172 173 174
          175 176 177 178 179 180
          181 182 183 184 185 186
          187 188 189 190 191 192
          193 194 195 196 197 198
          199 200 201 202 203 204
          205 206 207 208 209 210
          211 212 213 214 215 216
          217 218 219 220 221 222
          223 224 225 226 227 228
          229 230 231 232 233 234
          235 236 237 238 239 240
          241 242 243 244 245 246
          247 248 249 250 251 252
          253 254 255 256 257 258
          259 260 261 262 263 264
          265 266 267 268 269 270
          271 272 273 274 275 276
          277 278 279 280 281 282
          283 284 285 286 287 288
          289 290 291 292 293 294
          295 296 297 298 299 300
          301 302 303 304 305 306
          307 308 309 310 311 312
          313 314 315 316 317 318
          319 320 321 322 323 324
          325 326 327 328 329 330
          331 332 333 334 335 336
          337 338 339 340 341 342
          343 344 345 346 347 348
          349 350 351 352 353 354
          355 356 357 358 359 360
          361 362 363 364 365 366
          367 368 369 370 371 372
          373 374 375 376 377 378
          379 380 381 382 383 384
          385 386 387 388 389 390
          391 392 393 394 395 396
          397 398 399 400 401 402
          403 404 405 406 407 408
          409 410 411 412 413 414
          415 416 417 418 419 420
          421 422 423 424 425 426
          427 428 429 430 431 432
          433 434 435 436 437 438
          439 440 441 442 443 444
          445 446 447 448 449 450
          451 452 453 454 455 456
          457 458 459 460 461 462
          463 464 465 466 467 468
          469 470 471 472 473 474
          475 476 477 478 479 480
          481 482 483 484 485 486
          487 488 489 490 491 492
          493 494 495 496 497 498
          499 500 501 502 503 504
          505 506 507 508 509 510
          511 512 513 514 515 516
          517 518 519 520 521 522
          523 524 525 526 527 528
          529 530 531 532 533 534
          535 536 537 538 539 540
          541 542 543 544 545 546
          547 548 549 550 551 552
          553 554 555 556 557 558
          559 560 561 562 563 564
          565 566 567 568 569 570
          571 572 573 574 575 576
          577 578 579 580 581 582
          583 584 585 586 587 588
          589 590 591 592 593 594
          595 596 597 598 599 600
          601 602 603 604 605 606
          607 608 609 610 611 612
          613 614 615 616 617 618
          619 620 621 622 623 624
          625 626 627 628 629 630
          631 632 633 634 635 636
          637 638 639 640 641 642
          643 644 645 646 647 648
          649 650 651 652 653 654
          655 656 657 658 659 660
          661 662 663 664 665 666
          667 668 669 670 671 672
          673 674 675 676 677 678
          679 680 681 682 683 684
          685 686 687 688 689 690
          691 692 693 694 695 696
          697 698 699 700 701 702
          703 704 705 706 707 708
          709 710 711 712 713 714
          715 716 717 718 719 720
          721 722 723 724 725 726
          727 728 729 730 731 732
          733 734 735 736 737 738
          739 740 741 742 743 744
          745 746 747 748 749 750
          751 752 753 754 755 756
          757 758 759 760 761 762
          763 764 765 766 767 768
          769 770 771 772 773 774
          775 776 777 778 779 780
          781 782 783 784 785 786
          787 788 789 790 791 792
          793 794 795 796 797 798
          799 800 801 802 803 804
          805 806 807 808 809 810
          811 812 813 814 815 816
          817 818 819 820 821 822
          823 824 825 826 827 828
          829 830 831 832 833 834
          835 836 837 838 839 840
          841 842 843 844 845 846
          847 848 849 850 851 852
          853 854 855 856 857 858
          859 860 861 862 863 864
          865 866 867 868 869 870
          871 872 873 874 875 876
          877 878 879 880 881 882
          883 884 885 886 887 888
          889 890 891 892 893 894
          895 896 897 898 899 900
          901 902 903 904 905 906
          907 908 909 910 911 912
          913 914 915 916 917 918
          919 920 921 922 923 924
          925 926 927 928 929 930
          931 932 933 934 935 936
          937 938 939 940 941 942
          943 944 945 946 947 948
          949 950 951 952 953 954
          955 956 957 958 959 960
          961 962 963 964 965 966
          967 968 969 970 971 972
          973 974 975 976 977 978
          979 980 981 982 983 984
          985 986 987 988 989 990
          991 992 993 994 995 996
          997 998 999 1000 1001 1002
          1003 1004 1005 1006 1007 1008
          1009 1010 1011 1012 1013 1014
          1015 1016 1017 1018 1019 1020
          1021 1022 1023 1024 1025 1026
          1027 1028 1029 1030 1031 1032
          1033 1034 1035 1036 1037 1038
          1039 1040 1041 1042 1043 1044
          1045 1046 1047 1048 1049 1050
          1051 1052 1053 1054 1055 1056
          1057 1058 1059 1060 1061 1062
          1063 1064 1065 1066 1067 1068
          1069 1070 1071 1072 1073 1074
          1075 1076 1077 1078 1079 1080
          1081 1082 1083 1084 1085 1086
          1087 1088 1089 1090 1091 1092
          1093 1094 1095 1096 1097 1098
          1099 1100 1101 1102 1103 1104
          1105 1106 1107 1108 1109 1110
          1111 1112 1113 1114 1115 1116
          1117 1118 1119 1120 1121 1122
          1123 1124 1125 1126 1127 1128
          1129 1130 1131 1132 1133 1134
          1135 1136 1137 1138 1139 1140
          1141 1142 1143 1144 1145 1146
          1147 1148 1149 1150 1151 1152
          1153 1154 1155 1156 1157 1158
          1159 1160 1161 1162 1163 1164
          1165 1166 1167 1168 1169 1170
          1171 1172 1173 1174 1175 1176
          1177 1178 1179 1180 1181 1182
          1183 1184 1185 1186 1187 1188
          1189 1190 1191 1192 1193 1194
          1195 1196 1197 1198 1199 1200
          1201 1202 1203 1204 1205 1206
          1207 1208 1209 1210 1211 1212
          1213 1214 1215 1216 1217 1218
          1219 1220 1221 1222 1223 1224
          1225 1226 1227 1228 1229 1230
          1231 1232 1233 1234 1235 1236
          1237 1238 1239 1240 1241 1242
          1243 1244 1245 1246 1247 1248
          1249 1250 1251 1252 1253 1254
          1255 1256 1257 1258 1259 1260
          1261 1262 1263 1264 1265 1266
          1267 1268 1269 1270 1271 1272
          1273 1274 1275 1276 1277 1278
          1279 1280 1281 1282 1283 1284
          1285 1286 1287 1288 1289 1290
          1291 1292 1293 1294 1295 1296
          1297 1298 1299 1300 1301 1302
          1303 1304 1305 1306 1307 1308
          1309 1310 1311 1312 1313 1314
          1315 1316 1317 1318 1319 1320
          1321 1322 1323 1324 1325 1326
          1327 1328 1329 1330 1331 1332
          1333 1334 1335 1336 1337 1338
          1339 1340 1341 1342 1343 1344
          1345 1346 1347 1348 1349 1350
          1351 1352 1353 1354 1355 1356
          1357 1358 1359 1360 1361 1362
          1363 1364 1365 1366 1367 1368
          1369 1370 1371 1372 1373 1374
          1375 1376 1377 1378 1379 1380
          1381 1382 1383 1384 1385 1386
          1387 1388 1389 1390 1391 1392
          1393 1394
        </DataArray>
        <DataArray type="UInt8" Name="types" format="ascii" RangeMin="1" RangeMax="1">
          1 1 1 1 1 1
          1 1 1 1 1 1
          1 1 1 1 1 1
          1 1 1 1 1 1
          1 1 1 1 1 1
          1 1 1 1 1 1
          1 1 1 1 1 1
          1 1 1 1 1 1
          1 1 1 1 1 1
          1 1 1 1 1 1
          1 1 1 1 1 1
          1 1 1 1 1 1
          1 1 1 1 1 1
          1 1 1 1 1 1
          1 1 1 1 1 1
          1 1 1 1 1 1
          1 1 1 1 1 1
          1 1 1 1 1 1
          1 1 1 1 1 1
          1 1 1 1 1 1
          1 1 1 1 1 1
          1 1 1 1 1 1
          1 1 1 1 1 1
          1 1 1 1 1 1
          1 1 1 1 1 1
          1 1 1 1 1 1
          1 1 1 1 1 1
          1 1 1 1 1 1
          1 1 1 1 1 1
          1 1 1 1 1 1
          1 1 1 1 1 1
          1 1 1 1 1 1
          1 1 1 1 1 1
          1 1 1 1 1 1
          1 1 1 1 1 1
          1 1 1 1 1 1
          1 1 1 1 1 1
          1 1 1 1 1 1
          1 1 1 1 1 1
          1 1 1 1 1 1
          1 1 1 1 1 1
          1 1 1 1 1 1
          1 1 1 1 1 1
          1 1 1 1 1 1
          1 1 1 1 1 1
          1 1 1 1 1 1
          1 1 1 1 1 1
          1 1 1 1 1 1
          1 1 1 1 1 1
          1 1 1 1 1 1
          1 1 1 1 1 1
          1 1 1 1 1 1
          1 1 1 1 1 1
          1 1 1 1 1 1
          1 1 1 1 1 1
          1 1 1 1 1 1
          1 1 1 1 1 1
          1 1 1 1 1 1
          1 1 1 1 1 1
          1 1 1 1 1 1
          1 1 1 1 1 1
          1 1 1 1 1 1
          1 1 1 1 1 1
          1 1 1 1 1 1
          1 1 1 1 1 1
          1 1 1 1 1 1
          1 1 1 1 1 1
          1 1 1 1 1 1
          1 1 1 1 1 1
          1 1 1 1 1 1
          1 1 1 1 1 1
          1 1 1 1 1 1
          1 1 1 1 1 1
          1 1 1 1 1 1
          1 1 1 1 1 1
          1 1 1 1 1 1
          1 1 1 1 1 1
          1 1 1 1 1 1
          1 1 1 1 1 1
          1 1 1 1 1 1
          1 1 1 1 1 1
          1 1 1 1 1 1
          1 1 1 1 1 1
          1 1 1 1 1 1
          1 1 1 1 1 1
          1 1 1 1 1 1
          1 1 1 1 1 1
          1 1 1 1 1 1
          1 1 1 1 1 1
          1 1 1 1 1 1
          1 1 1 1 1 1
          1 1 1 1 1 1
          1 1 1 1 1 1
          1 1 1 1 1 1
          1 1 1 1 1 1
          1 1 1 1 1 1
          1 1 1 1 1 1
          1 1 1 1 1 1
          1 1 1 1 1 1
          1 1 1 1 1 1
          1 1 1 1 1 1
          1 1 1 1 1 1
          1 1 1 1 1 1
          1 1 1 1 1 1
          1 1 1 1 1 1
          1 1 1 1 1 1
          1 1 1 1 1 1
          1 1 1 1 1 1
          1 1 1 1 1 1
          1 1 1 1 1 1
          1 1 1 1 1 1
          1 1 1 1 1 1
          1 1 1 1 1 1
          1 1 1 1 1 1
          1 1 1 1 1 1
          1 1 1 1 1 1
          1 1 1 1 1 1
          1 1 1 1 1 1
          1 1 1 1 1 1
          1 1 1 1 1 1
          1 1 1 1 1 1
          1 1 1 1 1 1
          1 1 1 1 1 1
          1 1 1 1 1 1
          1 1 1 1 1 1
          1 1 1 1 1 1
          1 1 1 1 1 1
          1 1 1 1 1 1
          1 1 1 1 1 1
          1 1 1 1 1 1
          1 1 1 1 1 1
          1 1 1 1 1 1
          1 1 1 1 1 1
          1 1 1 1 1 1
          1 1 1 1 1 1
          1 1 1 1 1 1
          1 1 1 1 1 1
          1 1 1 1 1 1
          1 1 1 1 1 1
          1 1 1 1 1 1
          1 1 1 1 1 1
          1 1 1 1 1 1
          1 1 1 1 1 1
          1 1 1 1 1 1
          1 1 1 1 1 1
          1 1 1 1 1 1
          1 1 1 1 1 1
          1 1 1 1 1 1
          1 1 1 1 1 1
          1 1 1 1 1 1
          1 1 1 1 1 1
          1 1 1 1 1 1
          1 1 1 1 1 1
          1 1 1 1 1 1
          1 1 1 1 1 1
          1 1 1 1 1 1
          1 1 1 1 1 1
          1 1 1 1 1 1
          1 1 1 1 1 1
          1 1 1 1 1 1
          1 1 1 1 1 1
          1 1 1 1 1 1
          1 1 1 1 1 1
          1 1 1 1 1 1
          1 1 1 1 1 1
          1 1 1 1 1 1
          1 1 1 1 1 1
          1 1 1 1 1 1
          1 1 1 1 1 1
          1 1 1 1 1 1
          1 1 1 1 1 1
          1 1 1 1 1 1
          1 1 1 1 1 1
          1 1 1 1 1 1
          1 1 1 1 1 1
          1 1 1 1 1 1
          1 1 1 1 1 1
          1 1 1 1 1 1
          1 1 1 1 1 1
          1 1 1 1 1 1
          1 1 1 1 1 1
          1 1 1 1 1 1
          1 1 1 1 1 1
          1 1 1 1 1 1
          1 1 1 1 1 1
          1 1 1 1 1 1
          1 1 1 1 1 1
          1 1 1 1 1 1
          1 1 1 1 1 1
          1 1 1 1 1 1
          1 1 1 1 1 1
          1 1 1 1 1 1
          1 1 1 1 1 1
          1 1 1 1 1 1
          1 1 1 1 1 1
          1 1 1 1 1 1
          1 1 1 1 1 1
          1 1 1 1 1 1
          1 1 1 1 1 1
          1 1 1 1 1 1
          1 1 1 1 1 1
          1 1 1 1 1 1
          1 1 1 1 1 1
          1 1 1 1 1 1
          1 1 1 1 1 1
          1 1 1 1 1 1
          1 1 1 1 1 1
          1 1 1 1 1 1
          1 1 1 1 1 1
          1 1 1 1 1 1
          1 1 1 1 1 1
          1 1 1 1 1 1
          1 1 1 1 1 1
          1 1 1 1 1 1
          1 1 1 1 1 1
          1 1 1 1 1 1
          1 1 1 1 1 1
          1 1 1 1 1 1
          1 1 1 1 1 1
          1 1 1 1 1 1
          1 1 1 1 1 1
          1 1 1 1 1 1
          1 1 1 1 1 1
          1 1 1 1 1 1
          1 1 1 1 1 1
          1 1 1 1 1 1
          1 1 1 1 1 1
          1 1 1 1 1 1
          1 1 1 1 1 1
          1 1 1 1 1 1
          1 1 1 1 1 1
          1 1 1 1 1 1
          1 1
        </DataArray>
      </Cells>
    </Piece>
  </UnstructuredGrid>
</VTKFile>
